SplineFontDB: 3.2
FontName: Libron-BoldItalic
FullName: Libron Bold Italic
FamilyName: Libron
Weight: Bold
Copyright: Newsreader (c) 2020 The Newsreader Project Authors\nLibron (c) 2026 Nico Verbruggen
Version: 1.0
ItalicAngle: -17
UnderlinePosition: -303
UnderlineWidth: 96
Ascent: 1600
Descent: 400
InvalidEm: 0
sfntRevision: 0x00010000
LayerCount: 2
Layer: 0 1 "Back" 1
Layer: 1 1 "Fore" 0
XUID: [1021 1366236004 1066097624 776348399]
StyleMap: 0x0021
FSType: 0
OS2Version: 4
OS2_WeightWidthSlopeOnly: 0
OS2_UseTypoMetrics: 1
CreationTime: 1606394406
ModificationTime: 1780783444
PfmFamily: 17
TTFWeight: 700
TTFWidth: 5
LineGap: 0
VLineGap: 0
Panose: 2 0 0 0 0 0 0 0 0 0
OS2TypoAscent: 1600
OS2TypoAOffset: 0
OS2TypoDescent: -400
OS2TypoDOffset: 0
OS2TypoLinegap: 0
OS2WinAscent: 2080
OS2WinAOffset: 0
OS2WinDescent: 520
OS2WinDOffset: 0
HheadAscent: 2080
HheadAOffset: 0
HheadDescent: -520
HheadDOffset: 0
OS2SubXSize: 1300
OS2SubYSize: 1200
OS2SubXOff: -46
OS2SubYOff: 150
OS2SupXSize: 1300
OS2SupYSize: 1200
OS2SupXOff: 214
OS2SupYOff: 700
OS2StrikeYSize: 130
OS2StrikeYPos: 501
OS2CapHeight: 1421
OS2XHeight: 1098
OS2Vendor: 'PROD'
OS2CodePages: 20000193.00000000
OS2UnicodeRanges: 00000047.00000001.00000000.00000000
Lookup: 1 0 0 "'locl' Localized Forms in Latin lookup 0" { "'locl' Localized Forms in Latin lookup 0 subtable"  } ['locl' ('latn' <'MOL ' > ) ]
Lookup: 1 0 0 "'locl' Localized Forms in Latin lookup 1" { "'locl' Localized Forms in Latin lookup 1 subtable"  } ['locl' ('latn' <'ROM ' > ) ]
Lookup: 6 0 0 "'ordn' Ordinals in Latin lookup 2" { "'ordn' Ordinals in Latin lookup 2 contextual 0"  "'ordn' Ordinals in Latin lookup 2 contextual 1"  } ['ordn' ('DFLT' <'dflt' > 'latn' <'MOL ' 'ROM ' 'dflt' > ) ]
Lookup: 1 0 0 "Single Substitution lookup 3" { "Single Substitution lookup 3 subtable"  } []
Lookup: 4 0 0 "'ordn' Ordinals in Latin lookup 4" { "'ordn' Ordinals in Latin lookup 4 subtable"  } ['ordn' ('DFLT' <'dflt' > 'latn' <'MOL ' 'ROM ' 'dflt' > ) ]

StartChar: .notdef
Encoding: 65536 -1 0
Width: 950
GlyphClass: 1
Flags: MW
LayerCount: 2
Fore
SplineSet
190 -381 m 1,0,-1
 760 -381 l 1,1,-1
 760 1419 l 1,2,-1
 190 1419 l 1,3,-1
 190 -381 l 1,0,-1
95 -481 m 1,4,-1
 95 1519 l 1,5,-1
 855 1519 l 1,6,-1
 855 -481 l 1,7,-1
 95 -481 l 1,4,-1
EndSplineSet
EndChar

StartChar: exclam
Encoding: 33 33 4
Width: 623
GlyphClass: 1
Flags: MW
LayerCount: 2
Fore
SplineSet
255 328 m 0,0,1
 324 328 324 328 359.5 292.5 c 128,-1,2
 395 257 395 257 395 196 c 0,3,4
 395 136 395 136 370.5 86.5 c 128,-1,5
 346 37 346 37 295.5 7 c 128,-1,6
 245 -23 245 -23 168 -23 c 0,7,8
 100 -23 100 -23 64 12 c 128,-1,9
 28 47 28 47 28 108 c 0,10,11
 28 168 28 168 53 217.5 c 128,-1,12
 78 267 78 267 128.5 297.5 c 128,-1,13
 179 328 179 328 255 328 c 0,0,1
729 1327 m 2,14,-1
 702 1247 l 2,15,16
 695 1224 695 1224 676.5 1178.5 c 128,-1,17
 658 1133 658 1133 632 1071 c 128,-1,18
 606 1009 606 1009 574.5 936.5 c 128,-1,19
 543 864 543 864 510.5 787 c 128,-1,20
 478 710 478 710 446 634 c 128,-1,21
 414 558 414 558 387 489 c 1,22,-1
 230 489 l 1,23,24
 241 558 241 558 253.5 634 c 128,-1,25
 266 710 266 710 278 787 c 128,-1,26
 290 864 290 864 301 936.5 c 128,-1,27
 312 1009 312 1009 322 1071 c 128,-1,28
 332 1133 332 1133 340 1178.5 c 128,-1,29
 348 1224 348 1224 353 1247 c 2,30,-1
 374 1328 l 2,31,32
 383 1357 383 1357 402 1376 c 128,-1,33
 421 1395 421 1395 462 1405 c 128,-1,34
 503 1415 503 1415 574 1415 c 0,35,36
 647 1415 647 1415 683 1405 c 128,-1,37
 719 1395 719 1395 729 1376 c 128,-1,38
 739 1357 739 1357 729 1327 c 2,14,-1
EndSplineSet
EndChar

StartChar: ampersand
Encoding: 38 38 9
Width: 1527
GlyphClass: 1
Flags: MW
LayerCount: 2
Fore
SplineSet
548 696 m 1,0,1
 489 659 489 659 455 620 c 0,2,3
 414 573 414 573 399 521 c 128,-1,4
 384 469 384 469 384 411 c 0,5,6
 384 280 384 280 445 213 c 128,-1,7
 506 146 506 146 647 146 c 0,8,9
 711 146 711 146 772 162 c 0,10,11
 801 170 801 170 830 185 c 1,12,-1
 548 696 l 1,0,1
825 821 m 1,13,-1
 1073 376 l 1,14,15
 1082 389 1082 389 1090 404 c 0,16,17
 1122 458 1122 458 1152 538 c 128,-1,18
 1182 618 1182 618 1211 736 c 1,19,-1
 1083 766 l 1,20,-1
 1109 851 l 1,21,-1
 1587 851 l 1,22,-1
 1563 766 l 1,23,-1
 1428 736 l 1,24,25
 1329 564 1329 564 1242 450 c 0,26,27
 1179 367 1179 367 1117 299 c 1,28,-1
 1206 139 l 1,29,-1
 1371 87 l 1,30,-1
 1346 0 l 1,31,-1
 932 0 l 1,32,-1
 874 106 l 1,33,34
 825 71 825 71 778 48 c 0,35,36
 700 8 700 8 625.5 -8.5 c 128,-1,37
 551 -25 551 -25 476 -25 c 0,38,39
 334 -25 334 -25 243.5 17 c 128,-1,40
 153 59 153 59 110.5 136 c 128,-1,41
 68 213 68 213 68 318 c 0,42,43
 68 401 68 401 90.5 469 c 128,-1,44
 113 537 113 537 167.5 592 c 128,-1,45
 222 647 222 647 317 692 c 0,46,47
 397 730 397 730 512 762 c 1,48,49
 484 816 484 816 466 858 c 0,50,51
 440 916 440 916 429 964 c 128,-1,52
 418 1012 418 1012 418 1063 c 0,53,54
 418 1168 418 1168 466.5 1248.5 c 128,-1,55
 515 1329 515 1329 620 1375 c 128,-1,56
 725 1421 725 1421 893 1421 c 0,57,58
 1024 1421 1024 1421 1103.5 1389.5 c 128,-1,59
 1183 1358 1183 1358 1219 1302.5 c 128,-1,60
 1255 1247 1255 1247 1255 1174 c 0,61,62
 1255 1087 1255 1087 1214.5 1020.5 c 128,-1,63
 1174 954 1174 954 1074 904 c 0,64,65
 983 858 983 858 825 821 c 1,13,-1
791 883 m 1,66,67
 861 922 861 922 904 963 c 0,68,69
 953 1010 953 1010 973.5 1062 c 128,-1,70
 994 1114 994 1114 994 1175 c 0,71,72
 994 1231 994 1231 962.5 1258.5 c 128,-1,73
 931 1286 931 1286 870 1286 c 0,74,75
 813 1286 813 1286 777 1266.5 c 128,-1,76
 741 1247 741 1247 724 1211.5 c 128,-1,77
 707 1176 707 1176 707 1127 c 0,78,79
 707 1075 707 1075 725 1022 c 128,-1,80
 743 969 743 969 786 891 c 1,81,-1
 791 883 l 1,66,67
EndSplineSet
EndChar

StartChar: quotesingle
Encoding: 39 39 10
Width: 457
GlyphClass: 1
Flags: MW
LayerCount: 2
Fore
SplineSet
250 853 m 1,0,-1
 332 1338 l 1,1,-1
 349 1396 l 1,2,-1
 618 1396 l 1,3,-1
 601 1338 l 1,4,-1
 401 853 l 1,5,-1
 250 853 l 1,0,-1
EndSplineSet
EndChar

StartChar: parenleft
Encoding: 40 40 11
Width: 661
GlyphClass: 1
Flags: MW
LayerCount: 2
Fore
SplineSet
859 1372 m 1,0,1
 699 1235 699 1235 595 1100 c 128,-1,2
 491 965 491 965 432.5 831 c 128,-1,3
 374 697 374 697 350 564.5 c 128,-1,4
 326 432 326 432 326 302 c 0,5,6
 326 213 326 213 335.5 133.5 c 128,-1,7
 345 54 345 54 365.5 -24 c 128,-1,8
 386 -102 386 -102 420 -189 c 1,9,-1
 297 -253 l 1,10,11
 228 -129 228 -129 183 -19 c 128,-1,12
 138 91 138 91 116 193 c 128,-1,13
 94 295 94 295 94 392 c 0,14,15
 94 495 94 495 110.5 596 c 128,-1,16
 127 697 127 697 170 799.5 c 128,-1,17
 213 902 213 902 291.5 1010 c 128,-1,18
 370 1118 370 1118 491 1233 c 128,-1,19
 612 1348 612 1348 788 1474 c 1,20,-1
 859 1372 l 1,0,1
EndSplineSet
Substitution2: "'case' Case-Sensitive Forms in Latin lookup 9 subtable" parenleft.case
EndChar

StartChar: parenright
Encoding: 41 41 12
Width: 661
GlyphClass: 1
Flags: MW
LayerCount: 2
Fore
SplineSet
-132 -152 m 1,0,1
 28 -15 28 -15 132 120.5 c 128,-1,2
 236 256 236 256 294 390 c 128,-1,3
 352 524 352 524 376 656.5 c 128,-1,4
 400 789 400 789 400 919 c 0,5,6
 400 1009 400 1009 391 1088 c 128,-1,7
 382 1167 382 1167 361.5 1245.5 c 128,-1,8
 341 1324 341 1324 307 1409 c 1,9,-1
 429 1474 l 1,10,11
 498 1350 498 1350 543.5 1240 c 128,-1,12
 589 1130 589 1130 611 1028.5 c 128,-1,13
 633 927 633 927 633 829 c 0,14,15
 633 727 633 727 616 625.5 c 128,-1,16
 599 524 599 524 556.5 421 c 128,-1,17
 514 318 514 318 435.5 210.5 c 128,-1,18
 357 103 357 103 236 -12 c 128,-1,19
 115 -127 115 -127 -61 -253 c 1,20,-1
 -132 -152 l 1,0,1
EndSplineSet
Substitution2: "'case' Case-Sensitive Forms in Latin lookup 9 subtable" parenright.case
EndChar

StartChar: asterisk
Encoding: 42 42 13
Width: 888
GlyphClass: 1
Flags: MW
LayerCount: 2
Fore
SplineSet
785 745 m 1,0,-1
 673 696 l 1,1,-1
 568 915 l 1,2,-1
 377 774 l 1,3,-1
 299 872 l 1,4,5
 300 872 300 872 466 1044 c 1,6,-1
 278 1190 l 1,7,-1
 342 1298 l 1,8,-1
 550 1186 l 1,9,-1
 623 1419 l 1,10,-1
 741 1388 l 1,11,-1
 703 1147 l 1,12,-1
 937 1144 l 1,13,-1
 945 1016 l 1,14,-1
 715 979 l 1,15,-1
 785 745 l 1,0,-1
EndSplineSet
EndChar

StartChar: plus
Encoding: 43 43 14
Width: 1092
GlyphClass: 1
Flags: MW
LayerCount: 2
Fore
SplineSet
656 588 m 1,0,-1
 966 588 l 1,1,-1
 914 408 l 1,2,-1
 603 408 l 1,3,-1
 506 72 l 1,4,-1
 339 72 l 1,5,-1
 436 408 l 1,6,-1
 126 408 l 1,7,-1
 179 588 l 1,8,-1
 489 588 l 1,9,-1
 586 924 l 1,10,-1
 753 924 l 1,11,-1
 656 588 l 1,0,-1
EndSplineSet
EndChar

StartChar: comma
Encoding: 44 44 15
Width: 543
GlyphClass: 1
Flags: MW
LayerCount: 2
Fore
SplineSet
-142 -278 m 1,0,1
 -42 -214 -42 -214 12 -166 c 128,-1,2
 66 -118 66 -118 86 -80 c 128,-1,3
 106 -42 106 -42 106 -7 c 0,4,5
 106 25 106 25 92 48.5 c 128,-1,6
 78 72 78 72 59 89.5 c 128,-1,7
 40 107 40 107 26 122.5 c 128,-1,8
 12 138 12 138 12 154 c 0,9,10
 12 199 12 199 37 241 c 128,-1,11
 62 283 62 283 106 310 c 128,-1,12
 150 337 150 337 209 337 c 0,13,14
 283 337 283 337 324.5 296.5 c 128,-1,15
 366 256 366 256 366 178 c 0,16,17
 366 112 366 112 346 48.5 c 128,-1,18
 326 -15 326 -15 276.5 -80.5 c 128,-1,19
 227 -146 227 -146 138.5 -219 c 128,-1,20
 50 -292 50 -292 -86 -377 c 1,21,-1
 -142 -278 l 1,0,1
EndSplineSet
EndChar

StartChar: hyphen
Encoding: 45 45 16
Width: 765
GlyphClass: 1
Flags: MW
LayerCount: 2
Fore
SplineSet
158 610 m 1,0,-1
 673 610 l 1,1,-1
 610 394 l 1,2,-1
 95 394 l 1,3,-1
 158 610 l 1,0,-1
EndSplineSet
Substitution2: "'case' Case-Sensitive Forms in Latin lookup 9 subtable" hyphen.case
EndChar

StartChar: period
Encoding: 46 46 17
Width: 544
GlyphClass: 1
Flags: MW
LayerCount: 2
Fore
SplineSet
238 348 m 0,0,1
 308 348 308 348 344.5 311.5 c 128,-1,2
 381 275 381 275 381 211 c 128,-1,3
 381 147 381 147 353.5 94 c 128,-1,4
 326 41 326 41 274 9 c 128,-1,5
 222 -23 222 -23 149 -23 c 0,6,7
 80 -23 80 -23 43.5 13.5 c 128,-1,8
 7 50 7 50 7 114 c 0,9,10
 7 179 7 179 34.5 232 c 128,-1,11
 62 285 62 285 114 316.5 c 128,-1,12
 166 348 166 348 238 348 c 0,0,1
EndSplineSet
EndChar

StartChar: slash
Encoding: 47 47 18
Width: 862
GlyphClass: 1
Flags: MW
LayerCount: 2
Fore
SplineSet
-74 0 m 1,0,-1
 847 1396 l 1,1,-1
 1055 1396 l 1,2,-1
 134 0 l 1,3,-1
 -74 0 l 1,0,-1
EndSplineSet
EndChar

StartChar: zero
Encoding: 48 48 19
Width: 1308
GlyphClass: 1
Flags: MW
LayerCount: 2
Fore
SplineSet
870 1421 m 0,0,1
 1023 1421 1023 1421 1120.5 1363 c 128,-1,2
 1218 1305 1218 1305 1265 1199 c 128,-1,3
 1312 1093 1312 1093 1312 950 c 0,4,5
 1312 836 1312 836 1284 704 c 128,-1,6
 1256 572 1256 572 1198.5 443 c 128,-1,7
 1141 314 1141 314 1051.5 208 c 128,-1,8
 962 102 962 102 838 38.5 c 128,-1,9
 714 -25 714 -25 554 -25 c 0,10,11
 402 -25 402 -25 304 33 c 128,-1,12
 206 91 206 91 159.5 197 c 128,-1,13
 113 303 113 303 113 446 c 0,14,15
 113 560 113 560 140.5 692 c 128,-1,16
 168 824 168 824 225.5 953 c 128,-1,17
 283 1082 283 1082 372.5 1188 c 128,-1,18
 462 1294 462 1294 585.5 1357.5 c 128,-1,19
 709 1421 709 1421 870 1421 c 0,0,1
411 381 m 0,20,21
 411 262 411 262 449 209 c 128,-1,22
 487 156 487 156 566 156 c 0,23,24
 632 156 632 156 690.5 195 c 128,-1,25
 749 234 749 234 798.5 302 c 128,-1,26
 848 370 848 370 887.5 456.5 c 128,-1,27
 927 543 927 543 955 639.5 c 128,-1,28
 983 736 983 736 998 832.5 c 128,-1,29
 1013 929 1013 929 1013 1015 c 0,30,31
 1013 1134 1013 1134 975 1187 c 128,-1,32
 937 1240 937 1240 858 1240 c 0,33,34
 793 1240 793 1240 734 1201 c 128,-1,35
 675 1162 675 1162 626 1094 c 128,-1,36
 577 1026 577 1026 537 939.5 c 128,-1,37
 497 853 497 853 469 756.5 c 128,-1,38
 441 660 441 660 426 563.5 c 128,-1,39
 411 467 411 467 411 381 c 0,20,21
EndSplineSet
Substitution2: "'tnum' Tabular Numbers in Latin lookup 7 subtable" zero
Substitution2: "'pnum' Proportional Numbers in Latin lookup 6 subtable" zero.lf
Substitution2: "'sups' Superscript in Latin lookup 5 subtable" zerosuperior
EndChar

StartChar: one
Encoding: 49 49 20
Width: 1308
GlyphClass: 1
Flags: MW
LayerCount: 2
Fore
SplineSet
746 1120 m 1,0,-1
 398 1018 l 1,1,-1
 363 1159 l 1,2,3
 364 1159 364 1159 922 1405 c 1,4,-1
 1149 1405 l 1,5,-1
 785 154 l 1,6,-1
 1022 88 l 1,7,-1
 995 0 l 1,8,-1
 157 0 l 1,9,-1
 184 88 l 1,10,-1
 466 154 l 1,11,-1
 746 1120 l 1,0,-1
EndSplineSet
Substitution2: "'tnum' Tabular Numbers in Latin lookup 7 subtable" one
Substitution2: "'pnum' Proportional Numbers in Latin lookup 6 subtable" one.lf
Substitution2: "'sups' Superscript in Latin lookup 5 subtable" uni00B9
EndChar

StartChar: colon
Encoding: 58 58 29
Width: 598
GlyphClass: 1
Flags: MW
LayerCount: 2
Fore
SplineSet
433 1015 m 128,-1,1
 505 1015 505 1015 543.5 976.5 c 128,-1,2
 582 938 582 938 582 874 c 0,3,4
 582 816 582 816 556.5 765.5 c 128,-1,5
 531 715 531 715 481.5 684 c 128,-1,6
 432 653 432 653 359 653 c 0,7,8
 287 653 287 653 248.5 691.5 c 128,-1,9
 210 730 210 730 210 793 c 0,10,11
 210 852 210 852 235.5 902.5 c 128,-1,12
 261 953 261 953 311 984 c 128,-1,0
 361 1015 361 1015 433 1015 c 128,-1,1
238 339 m 0,13,14
 311 339 311 339 349.5 300.5 c 128,-1,15
 388 262 388 262 388 198 c 0,16,17
 388 140 388 140 362 89.5 c 128,-1,18
 336 39 336 39 287 8 c 128,-1,19
 238 -23 238 -23 165 -23 c 0,20,21
 93 -23 93 -23 54.5 15.5 c 128,-1,22
 16 54 16 54 16 117 c 0,23,24
 16 176 16 176 41.5 226.5 c 128,-1,25
 67 277 67 277 116.5 308 c 128,-1,26
 166 339 166 339 238 339 c 0,13,14
EndSplineSet
EndChar

StartChar: semicolon
Encoding: 59 59 30
Width: 602
GlyphClass: 1
Flags: MW
LayerCount: 2
Fore
SplineSet
435 1015 m 0,0,1
 508 1015 508 1015 546 976.5 c 128,-1,2
 584 938 584 938 584 874 c 0,3,4
 584 816 584 816 558.5 765.5 c 128,-1,5
 533 715 533 715 483.5 684 c 128,-1,6
 434 653 434 653 362 653 c 128,-1,7
 290 653 290 653 251.5 691.5 c 128,-1,8
 213 730 213 730 213 793 c 0,9,10
 213 852 213 852 238.5 902.5 c 128,-1,11
 264 953 264 953 313.5 984 c 128,-1,12
 363 1015 363 1015 435 1015 c 0,0,1
-132 -278 m 1,13,14
 -31 -214 -31 -214 22.5 -166 c 128,-1,15
 76 -118 76 -118 97 -80 c 128,-1,16
 118 -42 118 -42 118 -7 c 0,17,18
 118 25 118 25 103.5 48.5 c 128,-1,19
 89 72 89 72 70 89.5 c 128,-1,20
 51 107 51 107 37 122.5 c 128,-1,21
 23 138 23 138 23 154 c 0,22,23
 23 199 23 199 48 241 c 128,-1,24
 73 283 73 283 117.5 310 c 128,-1,25
 162 337 162 337 219 337 c 0,26,27
 293 337 293 337 334.5 296.5 c 128,-1,28
 376 256 376 256 376 178 c 0,29,30
 376 112 376 112 356.5 48.5 c 128,-1,31
 337 -15 337 -15 287.5 -80.5 c 128,-1,32
 238 -146 238 -146 150 -219 c 128,-1,33
 62 -292 62 -292 -76 -377 c 1,34,-1
 -132 -278 l 1,13,14
EndSplineSet
EndChar

StartChar: less
Encoding: 60 60 31
Width: 1092
GlyphClass: 1
Flags: MW
LayerCount: 2
Fore
SplineSet
328 480 m 1,0,-1
 865 185 l 1,1,-1
 814 7 l 1,2,-1
 93 414 l 1,3,-1
 142 582 l 1,4,-1
 1098 989 l 1,5,-1
 1036 774 l 1,6,-1
 328 480 l 1,0,-1
EndSplineSet
EndChar

StartChar: greater
Encoding: 62 62 33
Width: 1092
GlyphClass: 1
Flags: MW
LayerCount: 2
Fore
SplineSet
765 516 m 1,0,-1
 228 811 l 1,1,-1
 279 988 l 1,2,-1
 999 582 l 1,3,-1
 951 414 l 1,4,-1
 -6 7 l 1,5,-1
 57 222 l 1,6,-1
 765 516 l 1,0,-1
EndSplineSet
EndChar

StartChar: question
Encoding: 63 63 34
Width: 1171
GlyphClass: 1
Flags: MW
LayerCount: 2
Fore
SplineSet
671 1421 m 0,0,1
 801 1421 801 1421 899.5 1388 c 128,-1,2
 998 1355 998 1355 1065 1297 c 128,-1,3
 1132 1239 1132 1239 1166.5 1163 c 128,-1,4
 1201 1087 1201 1087 1201 1000 c 0,5,6
 1201 874 1201 874 1144 786 c 128,-1,7
 1087 698 1087 698 958 657 c 0,8,9
 854 624 854 624 692 627 c 1,10,-1
 621 475 l 1,11,-1
 453 475 l 1,12,-1
 523 831 l 1,13,14
 683 821 683 821 771.5 840 c 128,-1,15
 860 859 860 859 895 907 c 128,-1,16
 930 955 930 955 930 1032 c 0,17,18
 930 1093 930 1093 904.5 1140 c 128,-1,19
 879 1187 879 1187 829 1214.5 c 128,-1,20
 779 1242 779 1242 705 1242 c 0,21,22
 634 1242 634 1242 583.5 1219 c 128,-1,23
 533 1196 533 1196 499 1165.5 c 128,-1,24
 465 1135 465 1135 440.5 1112 c 128,-1,25
 416 1089 416 1089 396 1089 c 0,26,27
 340 1089 340 1089 304.5 1124.5 c 128,-1,28
 269 1160 269 1160 269 1215 c 0,29,30
 269 1275 269 1275 307 1321 c 128,-1,31
 345 1367 345 1367 433.5 1394 c 128,-1,32
 522 1421 522 1421 671 1421 c 0,0,1
500 328 m 0,33,34
 569 328 569 328 604.5 292.5 c 128,-1,35
 640 257 640 257 640 196 c 0,36,37
 640 136 640 136 615.5 86.5 c 128,-1,38
 591 37 591 37 541 7 c 128,-1,39
 491 -23 491 -23 413 -23 c 0,40,41
 345 -23 345 -23 309.5 12 c 128,-1,42
 274 47 274 47 274 108 c 0,43,44
 274 168 274 168 298.5 217.5 c 128,-1,45
 323 267 323 267 373.5 297.5 c 128,-1,46
 424 328 424 328 500 328 c 0,33,34
EndSplineSet
EndChar

StartChar: at
Encoding: 64 64 35
Width: 1815
GlyphClass: 1
Flags: MW
LayerCount: 2
Fore
SplineSet
1371 299 m 0,0,1
 1434 299 1434 299 1490.5 337 c 128,-1,2
 1547 375 1547 375 1590 444.5 c 128,-1,3
 1633 514 1633 514 1658 609.5 c 128,-1,4
 1683 705 1683 705 1683 821 c 0,5,6
 1683 936 1683 936 1647.5 1028.5 c 128,-1,7
 1612 1121 1612 1121 1541.5 1186 c 128,-1,8
 1471 1251 1471 1251 1365 1285 c 128,-1,9
 1259 1319 1259 1319 1118 1319 c 0,10,11
 949 1319 949 1319 811 1273.5 c 128,-1,12
 673 1228 673 1228 567.5 1145.5 c 128,-1,13
 462 1063 462 1063 390.5 950.5 c 128,-1,14
 319 838 319 838 283 703.5 c 128,-1,15
 247 569 247 569 247 420 c 0,16,17
 247 240 247 240 317 114.5 c 128,-1,18
 387 -11 387 -11 527 -76.5 c 128,-1,19
 667 -142 667 -142 877 -142 c 0,20,21
 967 -142 967 -142 1061.5 -124.5 c 128,-1,22
 1156 -107 1156 -107 1253.5 -71 c 128,-1,23
 1351 -35 1351 -35 1449 19 c 1,24,-1
 1492 -75 l 1,25,26
 1390 -135 1390 -135 1286 -176 c 128,-1,27
 1182 -217 1182 -217 1069.5 -238 c 128,-1,28
 957 -259 957 -259 831 -259 c 0,29,30
 595 -259 595 -259 432 -183.5 c 128,-1,31
 269 -108 269 -108 184.5 38.5 c 128,-1,32
 100 185 100 185 100 397 c 0,33,34
 100 566 100 566 143 720 c 128,-1,35
 186 874 186 874 271 1003 c 128,-1,36
 356 1132 356 1132 482 1227.5 c 128,-1,37
 608 1323 608 1323 772.5 1375.5 c 128,-1,38
 937 1428 937 1428 1138 1428 c 0,39,40
 1352 1428 1352 1428 1505 1356.5 c 128,-1,41
 1658 1285 1658 1285 1738.5 1153 c 128,-1,42
 1819 1021 1819 1021 1819 838 c 0,43,44
 1819 693 1819 693 1781.5 571.5 c 128,-1,45
 1744 450 1744 450 1675.5 360 c 128,-1,46
 1607 270 1607 270 1513.5 220.5 c 128,-1,47
 1420 171 1420 171 1307 171 c 0,48,49
 1177 171 1177 171 1115 224 c 128,-1,50
 1053 277 1053 277 1053 370 c 0,51,52
 1053 396 1053 396 1057.5 424 c 128,-1,53
 1062 452 1062 452 1072 482 c 2,54,-1
 1092 546 l 1,55,-1
 1081 546 l 1,56,57
 1023 439 1023 439 974.5 368 c 128,-1,58
 926 297 926 297 883 256.5 c 128,-1,59
 840 216 840 216 795.5 198.5 c 128,-1,60
 751 181 751 181 701 181 c 0,61,62
 596 181 596 181 538.5 246.5 c 128,-1,63
 481 312 481 312 481 418 c 0,64,65
 481 499 481 499 506.5 584.5 c 128,-1,66
 532 670 532 670 578 749.5 c 128,-1,67
 624 829 624 829 685.5 892 c 128,-1,68
 747 955 747 955 818 991.5 c 128,-1,69
 889 1028 889 1028 966 1028 c 0,70,71
 1042 1028 1042 1028 1094 980 c 0,72,73
 1130 947 1130 947 1157 893 c 1,74,-1
 1227 1009 l 1,75,-1
 1441 1009 l 1,76,-1
 1301 509 l 2,77,78
 1290 471 1290 471 1285 442 c 128,-1,79
 1280 413 1280 413 1280 390 c 0,80,81
 1280 342 1280 342 1302 320.5 c 128,-1,82
 1324 299 1324 299 1371 299 c 0,0,1
1132 837 m 1,83,84
 1123 849 1123 849 1114 858 c 0,85,86
 1092 879 1092 879 1050 879 c 0,87,88
 1011 879 1011 879 970.5 850 c 128,-1,89
 930 821 930 821 893.5 774 c 128,-1,90
 857 727 857 727 828.5 670 c 128,-1,91
 800 613 800 613 783 555.5 c 128,-1,92
 766 498 766 498 766 449 c 0,93,94
 766 409 766 409 782.5 390 c 128,-1,95
 799 371 799 371 833 371 c 0,96,97
 862 371 862 371 896 396 c 128,-1,98
 930 421 930 421 964.5 466 c 128,-1,99
 999 511 999 511 1031 573 c 128,-1,100
 1063 635 1063 635 1088 709 c 2,101,-1
 1132 837 l 1,83,84
EndSplineSet
EndChar

StartChar: A
Encoding: 65 65 36
Width: 1560
GlyphClass: 2
Flags: MW
AnchorPoint: "Anchor-4" 592 0 basechar 0
AnchorPoint: "Anchor-3" 1277 0 basechar 0
LayerCount: 2
Fore
SplineSet
1309 142 m 1,0,-1
 1457 89 l 1,1,-1
 1431 0 l 2,2,3
 1431 -0 1431 0 788 0 c 1,4,-1
 815 89 l 1,5,-1
 983 140 l 1,6,-1
 961 435 l 1,7,-1
 437 435 l 1,8,-1
 256 139 l 1,9,-1
 397 89 l 1,10,-1
 371 0 l 2,11,12
 370 0 370 0 -124 0 c 1,13,-1
 -97 89 l 1,14,-1
 56 139 l 1,15,-1
 824 1360 l 1,16,-1
 1192 1405 l 1,17,-1
 1309 142 l 1,0,-1
903 1196 m 1,18,-1
 539 602 l 1,19,-1
 948 602 l 1,20,-1
 903 1196 l 1,18,-1
EndSplineSet
Substitution2: "Single Substitution lookup 3 subtable" ordfeminine
EndChar

StartChar: B
Encoding: 66 66 37
Width: 1443
GlyphClass: 2
Flags: MW
AnchorPoint: "Anchor-4" 616 0 basechar 0
LayerCount: 2
Fore
SplineSet
466 1255 m 1,0,-1
 318 1307 l 1,1,-1
 343 1396 l 1,2,-1
 699 1396 l 1,3,-1
 834 1396 l 1,4,-1
 1054 1396 l 2,5,6
 1196 1396 1196 1396 1278.5 1360 c 128,-1,7
 1361 1324 1361 1324 1398 1261 c 128,-1,8
 1435 1198 1435 1198 1435 1115 c 0,9,10
 1435 997 1435 997 1384.5 915 c 128,-1,11
 1334 833 1334 833 1237 788 c 0,12,13
 1175 760 1175 760 1096 748 c 1,14,15
 1201 728 1201 728 1254 675 c 0,16,17
 1328 602 1328 602 1328 477 c 0,18,19
 1328 335 1328 335 1266 228 c 128,-1,20
 1204 121 1204 121 1078.5 60.5 c 128,-1,21
 953 0 953 0 764 0 c 2,22,-1
 428 0 l 1,23,-1
 294 0 l 1,24,-1
 -50 0 l 1,25,-1
 -24 89 l 1,26,-1
 141 143 l 1,27,-1
 466 1255 l 1,0,-1
784 1223 m 1,28,-1
 666 819 l 1,29,-1
 886 819 l 2,30,31
 962 819 962 819 1012.5 856 c 128,-1,32
 1063 893 1063 893 1088 954.5 c 128,-1,33
 1113 1016 1113 1016 1113 1088 c 0,34,35
 1113 1132 1113 1132 1096 1162 c 128,-1,36
 1079 1192 1079 1192 1043 1207.5 c 128,-1,37
 1007 1223 1007 1223 949 1223 c 2,38,-1
 784 1223 l 1,28,-1
618 653 m 1,39,-1
 481 181 l 1,40,-1
 715 181 l 2,41,42
 812 181 812 181 876 222 c 128,-1,43
 940 263 940 263 971.5 335 c 128,-1,44
 1003 407 1003 407 1003 501 c 0,45,46
 1003 571 1003 571 963.5 612 c 128,-1,47
 924 653 924 653 830 653 c 2,48,-1
 618 653 l 1,39,-1
EndSplineSet
EndChar

StartChar: C
Encoding: 67 67 38
Width: 1438
GlyphClass: 2
Flags: MW
AnchorPoint: "Anchor-4" 718 0 basechar 0
AnchorPoint: "Anchor-3" 1220 0 basechar 0
LayerCount: 2
Fore
SplineSet
1257 1195 m 1,0,1
 1230 1207 1230 1207 1200 1216 c 0,2,3
 1138 1233 1138 1233 1062 1233 c 0,4,5
 945 1233 945 1233 851.5 1201.5 c 128,-1,6
 758 1170 758 1170 687 1110.5 c 128,-1,7
 616 1051 616 1051 568.5 968 c 128,-1,8
 521 885 521 885 497 782 c 128,-1,9
 473 679 473 679 473 559 c 0,10,11
 473 421 473 421 518 331 c 128,-1,12
 563 241 563 241 648 197 c 0,13,14
 729 155 729 155 854 153 c 0,15,16
 919 152 919 152 983 167 c 0,17,18
 1080 190 1080 190 1178 213 c 1,19,-1
 1274 237 l 1,20,-1
 1200 42 l 1,21,22
 1113 13 1113 13 1004.5 -6 c 128,-1,23
 896 -25 896 -25 765 -25 c 0,24,25
 554 -25 554 -25 416.5 46 c 128,-1,26
 279 117 279 117 212.5 245 c 128,-1,27
 146 373 146 373 146 542 c 0,28,29
 146 694 146 694 184.5 827.5 c 128,-1,30
 223 961 223 961 299.5 1070 c 128,-1,31
 376 1179 376 1179 488.5 1257.5 c 128,-1,32
 601 1336 601 1336 750 1378.5 c 128,-1,33
 899 1421 899 1421 1081 1421 c 0,34,35
 1252 1421 1252 1421 1494 1327 c 1,36,-1
 1433 922 l 1,37,-1
 1291 922 l 2,38,39
 1290 922 1290 922 1257 1195 c 1,0,1
EndSplineSet
EndChar

StartChar: D
Encoding: 68 68 39
Width: 1558
GlyphClass: 2
Flags: MW
AnchorPoint: "Anchor-4" 682 0 basechar 0
LayerCount: 2
Fore
SplineSet
466 1256 m 1,0,-1
 317 1307 l 1,1,-1
 343 1396 l 1,2,-1
 656 1396 l 1,3,-1
 834 1396 l 1,4,-1
 933 1396 l 2,5,6
 1155 1396 1155 1396 1287 1333.5 c 128,-1,7
 1419 1271 1419 1271 1477 1157.5 c 128,-1,8
 1535 1044 1535 1044 1535 892 c 0,9,10
 1535 689 1535 689 1472 524.5 c 128,-1,11
 1409 360 1409 360 1290 243 c 128,-1,12
 1171 126 1171 126 1002.5 63 c 128,-1,13
 834 0 834 0 624 0 c 2,14,-1
 428 0 l 1,15,-1
 251 0 l 1,16,-1
 -49 0 l 1,17,-1
 -24 89 l 1,18,-1
 141 142 l 1,19,-1
 466 1256 l 1,0,-1
640 172 m 2,20,21
 751 172 751 172 841.5 214.5 c 128,-1,22
 932 257 932 257 1001.5 330.5 c 128,-1,23
 1071 404 1071 404 1117.5 499 c 128,-1,24
 1164 594 1164 594 1187.5 701.5 c 128,-1,25
 1211 809 1211 809 1211 918 c 0,26,27
 1211 1015 1211 1015 1176.5 1083 c 128,-1,28
 1142 1151 1142 1151 1070 1187 c 128,-1,29
 998 1223 998 1223 881 1223 c 2,30,-1
 784 1223 l 1,31,-1
 478 172 l 1,32,-1
 640 172 l 2,20,21
EndSplineSet
EndChar

StartChar: E
Encoding: 69 69 40
Width: 1408
GlyphClass: 2
Flags: MW
AnchorPoint: "Anchor-4" 584 0 basechar 0
AnchorPoint: "Anchor-3" 1036 0 basechar 0
LayerCount: 2
Fore
SplineSet
1035 648.900390625 m 1,0,-1
 617 649 l 1,1,-1
 478 172 l 1,2,-1
 958 172 l 1,3,-1
 1108 332.900390625 l 1,4,-1
 1290 332.900390625 l 1,5,-1
 1122 0 l 1,6,-1
 923 0 l 1,7,-1
 428 0 l 1,8,-1
 263 0 l 1,9,-1
 -49 0 l 1,10,-1
 -24 89 l 1,11,-1
 141 142 l 1,12,-1
 466 1256 l 1,13,-1
 317 1307 l 1,14,-1
 343 1396 l 1,15,-1
 669 1396 l 1,16,-1
 834 1396 l 1,17,-1
 1319 1396 l 1,18,-1
 1512 1395.90039062 l 1,19,-1
 1440 1076.90039062 l 1,20,-1
 1288 1077 l 1,21,-1
 1283 1223 l 1,22,-1
 784 1223 l 1,23,-1
 663 808 l 1,24,-1
 1081 807.900390625 l 1,25,-1
 1035 648.900390625 l 1,0,-1
EndSplineSet
EndChar

StartChar: F
Encoding: 70 70 41
Width: 1304
GlyphClass: 2
Flags: MW
AnchorPoint: "Anchor-4" 264 0 basechar 0
LayerCount: 2
Fore
SplineSet
467 139 m 1,0,-1
 616 89 l 1,1,-1
 591 0 l 1,2,-1
 -49 0 l 1,3,-1
 -24 89 l 1,4,-1
 141 142 l 1,5,-1
 466 1256 l 1,6,-1
 317 1307 l 1,7,-1
 343 1396 l 1,8,-1
 666 1396 l 1,9,-1
 834 1396 l 1,10,-1
 1295 1396 l 1,11,-1
 1487 1395.90039062 l 1,12,-1
 1414 1076.90039062 l 1,13,-1
 1260 1076.90039062 l 1,14,-1
 1257 1223 l 1,15,-1
 783 1223 l 1,16,-1
 642 737 l 1,17,-1
 1042 737 l 1,18,-1
 998 578 l 1,19,-1
 595 577 l 1,20,-1
 467 139 l 1,0,-1
EndSplineSet
EndChar

StartChar: G
Encoding: 71 71 42
Width: 1494
GlyphClass: 2
Flags: MW
AnchorPoint: "Anchor-4" 747 0 basechar 0
LayerCount: 2
Fore
SplineSet
851 153 m 0,0,1
 860 153 860 153 930 160 c 0,2,3
 950 162 950 162 970 167 c 1,4,-1
 1072 518 l 1,5,-1
 902 568 l 1,6,-1
 926 657 l 1,7,-1
 1440 655 l 1,8,-1
 1398 515 l 1,9,-1
 1309 206 l 1,10,-1
 1266 41 l 1,11,12
 1177.07288247 6.06434668418 1177.07288247 6.06434668418 1009.5 -13.5 c 0,13,14
 911 -25 911 -25 799 -25 c 0,15,16
 579 -25 579 -25 434 45 c 128,-1,17
 289 115 289 115 217 242 c 128,-1,18
 145 369 145 369 145 539 c 0,19,20
 145 694 145 694 185.5 828.5 c 128,-1,21
 226 963 226 963 303.5 1072 c 128,-1,22
 381 1181 381 1181 494 1259 c 128,-1,23
 607 1337 607 1337 753 1379 c 128,-1,24
 899 1421 899 1421 1075 1421 c 0,25,26
 1147 1421 1147 1421 1211 1414.5 c 0,27,28
 1314.89761995 1403.71817151 1314.89761995 1403.71817151 1524 1322 c 1,29,-1
 1462 922 l 1,30,-1
 1321 922 l 1,31,-1
 1289 1185 l 1,32,33
 1250 1206 1250 1206 1205 1216 c 0,34,35
 1135 1233 1135 1233 1053 1233 c 0,36,37
 939 1233 939 1233 846.5 1201 c 128,-1,38
 754 1169 754 1169 684 1110 c 128,-1,39
 614 1051 614 1051 566.5 968.5 c 128,-1,40
 519 886 519 886 494.5 784.5 c 128,-1,41
 470 683 470 683 470 566 c 0,42,43
 470 425 470 425 517 333.5 c 128,-1,44
 564 242 564 242 649.5 197.5 c 128,-1,45
 735 153 735 153 851 153 c 0,0,1
EndSplineSet
EndChar

StartChar: H
Encoding: 72 72 43
Width: 1689
GlyphClass: 2
Flags: MW
AnchorPoint: "Anchor-4" 713 0 basechar 0
LayerCount: 2
Fore
SplineSet
1338 1256 m 1,0,-1
 1189 1307 l 1,1,-1
 1214 1396 l 1,2,-1
 1854 1396 l 1,3,-1
 1830 1307 l 1,4,-1
 1665 1253 l 1,5,6
 1666 1253 1666 1253 1340 139 c 1,7,-1
 1489 89 l 1,8,-1
 1463 0 l 1,9,-1
 824 0 l 1,10,-1
 848 89 l 1,11,-1
 1013 142 l 1,12,-1
 1154 626 l 1,13,-1
 610 626 l 1,14,-1
 467 139 l 1,15,-1
 616 89 l 1,16,-1
 591 0 l 1,17,-1
 -49 0 l 1,18,-1
 -24 89 l 1,19,-1
 141 142 l 1,20,-1
 466 1256 l 1,21,-1
 317 1307 l 1,22,-1
 343 1396 l 1,23,-1
 982 1396 l 1,24,-1
 958 1307 l 1,25,-1
 793 1253 l 1,26,-1
 660 798 l 1,27,-1
 1204 798 l 1,28,-1
 1338 1256 l 1,0,-1
EndSplineSet
EndChar

StartChar: I
Encoding: 73 73 44
Width: 817
GlyphClass: 2
Flags: MW
AnchorPoint: "Anchor-4" 273 0 basechar 0
AnchorPoint: "Anchor-3" 416 0 basechar 0
LayerCount: 2
Fore
SplineSet
466 1256 m 1,0,-1
 317 1307 l 1,1,-1
 343 1396 l 1,2,-1
 982 1396 l 1,3,-1
 958 1307 l 1,4,-1
 793 1253 l 1,5,-1
 467 139 l 1,6,-1
 616 89 l 1,7,-1
 591 0 l 1,8,-1
 -49 0 l 1,9,-1
 -24 89 l 1,10,-1
 141 142 l 1,11,-1
 466 1256 l 1,0,-1
EndSplineSet
EndChar

StartChar: J
Encoding: 74 74 45
Width: 1064
GlyphClass: 2
Flags: MW
AnchorPoint: "Anchor-4" 335 0 basechar 0
LayerCount: 2
Fore
SplineSet
823 390 m 2,0,1
 796 298 796 298 744 222 c 128,-1,2
 692 146 692 146 616 91.5 c 128,-1,3
 540 37 540 37 442.5 7.5 c 128,-1,4
 345 -22 345 -22 226 -22 c 0,5,6
 66 -22 66 -22 -3.5 30 c 128,-1,7
 -73 82 -73 82 -73 167 c 0,8,9
 -73 228 -73 228 -40.5 267 c 128,-1,10
 -8 306 -8 306 48 306 c 0,11,12
 69 306 69 306 88 285 c 128,-1,13
 107 264 107 264 130 237 c 128,-1,14
 153 210 153 210 185 189 c 128,-1,15
 217 168 217 168 265 168 c 0,16,17
 351 168 351 168 404 214 c 128,-1,18
 457 260 457 260 493 381 c 2,19,-1
 750 1256 l 1,20,-1
 600 1307 l 1,21,-1
 626 1396 l 1,22,-1
 1265 1396 l 1,23,-1
 1241 1307 l 1,24,-1
 1076 1253 l 1,25,-1
 823 390 l 2,0,1
EndSplineSet
EndChar

StartChar: K
Encoding: 75 75 46
Width: 1587
GlyphClass: 2
Flags: MW
AnchorPoint: "Anchor-4" 753 0 basechar 0
LayerCount: 2
Fore
SplineSet
466 1256 m 1,0,-1
 317 1307 l 1,1,-1
 343 1396 l 1,2,-1
 982 1396 l 1,3,-1
 958 1307 l 1,4,-1
 793 1253 l 1,5,-1
 663 808 l 1,6,-1
 829 808 l 1,7,-1
 1350 1261 l 1,8,-1
 1222 1307 l 1,9,-1
 1248 1396 l 1,10,-1
 1757 1396 l 1,11,-1
 1730 1307 l 1,12,-1
 1570 1259 l 1,13,-1
 1034 792 l 1,14,-1
 1350 136 l 1,15,-1
 1472 93 l 1,16,-1
 1446 0 l 1,17,-1
 939 0 l 1,18,-1
 961 78 l 1,19,-1
 999 103 l 1,20,-1
 751 637 l 1,21,-1
 613 637 l 1,22,-1
 467 139 l 1,23,-1
 616 89 l 1,24,-1
 591 0 l 1,25,-1
 -49 0 l 1,26,-1
 -24 89 l 1,27,-1
 141 142 l 1,28,-1
 466 1256 l 1,0,-1
951 720 m 1,29,-1
 951 720 l 1,30,31
 951 720 951 720 951 720 c 1,29,-1
EndSplineSet
EndChar

StartChar: L
Encoding: 76 76 47
Width: 1290
GlyphClass: 2
Flags: MW
AnchorPoint: "Anchor-4" 520 0 basechar 0
AnchorPoint: "Anchor-3" 1027 1396 basechar 0
LayerCount: 2
Fore
SplineSet
793 1253 m 1,0,1
 794 1253 794 1253 478 172 c 1,2,-1
 862 172 l 1,3,-1
 1055 415 l 1,4,-1
 1219 415 l 1,5,-1
 1046 0 l 1,6,-1
 840 0 l 1,7,-1
 428 0 l 1,8,-1
 162 0 l 1,9,-1
 -49 0 l 1,10,-1
 -24 89 l 1,11,-1
 141 143 l 2,12,13
 142 143 142 143 466 1255 c 1,14,-1
 317 1307 l 1,15,-1
 343 1396 l 1,16,-1
 982 1396 l 1,17,-1
 958 1307 l 1,18,-1
 793 1253 l 1,0,1
EndSplineSet
EndChar

StartChar: M
Encoding: 77 77 48
Width: 2065
GlyphClass: 2
Flags: HMW
AnchorPoint: "Anchor-4" 833 0 basechar 0
LayerCount: 2
Fore
SplineSet
1644 1166 m 1,0,-1
 971 0 l 1,1,-1
 655 0 l 1,2,-1
 643 1167 l 1,3,-1
 281 142 l 1,4,-1
 427 89 l 1,5,-1
 402 2 l 1,6,-1
 -76 2 l 1,7,-1
 -51 89 l 1,8,-1
 111 141 l 1,9,-1
 501 1236 l 1,10,-1
 344 1307 l 1,11,-1
 370 1396 l 1,12,-1
 958 1396 l 1,13,-1
 966 281 l 1,14,-1
 1595 1396 l 1,15,-1
 1694 1396 l 1,16,-1
 1764 1396 l 1,17,-1
 2187 1396 l 1,18,-1
 2161 1307 l 1,19,-1
 1992 1248 l 1,20,-1
 1749 139 l 1,21,-1
 1885 89 l 1,22,-1
 1859 2 l 1,23,-1
 1240 2 l 1,24,-1
 1264 89 l 1,25,-1
 1423 142 l 1,26,-1
 1644 1166 l 1,0,-1
EndSplineSet
EndChar

StartChar: N
Encoding: 78 78 49
Width: 1586
GlyphClass: 2
Flags: HMW
AnchorPoint: "Anchor-4" 691 0 basechar 0
LayerCount: 2
Fore
SplineSet
613 1170 m 1,0,-1
 313 140 l 1,1,-1
 470 89 l 1,2,-1
 446 2 l 1,3,-1
 -49 2 l 1,4,-1
 -26 89 l 1,5,-1
 141 139 l 1,6,-1
 463 1241 l 1,7,-1
 316 1312 l 1,8,-1
 340 1396 l 1,9,-1
 870 1396 l 1,10,-1
 1121 253 l 1,11,-1
 1413 1255 l 1,12,-1
 1256 1307 l 1,13,-1
 1281 1396 l 1,14,-1
 1776 1396 l 1,15,-1
 1751 1307 l 1,16,-1
 1585 1256 l 1,17,-1
 1218 0 l 1,18,-1
 876 0 l 1,19,-1
 613 1170 l 1,0,-1
EndSplineSet
EndChar

StartChar: O
Encoding: 79 79 50
Width: 1588
GlyphClass: 2
Flags: MW
AnchorPoint: "Anchor-4" 662 0 basechar 0
AnchorPoint: "Anchor-3" 832 0 basechar 0
AnchorPoint: "Anchor-2" 1327 1396 basechar 0
LayerCount: 2
Fore
SplineSet
1564 872 m 0,0,1
 1564 724 1564 724 1526 590 c 128,-1,2
 1488 456 1488 456 1415 343.5 c 128,-1,3
 1342 231 1342 231 1240 148.5 c 128,-1,4
 1138 66 1138 66 1009.5 20.5 c 128,-1,5
 881 -25 881 -25 731 -25 c 0,6,7
 536 -25 536 -25 405 40 c 128,-1,8
 274 105 274 105 208 228 c 128,-1,9
 142 351 142 351 142 524 c 0,10,11
 142 671 142 671 180 805.5 c 128,-1,12
 218 940 218 940 290.5 1052 c 128,-1,13
 363 1164 363 1164 465 1247 c 128,-1,14
 567 1330 567 1330 696 1375.5 c 128,-1,15
 825 1421 825 1421 975 1421 c 0,16,17
 1171 1421 1171 1421 1301.5 1355.5 c 128,-1,18
 1432 1290 1432 1290 1498 1167.5 c 128,-1,19
 1564 1045 1564 1045 1564 872 c 0,0,1
457 484 m 0,20,21
 457 327 457 327 527 246.5 c 128,-1,22
 597 166 597 166 737 166 c 0,23,24
 816 166 816 166 885 194.5 c 128,-1,25
 954 223 954 223 1011 275 c 128,-1,26
 1068 327 1068 327 1112 397.5 c 128,-1,27
 1156 468 1156 468 1186.5 551.5 c 128,-1,28
 1217 635 1217 635 1232.5 726.5 c 128,-1,29
 1248 818 1248 818 1248 912 c 0,30,31
 1248 1069 1248 1069 1178.5 1149 c 128,-1,32
 1109 1229 1109 1229 969 1229 c 0,33,34
 889 1229 889 1229 820 1200.5 c 128,-1,35
 751 1172 751 1172 694 1120 c 128,-1,36
 637 1068 637 1068 593 998 c 128,-1,37
 549 928 549 928 518.5 844.5 c 128,-1,38
 488 761 488 761 472.5 669.5 c 128,-1,39
 457 578 457 578 457 484 c 0,20,21
EndSplineSet
Substitution2: "Single Substitution lookup 3 subtable" ordmasculine
EndChar

StartChar: P
Encoding: 80 80 51
Width: 1354
GlyphClass: 2
Flags: MW
AnchorPoint: "Anchor-4" 263 0 basechar 0
LayerCount: 2
Fore
SplineSet
467 139 m 1,0,-1
 616 89 l 1,1,-1
 591 0 l 1,2,-1
 -49 0 l 1,3,-1
 -24 89 l 1,4,-1
 141 142 l 1,5,-1
 466 1256 l 1,6,-1
 317 1307 l 1,7,-1
 343 1396 l 1,8,-1
 635 1396 l 1,9,-1
 834 1396 l 1,10,-1
 986 1396 l 2,11,12
 1151 1396 1151 1396 1250.5 1355.5 c 128,-1,13
 1350 1315 1350 1315 1394 1240.5 c 128,-1,14
 1438 1166 1438 1166 1438 1063 c 0,15,16
 1438 956 1438 956 1403 861 c 128,-1,17
 1368 766 1368 766 1295.5 694 c 128,-1,18
 1223 622 1223 622 1111 581 c 128,-1,19
 999 540 999 540 847 540 c 2,20,-1
 584 540 l 1,21,-1
 467 139 l 1,0,-1
837 712 m 2,22,23
 911 712 911 712 965 740 c 128,-1,24
 1019 768 1019 768 1054.5 816.5 c 128,-1,25
 1090 865 1090 865 1108 927.5 c 128,-1,26
 1126 990 1126 990 1126 1059 c 0,27,28
 1126 1112 1126 1112 1103.5 1149 c 128,-1,29
 1081 1186 1081 1186 1032 1204 c 0,30,31
 982 1223 982 1223 902 1223 c 2,32,-1
 783 1223 l 1,33,-1
 634 712 l 1,34,-1
 837 712 l 2,22,23
EndSplineSet
EndChar

StartChar: Q
Encoding: 81 81 52
Width: 1584
GlyphClass: 2
Flags: MW
AnchorPoint: "Anchor-4" 466 -259 basechar 0
LayerCount: 2
Fore
SplineSet
458 484 m 0,0,1
 458 328 458 328 526 247 c 128,-1,2
 594 166 594 166 731 166 c 0,3,4
 809 166 809 166 877 195.5 c 128,-1,5
 945 225 945 225 1002 277.5 c 128,-1,6
 1059 330 1059 330 1104 401 c 128,-1,7
 1149 472 1149 472 1180 555.5 c 128,-1,8
 1211 639 1211 639 1227.5 729.5 c 128,-1,9
 1244 820 1244 820 1244 911 c 0,10,11
 1244 1067 1244 1067 1176 1148 c 128,-1,12
 1108 1229 1108 1229 971 1229 c 0,13,14
 892 1229 892 1229 823.5 1199.5 c 128,-1,15
 755 1170 755 1170 698 1117.5 c 128,-1,16
 641 1065 641 1065 596.5 994 c 128,-1,17
 552 923 552 923 521 840 c 128,-1,18
 490 757 490 757 474 666.5 c 128,-1,19
 458 576 458 576 458 484 c 0,0,1
547 -218 m 2,20,-1
 282 113 l 1,21,22
 232 182 232 182 200.5 247 c 128,-1,23
 169 312 169 312 155 379.5 c 128,-1,24
 141 447 141 447 141 523 c 0,25,26
 141 669 141 669 179.5 802.5 c 128,-1,27
 218 936 218 936 291.5 1048.5 c 128,-1,28
 365 1161 365 1161 467 1245 c 128,-1,29
 569 1329 569 1329 697.5 1375 c 128,-1,30
 826 1421 826 1421 974 1421 c 0,31,32
 1165 1421 1165 1421 1295.5 1356 c 128,-1,33
 1426 1291 1426 1291 1493.5 1168.5 c 128,-1,34
 1561 1046 1561 1046 1561 873 c 0,35,36
 1561 723 1561 723 1519.5 585 c 128,-1,37
 1478 447 1478 447 1399 333.5 c 128,-1,38
 1320 220 1320 220 1206.5 143 c 128,-1,39
 1093 66 1093 66 950 36 c 0,40,41
 829 10 829 10 689 27 c 1,42,-1
 865 -141 l 2,43,44
 919 -192 919 -192 961 -222.5 c 128,-1,45
 1003 -253 1003 -253 1045.5 -267.5 c 128,-1,46
 1088 -282 1088 -282 1140.5 -285 c 128,-1,47
 1193 -288 1193 -288 1268 -284 c 1,48,-1
 1235 -418 l 1,49,50
 1200 -427 1200 -427 1163 -433.5 c 128,-1,51
 1126 -440 1126 -440 1083.5 -444 c 128,-1,52
 1041 -448 1041 -448 987 -448 c 0,53,54
 877 -448 877 -448 802 -424.5 c 128,-1,55
 727 -401 727 -401 668 -350.5 c 128,-1,56
 609 -300 609 -300 547 -218 c 2,20,-1
EndSplineSet
EndChar

StartChar: R
Encoding: 82 82 53
Width: 1501
GlyphClass: 2
Flags: HMW
AnchorPoint: "Anchor-4" 731 0 basechar 0
LayerCount: 2
Fore
SplineSet
467 139 m 1,0,-1
 616 89 l 1,1,-1
 591 6 l 1,2,-1
 -49 6 l 1,3,-1
 -24 89 l 1,4,-1
 141 142 l 1,5,-1
 466 1256 l 1,6,-1
 317 1307 l 1,7,-1
 343 1396 l 1,8,-1
 663 1396 l 1,9,-1
 834 1396 l 1,10,-1
 1081 1396 l 2,11,12
 1227 1396 1227 1396 1315.5 1359 c 128,-1,13
 1404 1322 1404 1322 1443.5 1256.5 c 128,-1,14
 1483 1191 1483 1191 1483 1104 c 0,15,16
 1483 986 1483 986 1433.5 895 c 128,-1,17
 1384 804 1384 804 1282 749 c 0,18,19
 1192 700 1192 700 1057 687 c 1,20,21
 1114 678 1114 678 1148 654 c 0,22,23
 1191 625 1191 625 1212.5 570 c 128,-1,24
 1234 515 1234 515 1243 429 c 1,25,-1
 1264 263 l 2,26,27
 1272 198 1272 198 1285 167.5 c 128,-1,28
 1298 137 1298 137 1322.5 128 c 128,-1,29
 1347 119 1347 119 1388 119 c 1,30,-1
 1359 6 l 1,31,32
 1230 -3 1230 -3 1152 1.5 c 128,-1,33
 1074 6 1074 6 1033 30.5 c 1,34,35
 992 49 992 49 975 96 c 128,-1,36
 958 143 958 143 951 218 c 1,37,-1
 927 419 l 1,38,39
 920 498 920 498 907.5 538.5 c 128,-1,40
 895 579 895 579 866.5 593 c 128,-1,41
 838 607 838 607 781 607 c 2,42,-1
 604 607 l 1,43,-1
 467 139 l 1,0,-1
883 767 m 2,44,45
 982 767 982 767 1042.5 812 c 128,-1,46
 1103 857 1103 857 1131 929 c 128,-1,47
 1159 1001 1159 1001 1159 1082 c 0,48,49
 1159 1152 1159 1152 1120.5 1187.5 c 128,-1,50
 1082 1223 1082 1223 997 1223 c 2,51,-1
 783 1223 l 1,52,-1
 650 767 l 1,53,-1
 883 767 l 2,44,45
EndSplineSet
EndChar

StartChar: S
Encoding: 83 83 54
Width: 1233
GlyphClass: 2
Flags: MW
AnchorPoint: "Anchor-4" 552 0 basechar 0
LayerCount: 2
Fore
SplineSet
1276 1333 m 1,1,-1
 1215 963 l 1,2,-1
 1081 963 l 1,3,-1
 1045 1206 l 1,4,5
 1017 1220 1017 1220 982 1230 c 0,6,7
 912 1249 912 1249 837 1249 c 0,8,9
 730 1249 730 1249 666.5 1226 c 128,-1,10
 603 1203 603 1203 576 1161.5 c 128,-1,11
 549 1120 549 1120 549 1061 c 0,12,13
 549 1004 549 1004 583 969.5 c 128,-1,14
 617 935 617 935 677.5 909 c 128,-1,15
 738 883 738 883 818 852 c 0,16,17
 899 821 899 821 967.5 779 c 128,-1,18
 1036 737 1036 737 1078.5 670.5 c 128,-1,19
 1121 604 1121 604 1121 498 c 0,20,21
 1121 337 1121 337 1043.5 219.5 c 128,-1,22
 966 102 966 102 815 38.5 c 128,-1,23
 664 -25 664 -25 443 -25 c 0,24,25
 328 -25 328 -25 238 -9 c 128,-1,26
 148 7 148 7 77 32 c 1,27,-1
 80 459 l 1,28,-1
 207 459 l 1,29,-1
 300 169 l 1,30,31
 305 168 305 168 310 167 c 0,32,33
 382 151 382 151 465 151 c 0,34,35
 588 151 588 151 667 180 c 128,-1,36
 746 209 746 209 785.5 262.5 c 128,-1,37
 825 316 825 316 825 390 c 0,38,39
 825 442 825 442 799.5 476 c 128,-1,40
 774 510 774 510 731 534.5 c 128,-1,41
 688 559 688 559 633.5 580.5 c 128,-1,42
 579 602 579 602 519 627 c 0,43,44
 439 661 439 661 381.5 701.5 c 128,-1,45
 324 742 324 742 293 801.5 c 128,-1,46
 262 861 262 861 262 952 c 0,47,48
 262 1097 262 1097 331 1202 c 128,-1,49
 400 1307 400 1307 533.5 1364 c 128,-1,50
 667 1421 667 1421 859 1421 c 0,51,52
 997.056603774 1421 997.056603774 1421 1276 1333 c 1,1,-1
EndSplineSet
EndChar

StartChar: T
Encoding: 84 84 55
Width: 1449
GlyphClass: 2
Flags: MW
AnchorPoint: "Anchor-4" 593 0 basechar 0
LayerCount: 2
Fore
SplineSet
1601 1395.90039062 m 1,0,-1
 1536 954 l 1,1,-1
 1407 912 l 1,2,-1
 1367 1218 l 1,3,-1
 1101 1218 l 1,4,-1
 786 139 l 1,5,-1
 932 89 l 1,6,-1
 907 0 l 1,7,-1
 267 0 l 1,8,-1
 293 89 l 1,9,-1
 459 142 l 1,10,-1
 773 1218 l 1,11,-1
 527 1218 l 1,12,-1
 304 910 l 1,13,-1
 182 952 l 1,14,-1
 350 1395.90039062 l 1,15,-1
 1601 1395.90039062 l 1,0,-1
EndSplineSet
EndChar

StartChar: U
Encoding: 85 85 56
Width: 1559
GlyphClass: 2
Flags: MW
AnchorPoint: "Anchor-4" 662 0 basechar 0
AnchorPoint: "Anchor-3" 850 0 basechar 0
AnchorPoint: "Anchor-2" 1578 1396 basechar 0
LayerCount: 2
Fore
SplineSet
542 539 m 2,0,1
 509 425 509 425 528 351.5 c 128,-1,2
 547 278 547 278 614 243 c 128,-1,3
 681 208 681 208 791 208 c 0,4,5
 896 208 896 208 971.5 239.5 c 128,-1,6
 1047 271 1047 271 1099.5 343 c 128,-1,7
 1152 415 1152 415 1188 537 c 2,8,-1
 1396 1255 l 1,9,-1
 1239 1307 l 1,10,11
 1240 1307 1240 1307 1264 1396 c 1,12,-1
 1758 1396 l 1,13,-1
 1735 1307 l 1,14,-1
 1568 1256 l 1,15,-1
 1351 509 l 2,16,17
 1296 320 1296 320 1211.5 202 c 128,-1,18
 1127 84 1127 84 1002 29.5 c 128,-1,19
 877 -25 877 -25 701 -25 c 0,20,21
 499 -25 499 -25 371.5 41 c 128,-1,22
 244 107 244 107 204.5 239 c 128,-1,23
 165 371 165 371 223 569 c 2,24,-1
 425 1256 l 1,25,-1
 276 1307 l 1,26,-1
 301 1396 l 1,27,-1
 940 1396 l 1,28,-1
 916 1307 l 1,29,-1
 751 1253 l 1,30,-1
 542 539 l 2,0,1
EndSplineSet
EndChar

StartChar: V
Encoding: 86 86 57
Width: 1506
GlyphClass: 2
Flags: HMW
AnchorPoint: "Anchor-4" 659 0 basechar 0
LayerCount: 2
Fore
SplineSet
368 1254 m 1,0,-1
 218 1307 l 1,1,-1
 245 1396 l 1,2,-1
 888 1396 l 1,3,-1
 862 1307 l 1,4,-1
 694 1256 l 1,5,-1
 754 204 l 1,6,-1
 1368 1257 l 1,7,-1
 1223 1307 l 1,8,-1
 1248 1396 l 1,9,-1
 1743 1396 l 1,10,-1
 1717 1307 l 1,11,-1
 1568 1257 l 1,12,-1
 805 0 l 1,13,-1
 462 0 l 1,14,-1
 368 1254 l 1,0,-1
EndSplineSet
EndChar

StartChar: W
Encoding: 87 87 58
Width: 2101
GlyphClass: 2
Flags: HMW
AnchorPoint: "Anchor-4" 967 0 basechar 0
LayerCount: 2
Fore
SplineSet
1971 1256 m 1,0,-1
 1825 1307 l 1,1,-1
 1852 1396 l 1,2,-1
 2337 1396 l 1,3,-1
 2310 1307 l 1,4,-1
 2162 1256 l 1,5,-1
 1541 0 l 1,6,-1
 1170 0 l 1,7,-1
 1209 1034 l 1,8,-1
 658 0 l 1,9,-1
 294 0 l 1,10,-1
 380 1249 l 1,11,-1
 231 1306 l 1,12,-1
 257 1396 l 1,13,-1
 897 1396 l 1,14,-1
 870 1306 l 1,15,-1
 710 1251 l 1,16,-1
 630 279 l 1,17,-1
 1208 1398 l 1,18,-1
 1564 1398 l 1,19,-1
 1512 283 l 1,20,-1
 1971 1256 l 1,0,-1
EndSplineSet
EndChar

StartChar: X
Encoding: 88 88 59
Width: 1561
GlyphClass: 2
Flags: MW
AnchorPoint: "Anchor-4" 632 0 basechar 0
LayerCount: 2
Fore
SplineSet
1025 747 m 1,0,-1
 1305 154 l 1,1,-1
 1448 89 l 1,2,-1
 1420 0 l 1,3,-1
 746 0 l 1,4,-1
 772 89 l 1,5,-1
 937 145 l 1,6,-1
 730 582 l 1,7,-1
 286 142 l 1,8,-1
 419 89 l 1,9,-1
 393 0 l 1,10,-1
 -111 0 l 2,11,12
 -112 0 -112 0 -86 89 c 1,13,-1
 71 144 l 1,14,-1
 666 718 l 1,15,-1
 414 1249 l 1,16,-1
 274 1307 l 1,17,-1
 299 1396 l 1,18,-1
 962 1396 l 1,19,-1
 937 1306 l 1,20,-1
 784 1256 l 1,21,-1
 959 883 l 1,22,-1
 1331 1254 l 1,23,-1
 1198 1307 l 1,24,-1
 1224 1396 l 1,25,-1
 1726 1396 l 1,26,-1
 1700 1307 l 1,27,-1
 1544 1252 l 1,28,-1
 1025 747 l 1,0,-1
EndSplineSet
EndChar

StartChar: Y
Encoding: 89 89 60
Width: 1481
GlyphClass: 2
Flags: MW
AnchorPoint: "Anchor-4" 622 0 basechar 0
LayerCount: 2
Fore
SplineSet
1327 1253 m 1,0,-1
 1185 1307 l 1,1,-1
 1210 1396 l 1,2,-1
 1711 1396 l 1,3,-1
 1684 1307 l 1,4,-1
 1538 1257 l 1,5,-1
 948 596 l 1,6,-1
 814 139 l 1,7,-1
 962 89 l 1,8,-1
 938 0 l 1,9,-1
 297 0 l 1,10,-1
 323 89 l 1,11,-1
 487 142 l 1,12,-1
 619 591 l 1,13,-1
 376 1247 l 1,14,-1
 228 1307 l 1,15,-1
 254 1396 l 1,16,-1
 882 1396 l 1,17,-1
 856 1307 l 1,18,-1
 698 1249 l 1,19,-1
 877 731 l 1,20,-1
 1327 1253 l 1,0,-1
EndSplineSet
EndChar

StartChar: Z
Encoding: 90 90 61
Width: 1325
GlyphClass: 2
Flags: MW
AnchorPoint: "Anchor-4" 531 0 basechar 0
LayerCount: 2
Fore
SplineSet
1448 1396 m 1,0,-1
 1404 1245 l 1,1,-1
 433 172 l 1,2,-1
 896 172 l 1,3,-1
 1121 458 l 1,4,-1
 1245 455 l 1,5,-1
 1057 0 l 1,6,-1
 -13 0 l 1,7,-1
 29 151 l 1,8,-1
 998 1223 l 1,9,-1
 542 1223 l 1,10,-1
 356 957 l 1,11,-1
 229 964 l 1,12,-1
 374 1395.90039062 l 1,13,-1
 1448 1396 l 1,0,-1
EndSplineSet
EndChar

StartChar: bracketleft
Encoding: 91 91 62
Width: 730
GlyphClass: 1
Flags: MW
LayerCount: 2
Fore
SplineSet
-25 -228 m 1,0,-1
 462 1448 l 1,1,-1
 957 1448 l 1,2,-1
 913 1297 l 1,3,-1
 649 1297 l 1,4,-1
 250 -76 l 1,5,-1
 514 -76 l 1,6,-1
 470 -228 l 1,7,-1
 -25 -228 l 1,0,-1
EndSplineSet
Substitution2: "'case' Case-Sensitive Forms in Latin lookup 9 subtable" bracketleft.case
EndChar

StartChar: backslash
Encoding: 92 92 63
Width: 817
GlyphClass: 1
Flags: MW
LayerCount: 2
Fore
SplineSet
624 0 m 1,0,-1
 445 0 l 1,1,-1
 308 1396 l 1,2,-1
 487 1396 l 1,3,-1
 624 0 l 1,0,-1
EndSplineSet
EndChar

StartChar: bracketright
Encoding: 93 93 64
Width: 730
GlyphClass: 1
Flags: MW
LayerCount: 2
Fore
SplineSet
821 1448 m 1,0,-1
 334 -227 l 1,1,-1
 -161 -227 l 1,2,-1
 -117 -76 l 1,3,-1
 147 -76 l 1,4,-1
 546 1297 l 1,5,-1
 282 1297 l 1,6,-1
 326 1448 l 1,7,-1
 821 1448 l 1,0,-1
EndSplineSet
Substitution2: "'case' Case-Sensitive Forms in Latin lookup 9 subtable" bracketright.case
EndChar

StartChar: asciicircum
Encoding: 94 94 65
Width: 1092
GlyphClass: 1
Flags: MW
LayerCount: 2
Fore
SplineSet
762 1173 m 1,0,-1
 375 634 l 2,1,2
 374 634 374 634 180 634 c 1,3,-1
 730 1396 l 1,4,-1
 890 1396 l 1,5,-1
 998 634 l 1,6,-1
 835 634 l 1,7,-1
 762 1173 l 1,0,-1
EndSplineSet
EndChar

StartChar: a
Encoding: 97 97 68
Width: 1311
GlyphClass: 2
Flags: MW
AnchorPoint: "Anchor-4" 490 0 basechar 0
AnchorPoint: "Anchor-3" 1134 0 basechar 0
AnchorPoint: "Anchor-0" 843 1071 basechar 0
LayerCount: 2
Fore
SplineSet
705 123 m 2,0,-1
 827 483 l 1,1,-1
 812 483 l 1,2,3
 721 322 721 322 649 221 c 128,-1,4
 577 120 577 120 516 66 c 128,-1,5
 455 12 455 12 401 -7.5 c 128,-1,6
 347 -27 347 -27 290 -27 c 0,7,8
 219 -27 219 -27 160 4 c 128,-1,9
 101 35 101 35 65 96.5 c 128,-1,10
 29 158 29 158 29 252 c 0,11,12
 29 360 29 360 64.5 477 c 128,-1,13
 100 594 100 594 162 704 c 128,-1,14
 224 814 224 814 307 902.5 c 128,-1,15
 390 991 390 991 485.5 1043.5 c 128,-1,16
 581 1096 581 1096 682 1096 c 0,17,18
 780 1096 780 1096 842 1036 c 0,19,20
 887 991 887 991 917 913 c 1,21,-1
 1036 1071 l 1,22,-1
 1258 1071 l 1,23,-1
 979 188 l 1,24,25
 992 190 992 190 1004 192 c 0,26,27
 1062 202 1062 202 1121.5 230.5 c 128,-1,28
 1181 259 1181 259 1247 312 c 1,29,-1
 1295 235 l 1,30,31
 1147 84 1147 84 1029 28.5 c 128,-1,32
 911 -27 911 -27 819 -27 c 0,33,34
 731 -27 731 -27 703.5 7 c 128,-1,35
 676 41 676 41 705 123 c 2,0,-1
887 841 m 1,36,37
 868 874 868 874 844 891 c 0,38,39
 806 920 806 920 754 920 c 0,40,41
 693 920 693 920 633.5 876.5 c 128,-1,42
 574 833 574 833 520 761 c 128,-1,43
 466 689 466 689 424.5 604 c 128,-1,44
 383 519 383 519 358.5 436.5 c 128,-1,45
 334 354 334 354 334 291 c 0,46,47
 334 238 334 238 360 212.5 c 128,-1,48
 386 187 386 187 432 187 c 0,49,50
 475 187 475 187 531.5 232.5 c 128,-1,51
 588 278 588 278 646 354 c 128,-1,52
 704 430 704 430 755 523 c 128,-1,53
 806 616 806 616 840 710 c 2,54,-1
 887 841 l 1,36,37
EndSplineSet
Substitution2: "Single Substitution lookup 3 subtable" ordfeminine
EndChar

StartChar: b
Encoding: 98 98 69
Width: 1182
GlyphClass: 2
Flags: MW
AnchorPoint: "Anchor-4" 396 0 basechar 0
LayerCount: 2
Fore
SplineSet
350 1297 m 1,0,1
 331 1312 331 1312 299 1333 c 128,-1,2
 267 1354 267 1354 233 1377 c 128,-1,3
 199 1400 199 1400 170 1416 c 1,4,-1
 190 1502 l 1,5,-1
 693 1591 l 1,6,-1
 741 1591 l 1,7,-1
 433 717 l 1,8,-1
 453 721 l 1,9,10
 536 864 536 864 610 946 c 128,-1,11
 684 1028 684 1028 754 1063 c 128,-1,12
 824 1098 824 1098 890 1098 c 0,13,14
 1011 1098 1011 1098 1078 1012.5 c 128,-1,15
 1145 927 1145 927 1145 793 c 0,16,17
 1145 673 1145 673 1109 555 c 128,-1,18
 1073 437 1073 437 1007.5 332.5 c 128,-1,19
 942 228 942 228 856 146.5 c 128,-1,20
 770 65 770 65 668 19 c 128,-1,21
 566 -27 566 -27 457 -27 c 0,22,23
 284 -27 284 -27 189 60 c 128,-1,24
 94 147 94 147 94 289 c 0,25,26
 94 320 94 320 99 355 c 128,-1,27
 104 390 104 390 113 426 c 2,28,-1
 350 1297 l 1,0,1
385 374 m 2,29,30
 375 339 375 339 369.5 309.5 c 128,-1,31
 364 280 364 280 364 255 c 0,32,33
 364 193 364 193 396 159 c 128,-1,34
 428 125 428 125 486 125 c 0,35,36
 535 125 535 125 585 159.5 c 128,-1,37
 635 194 635 194 679.5 254.5 c 128,-1,38
 724 315 724 315 758.5 392.5 c 128,-1,39
 793 470 793 470 813.5 556 c 128,-1,40
 834 642 834 642 834 727 c 0,41,42
 834 797 834 797 809.5 831.5 c 128,-1,43
 785 866 785 866 736 866 c 0,44,45
 702 866 702 866 664.5 845.5 c 128,-1,46
 627 825 627 825 590.5 789 c 128,-1,47
 554 753 554 753 519.5 702 c 128,-1,48
 485 651 485 651 457 590.5 c 128,-1,49
 429 530 429 530 410 462 c 2,50,-1
 385 374 l 2,29,30
EndSplineSet
EndChar

StartChar: c
Encoding: 99 99 70
Width: 1022
GlyphClass: 2
Flags: MW
AnchorPoint: "Anchor-4" 428 0 basechar 0
AnchorPoint: "Anchor-3" 772 0 basechar 0
AnchorPoint: "Anchor-0" 679 1071 basechar 0
LayerCount: 2
Fore
SplineSet
663 959 m 0,0,1
 597 959 597 959 543 919 c 128,-1,2
 489 879 489 879 449.5 808 c 128,-1,3
 410 737 410 737 388 641.5 c 128,-1,4
 366 546 366 546 366 436 c 0,5,6
 366 301 366 301 410 248 c 128,-1,7
 454 195 454 195 553 195 c 0,8,9
 613 195 613 195 663.5 216 c 128,-1,10
 714 237 714 237 759 282 c 128,-1,11
 804 327 804 327 845 402 c 1,12,-1
 936 402 l 1,13,14
 881 249 881 249 811 154 c 128,-1,15
 741 59 741 59 650.5 16 c 128,-1,16
 560 -27 560 -27 446 -27 c 0,17,18
 254 -27 254 -27 160 72 c 128,-1,19
 66 171 66 171 66 375 c 0,20,21
 66 526 66 526 113.5 657 c 128,-1,22
 161 788 161 788 247 887.5 c 128,-1,23
 333 987 333 987 453 1042.5 c 128,-1,24
 573 1098 573 1098 717 1098 c 0,25,26
 877 1098 877 1098 950.5 1040.5 c 128,-1,27
 1024 983 1024 983 1024 897 c 0,28,29
 1024 827 1024 827 979 783.5 c 128,-1,30
 934 740 934 740 873 740 c 0,31,32
 856 740 856 740 834.5 772 c 128,-1,33
 813 804 813 804 783 851 c 0,34,35
 754 900 754 900 724 929.5 c 128,-1,36
 694 959 694 959 663 959 c 0,0,1
EndSplineSet
EndChar

StartChar: d
Encoding: 100 100 71
Width: 1313
GlyphClass: 2
Flags: MW
AnchorPoint: "Anchor-4" 511 0 basechar 0
AnchorPoint: "Anchor-3" 1409 1564 basechar 0
AnchorPoint: "Anchor-1" 1150 1268 basechar 0
LayerCount: 2
Fore
SplineSet
1005 332.900390625 m 2,0,1
 965.04484113 209.996797062 965.04484113 209.996797062 1035 205 c 0,2,3
 1129 199 1129 199 1242 242 c 1,4,-1
 1205 41 l 1,5,6
 1057 -5 1057 -5 822 -19 c 0,7,8
 734 -24 734 -24 705 7 c 0,9,10
 676 39 676 39 704 122 c 2,11,-1
 768 311 l 1,12,-1
 768 311 l 1,13,14
 709 235 709 235 709 235 c 0,15,16
 638 134 638 134 577 80 c 0,17,18
 527 35 527 35 462 6.5 c 0,19,20
 383 -27 383 -27 290 -27 c 0,21,22
 220 -27 220 -27 160.5 4 c 128,-1,23
 101 35 101 35 65 96.5 c 128,-1,24
 29 158 29 158 29 252 c 0,25,26
 29 361 29 361 64.5 478 c 128,-1,27
 100 595 100 595 162 705 c 128,-1,28
 224 815 224 815 307 904 c 128,-1,29
 390 993 390 993 485 1045 c 128,-1,30
 580 1097 580 1097 682 1097 c 0,31,32
 780 1097 780 1097 841 1037 c 0,33,34
 883 995 883 995 912 924 c 1,35,-1
 1024 1294 l 1,36,37
 1006 1309 1006 1309 975 1331.5 c 128,-1,38
 944 1354 944 1354 909.5 1377 c 128,-1,39
 875 1400 875 1400 847 1417 c 1,40,-1
 868 1503 l 1,41,-1
 1366 1591 l 1,42,-1
 1414 1591 l 1,43,-1
 1005 332.900390625 l 2,0,1
887 841 m 1,44,45
 867 875 867 875 844 892 c 0,46,47
 805 921 805 921 753 921 c 0,48,49
 692 921 692 921 632.5 877.5 c 128,-1,50
 573 834 573 834 519 761.5 c 128,-1,51
 465 689 465 689 423.5 605 c 128,-1,52
 382 521 382 521 358 437.5 c 128,-1,53
 334 354 334 354 334 291 c 0,54,55
 334 238 334 238 360 212.5 c 128,-1,56
 386 187 386 187 431 187 c 0,57,58
 467 187 467 187 513.5 217.5 c 128,-1,59
 560 248 560 248 609.5 303.5 c 128,-1,60
 659 359 659 359 707 431 c 128,-1,61
 755 503 755 503 795.5 586 c 128,-1,62
 836 669 836 669 861 755 c 2,63,-1
 887 841 l 1,44,45
EndSplineSet
EndChar

StartChar: e
Encoding: 101 101 72
Width: 1059
GlyphClass: 2
Flags: MW
AnchorPoint: "Anchor-4" 422 0 basechar 0
AnchorPoint: "Anchor-3" 822 0 basechar 0
AnchorPoint: "Anchor-0" 673 1071 basechar 0
LayerCount: 2
Fore
SplineSet
676 958 m 0,0,1
 628 958 628 958 581.5 935 c 128,-1,2
 535 912 535 912 496 867 c 128,-1,3
 457 822 457 822 427.5 758 c 128,-1,4
 398 694 398 694 382 613 c 0,5,6
 380 604 380 604 378 595 c 1,7,8
 462 616 462 616 524 633 c 0,9,10
 614 658 614 658 666 680.5 c 128,-1,11
 718 703 718 703 743.5 727 c 128,-1,12
 769 751 769 751 776 779.5 c 128,-1,13
 783 808 783 808 783 845 c 0,14,15
 783 881 783 881 771 906 c 128,-1,16
 759 931 759 931 735.5 944.5 c 128,-1,17
 712 958 712 958 676 958 c 0,0,1
366 481 m 1,18,19
 365 459 365 459 365 436 c 0,20,21
 365 301 365 301 408.5 248 c 128,-1,22
 452 195 452 195 554 195 c 0,23,24
 614 195 614 195 666.5 213.5 c 128,-1,25
 719 232 719 232 766 274 c 128,-1,26
 813 316 813 316 856 387 c 1,27,-1
 949 387 l 1,28,29
 884 231 884 231 807 140.5 c 128,-1,30
 730 50 730 50 638.5 11.5 c 128,-1,31
 547 -27 547 -27 439 -27 c 0,32,33
 315 -27 315 -27 231.5 17.5 c 128,-1,34
 148 62 148 62 106 147.5 c 128,-1,35
 64 233 64 233 64 355 c 0,36,37
 64 478 64 478 93.5 589.5 c 128,-1,38
 123 701 123 701 179.5 794 c 128,-1,39
 236 887 236 887 316 955.5 c 128,-1,40
 396 1024 396 1024 497 1061 c 128,-1,41
 598 1098 598 1098 718 1098 c 0,42,43
 833 1098 833 1098 903 1063.5 c 128,-1,44
 973 1029 973 1029 1005 971 c 128,-1,45
 1037 913 1037 913 1037 841 c 0,46,47
 1037 786 1037 786 1021.5 728 c 128,-1,48
 1006 670 1006 670 977 616 c 1,49,50
 893 591 893 591 806.5 568.5 c 128,-1,51
 720 546 720 546 632.5 528.5 c 128,-1,52
 545 511 545 511 460 496 c 0,53,54
 412 488 412 488 366 481 c 1,18,19
EndSplineSet
EndChar

StartChar: f
Encoding: 102 102 73
Width: 843
GlyphClass: 2
Flags: MW
AnchorPoint: "Anchor-4" 71 -492 basechar 0
LayerCount: 2
Fore
SplineSet
543 336 m 2,0,1
 497 105 497 105 431.5 -58 c 128,-1,2
 366 -221 366 -221 284 -323.5 c 128,-1,3
 202 -426 202 -426 106.5 -472.5 c 128,-1,4
 11 -519 11 -519 -95 -519 c 0,5,6
 -224 -519 -224 -519 -279 -468 c 128,-1,7
 -334 -417 -334 -417 -334 -325 c 0,8,9
 -334 -250 -334 -250 -287 -210.5 c 128,-1,10
 -240 -171 -240 -171 -142 -171 c 1,11,12
 -135 -225 -135 -225 -125.5 -262 c 128,-1,13
 -116 -299 -116 -299 -97 -326 c 128,-1,14
 -78 -353 -78 -353 -57 -362.5 c 128,-1,15
 -36 -372 -36 -372 -9 -372 c 0,16,17
 27 -372 27 -372 57.5 -356.5 c 128,-1,18
 88 -341 88 -341 114 -306 c 128,-1,19
 140 -271 140 -271 160 -211.5 c 128,-1,20
 180 -152 180 -152 196 -65 c 2,21,-1
 364 922 l 1,22,-1
 124 922 l 1,23,-1
 128 1071 l 1,24,-1
 391 1071 l 1,25,26
 424 1222 424 1222 498 1332 c 0,27,28
 585 1459 585 1459 714 1525 c 128,-1,29
 843 1591 843 1591 1000 1591 c 0,30,31
 1108 1591 1108 1591 1174 1568 c 128,-1,32
 1240 1545 1240 1545 1270 1504.5 c 128,-1,33
 1300 1464 1300 1464 1300 1410 c 0,34,35
 1300 1339 1300 1339 1255 1301 c 128,-1,36
 1210 1263 1210 1263 1106 1263 c 1,37,38
 1099 1308 1099 1308 1087 1342 c 0,39,40
 1074 1377 1074 1377 1054 1400 c 0,41,42
 1035 1424 1035 1424 1008.5 1433.5 c 128,-1,43
 982 1443 982 1443 945 1443 c 0,44,45
 880 1443 880 1443 834 1416 c 128,-1,46
 788 1389 788 1389 757 1328.5 c 128,-1,47
 726 1268 726 1268 706 1166 c 2,48,-1
 687 1071 l 1,49,-1
 945 1071 l 1,50,-1
 941 922 l 1,51,-1
 658 922 l 1,52,-1
 543 336 l 2,0,1
EndSplineSet
EndChar

StartChar: g
Encoding: 103 103 74
Width: 1117
GlyphClass: 2
Flags: MW
AnchorPoint: "Anchor-4" 365 -495 basechar 0
AnchorPoint: "Anchor-0" 630 1071 basechar 0
LayerCount: 2
Fore
SplineSet
327 -519 m 0,0,1
 191 -519 191 -519 99.5 -501.5 c 128,-1,2
 8 -484 8 -484 -46 -451.5 c 128,-1,3
 -100 -419 -100 -419 -122.5 -375.5 c 128,-1,4
 -145 -332 -145 -332 -145 -280 c 0,5,6
 -145 -216 -145 -216 -112 -170.5 c 128,-1,7
 -79 -125 -79 -125 2 -92 c 0,8,9
 68 -66 68 -66 177 -48 c 1,10,11
 164 -43 164 -43 152 -37 c 0,12,13
 85 -3 85 -3 61 42 c 128,-1,14
 37 87 37 87 37 143 c 0,15,16
 37 225 37 225 85 275.5 c 128,-1,17
 133 326 133 326 220 351 c 0,18,19
 250 359 250 359 283 366 c 1,20,21
 277 368 277 368 270 372 c 0,22,23
 192 410 192 410 156.5 476.5 c 128,-1,24
 121 543 121 543 120 623 c 0,25,26
 120 717 120 717 155 802 c 128,-1,27
 190 887 190 887 256.5 954 c 128,-1,28
 323 1021 323 1021 417.5 1059.5 c 128,-1,29
 512 1098 512 1098 631 1098 c 0,30,31
 724 1098 724 1098 791 1077 c 1,32,33
 886 1075 886 1075 968 1079 c 0,34,35
 1065 1084 1065 1084 1135 1091 c 128,-1,36
 1205 1098 1205 1098 1236 1098 c 0,37,38
 1248 1098 1248 1098 1256.5 1092 c 128,-1,39
 1265 1086 1265 1086 1265 1072 c 0,40,41
 1265 1050 1265 1050 1253 1019 c 128,-1,42
 1241 988 1241 988 1221.5 957 c 128,-1,43
 1202 926 1202 926 1180 904 c 128,-1,44
 1158 882 1158 882 1139 882 c 0,45,46
 1129 882 1129 882 1108 892 c 128,-1,47
 1087 902 1087 902 1055.5 916 c 128,-1,48
 1024 930 1024 930 980 945 c 0,49,50
 965 950 965 950 948 955 c 1,51,52
 948 955 948 955 948 955 c 1,53,54
 984 889 984 889 984 808 c 0,55,56
 985 715 985 715 950 629.5 c 128,-1,57
 915 544 915 544 848 477 c 128,-1,58
 781 410 781 410 686.5 371.5 c 128,-1,59
 592 333 592 333 474 333 c 0,60,61
 406 333 406 333 352 344 c 1,62,63
 301 339 301 339 278 324 c 0,64,65
 241 302 241 302 241 266 c 0,66,67
 241 247 241 247 252 233 c 128,-1,68
 263 219 263 219 294 207 c 128,-1,69
 325 195 325 195 384.5 184.5 c 128,-1,70
 444 174 444 174 541 160 c 0,71,72
 699 137 699 137 788.5 96 c 128,-1,73
 878 55 878 55 914.5 -3.5 c 128,-1,74
 951 -62 951 -62 951 -139 c 0,75,76
 951 -221 951 -221 916.5 -291 c 128,-1,77
 882 -361 882 -361 807 -412 c 128,-1,78
 732 -463 732 -463 613.5 -491 c 128,-1,79
 495 -519 495 -519 327 -519 c 0,0,1
488 469 m 0,80,81
 530 469 530 469 567 491.5 c 128,-1,82
 604 514 604 514 632 552 c 128,-1,83
 660 590 660 590 679.5 637.5 c 128,-1,84
 699 685 699 685 709.5 735 c 128,-1,85
 720 785 720 785 719 831 c 0,86,87
 719 902 719 902 694.5 932 c 128,-1,88
 670 962 670 962 618 962 c 0,89,90
 575 962 575 962 538 939.5 c 128,-1,91
 501 917 501 917 473 879 c 128,-1,92
 445 841 445 841 425.5 794 c 128,-1,93
 406 747 406 747 396 697 c 128,-1,94
 386 647 386 647 386 600 c 0,95,96
 386 529 386 529 410.5 498.5 c 128,-1,97
 435 468 435 468 488 469 c 0,80,81
242 -69 m 1,98,99
 226 -73 226 -73 212 -77 c 0,100,101
 167 -91 167 -91 139.5 -112.5 c 128,-1,102
 112 -134 112 -134 100 -162.5 c 128,-1,103
 88 -191 88 -191 88 -227 c 0,104,105
 88 -276 88 -276 118.5 -313 c 128,-1,106
 149 -350 149 -350 218.5 -370.5 c 128,-1,107
 288 -391 288 -391 405 -391 c 0,108,109
 499 -391 499 -391 562 -371 c 128,-1,110
 625 -351 625 -351 657 -317 c 128,-1,111
 689 -283 689 -283 689 -240 c 0,112,113
 689 -212 689 -212 676 -191 c 128,-1,114
 663 -170 663 -170 627.5 -153 c 128,-1,115
 592 -136 592 -136 524.5 -121.5 c 128,-1,116
 457 -107 457 -107 350 -90 c 0,117,118
 289 -81 289 -81 242 -69 c 1,98,99
EndSplineSet
EndChar

StartChar: h
Encoding: 104 104 75
Width: 1309
GlyphClass: 2
Flags: MW
AnchorPoint: "Anchor-4" 506 0 basechar 0
AnchorPoint: "Anchor-1" 529 1268 basechar 0
LayerCount: 2
Fore
SplineSet
388 222 m 2,0,-1
 323 0 l 1,1,-1
 18 0 l 1,2,-1
 374 1298 l 1,3,4
 356 1311 356 1311 325 1332.5 c 128,-1,5
 294 1354 294 1354 259 1377 c 128,-1,6
 224 1400 224 1400 196 1417 c 1,7,-1
 216 1503 l 1,8,-1
 714 1591 l 1,9,-1
 762 1591 l 1,10,-1
 377 486 l 1,11,-1
 403 490 l 1,12,13
 476 665 476 665 545.5 782.5 c 128,-1,14
 615 900 615 900 682.5 969 c 128,-1,15
 750 1038 750 1038 821 1068 c 128,-1,16
 892 1098 892 1098 971 1098 c 0,17,18
 1086 1098 1086 1098 1139 1038 c 128,-1,19
 1192 978 1192 978 1192 889 c 0,20,21
 1192 844 1192 844 1179 780 c 128,-1,22
 1166 716 1166 716 1130 618 c 2,23,-1
 975 194 l 1,24,25
 978 194 978 194 981 194 c 0,26,27
 1034 204 1034 204 1095 232 c 128,-1,28
 1156 260 1156 260 1235 311 c 1,29,-1
 1282 231 l 1,30,31
 1178 131 1178 131 1088 74.5 c 128,-1,32
 998 18 998 18 919 -4.5 c 128,-1,33
 840 -27 840 -27 766 -27 c 0,34,35
 685 -27 685 -27 653.5 13.5 c 128,-1,36
 622 54 622 54 654 141 c 2,37,-1
 832 625 l 2,38,39
 857 694 857 694 865 728 c 128,-1,40
 873 762 873 762 873 785 c 0,41,42
 873 814 873 814 856.5 830.5 c 128,-1,43
 840 847 840 847 804 847 c 0,44,45
 752 847 752 847 697 806.5 c 128,-1,46
 642 766 642 766 588 687.5 c 128,-1,47
 534 609 534 609 483.5 491.5 c 128,-1,48
 433 374 433 374 388 222 c 2,0,-1
EndSplineSet
EndChar

StartChar: i
Encoding: 105 105 76
Width: 782
GlyphClass: 2
Flags: MW
AnchorPoint: "Anchor-4" 243 0 basechar 0
AnchorPoint: "Anchor-3" 457 0 basechar 0
AnchorPoint: "Anchor-0" 682 1514 basechar 0
LayerCount: 2
Fore
SplineSet
463 1405 m 0,0,1
 463 1459 463 1459 485.5 1500.5 c 128,-1,2
 508 1542 508 1542 556.5 1566 c 128,-1,3
 605 1590 605 1590 681 1590 c 0,4,5
 774 1590 774 1590 821 1552 c 128,-1,6
 868 1514 868 1514 868 1447 c 0,7,8
 868 1394 868 1394 845.5 1352.5 c 128,-1,9
 823 1311 823 1311 774.5 1287 c 128,-1,10
 726 1263 726 1263 649 1263 c 0,11,12
 556 1263 556 1263 509.5 1301 c 128,-1,13
 463 1339 463 1339 463 1405 c 0,0,1
434 194 m 1,14,15
 443 195 443 195 452 196 c 0,16,17
 511 206 511 206 569 233 c 128,-1,18
 627 260 627 260 690 308 c 1,19,-1
 738 227 l 1,20,21
 636 132 636 132 546 75.5 c 128,-1,22
 456 19 456 19 376.5 -4 c 128,-1,23
 297 -27 297 -27 226 -27 c 0,24,25
 132 -27 132 -27 105.5 18 c 128,-1,26
 79 63 79 63 123 185 c 2,27,-1
 371 878 l 1,28,29
 359 876 359 876 346 874 c 0,30,31
 289 862 289 862 227.5 829 c 128,-1,32
 166 796 166 796 92 737 c 1,33,-1
 39 816 l 1,34,35
 155 928 155 928 247 989.5 c 128,-1,36
 339 1051 339 1051 415.5 1074.5 c 128,-1,37
 492 1098 492 1098 558 1098 c 0,38,39
 668 1098 668 1098 695 1048 c 128,-1,40
 722 998 722 998 682 887 c 2,41,-1
 434 194 l 1,14,15
EndSplineSet
EndChar

StartChar: j
Encoding: 106 106 77
Width: 713
GlyphClass: 2
Flags: MW
AnchorPoint: "Anchor-4" -13 -492 basechar 0
AnchorPoint: "Anchor-0" 634 1514 basechar 0
LayerCount: 2
Fore
SplineSet
457 167 m 2,0,1
 391 -74 391 -74 292.5 -225.5 c 128,-1,2
 194 -377 194 -377 74 -448 c 128,-1,3
 -46 -519 -46 -519 -172 -519 c 0,4,5
 -291 -519 -291 -519 -340.5 -467 c 128,-1,6
 -390 -415 -390 -415 -390 -337 c 0,7,8
 -390 -272 -390 -272 -354 -228 c 128,-1,9
 -318 -184 -318 -184 -254 -184 c 0,10,11
 -245 -184 -245 -184 -224 -208.5 c 128,-1,12
 -203 -233 -203 -233 -176 -271 c 0,13,14
 -148 -307 -148 -307 -126 -330 c 128,-1,15
 -104 -353 -104 -353 -93 -353 c 0,16,17
 -65 -353 -65 -353 -40 -339.5 c 128,-1,18
 -15 -326 -15 -326 8.5 -291.5 c 128,-1,19
 32 -257 32 -257 56.5 -193.5 c 128,-1,20
 81 -130 81 -130 108 -30 c 2,21,-1
 351 878 l 1,22,23
 339 876 339 876 328 874 c 0,24,25
 274 862 274 862 215.5 829 c 128,-1,26
 157 796 157 796 83 737 c 1,27,-1
 29 816 l 1,28,29
 137 922 137 922 225.5 983.5 c 128,-1,30
 314 1045 314 1045 388 1071.5 c 128,-1,31
 462 1098 462 1098 528 1098 c 0,32,33
 601 1098 601 1098 634 1077 c 128,-1,34
 667 1056 667 1056 670 1009.5 c 128,-1,35
 673 963 673 963 651 887 c 2,36,-1
 457 167 l 2,0,1
433 1405 m 0,37,38
 433 1459 433 1459 456 1500.5 c 128,-1,39
 479 1542 479 1542 527.5 1566 c 128,-1,40
 576 1590 576 1590 652 1590 c 0,41,42
 745 1590 745 1590 792 1552 c 128,-1,43
 839 1514 839 1514 839 1447 c 0,44,45
 839 1394 839 1394 816 1352.5 c 128,-1,46
 793 1311 793 1311 744.5 1287 c 128,-1,47
 696 1263 696 1263 619 1263 c 0,48,49
 526 1263 526 1263 479.5 1301 c 128,-1,50
 433 1339 433 1339 433 1405 c 0,37,38
EndSplineSet
EndChar

StartChar: k
Encoding: 107 107 78
Width: 1274
GlyphClass: 2
Flags: MW
AnchorPoint: "Anchor-4" 531 0 basechar 0
LayerCount: 2
Fore
SplineSet
721 715 m 1,0,1
 772 574 772 574 808 480 c 0,2,3
 850 370 850 370 880.5 310.5 c 128,-1,4
 911 251 911 251 935 228.5 c 128,-1,5
 959 206 959 206 982 206 c 0,6,7
 1002 206 1002 206 1026 219.5 c 128,-1,8
 1050 233 1050 233 1081 262.5 c 128,-1,9
 1112 292 1112 292 1154 338 c 1,10,-1
 1208 270 l 1,11,12
 1131 164 1131 164 1060 98.5 c 128,-1,13
 989 33 989 33 926.5 3 c 128,-1,14
 864 -27 864 -27 810 -27 c 0,15,16
 768 -27 768 -27 731 -2 c 128,-1,17
 694 23 694 23 655.5 88.5 c 128,-1,18
 617 154 617 154 571 274 c 0,19,20
 528 385 528 385 474 556 c 1,21,-1
 321 0 l 1,22,-1
 17 0 l 1,23,-1
 376 1298 l 1,24,25
 358 1312 358 1312 326.5 1333 c 128,-1,26
 295 1354 295 1354 260.5 1377 c 128,-1,27
 226 1400 226 1400 198 1417 c 1,28,-1
 218 1503 l 1,29,-1
 712 1591 l 1,30,-1
 760 1591 l 1,31,-1
 497 638 l 1,32,33
 631 780 631 780 724 870 c 0,34,35
 820 962 820 962 887.5 1012 c 128,-1,36
 955 1062 955 1062 1008.5 1080 c 128,-1,37
 1062 1098 1062 1098 1115 1098 c 0,38,39
 1200 1098 1200 1098 1241.5 1050.5 c 128,-1,40
 1283 1003 1283 1003 1283 934 c 0,41,42
 1283 866 1283 866 1257 820 c 128,-1,43
 1231 774 1231 774 1191.5 751 c 128,-1,44
 1152 728 1152 728 1115 728 c 0,45,46
 1107 728 1107 728 1091 751.5 c 128,-1,47
 1075 775 1075 775 1056 806 c 0,48,49
 1036 835 1036 835 1017.5 854 c 128,-1,50
 999 873 999 873 979 873 c 0,51,52
 956 873 956 873 928 861.5 c 128,-1,53
 900 850 900 850 857 821 c 128,-1,54
 814 792 814 792 750 739 c 0,55,56
 736 728 736 728 721 715 c 1,0,1
EndSplineSet
EndChar

StartChar: l
Encoding: 108 108 79
Width: 719
GlyphClass: 2
Flags: MW
AnchorPoint: "Anchor-4" 207 0 basechar 0
AnchorPoint: "Anchor-3" 770 1564 basechar 0
LayerCount: 2
Fore
SplineSet
389 1298 m 1,0,1
 371 1312 371 1312 339.5 1333 c 128,-1,2
 308 1354 308 1354 273 1377 c 128,-1,3
 238 1400 238 1400 210 1417 c 1,4,-1
 230 1503 l 1,5,-1
 727 1591 l 1,6,-1
 774 1591 l 1,7,8
 773 1591 773 1591 375 198 c 1,9,10
 388 199 388 199 401 201 c 0,11,12
 462 210 462 210 522 237.5 c 128,-1,13
 582 265 582 265 646 311 c 1,14,-1
 694 231 l 1,15,16
 588 131 588 131 497.5 74 c 128,-1,17
 407 17 407 17 329 -5 c 128,-1,18
 251 -27 251 -27 178 -27 c 0,19,20
 94 -27 94 -27 65.5 20.5 c 128,-1,21
 37 68 37 68 70 183 c 2,22,-1
 389 1298 l 1,0,1
EndSplineSet
EndChar

StartChar: m
Encoding: 109 109 80
Width: 1963
GlyphClass: 2
Flags: MW
AnchorPoint: "Anchor-4" 864 0 basechar 0
AnchorPoint: "Anchor-0" 1160 1071 basechar 0
LayerCount: 2
Fore
SplineSet
1627 193 m 1,0,1
 1630 194 1630 194 1633 194 c 0,2,3
 1686 204 1686 204 1747.5 232 c 128,-1,4
 1809 260 1809 260 1887 311 c 1,5,-1
 1933 231 l 1,6,7
 1829 131 1829 131 1739 74.5 c 128,-1,8
 1649 18 1649 18 1570.5 -4.5 c 128,-1,9
 1492 -27 1492 -27 1419 -27 c 0,10,11
 1338 -27 1338 -27 1305.5 13.5 c 128,-1,12
 1273 54 1273 54 1306 141 c 2,13,-1
 1488 631 l 2,14,15
 1513 699 1513 699 1521.5 732.5 c 128,-1,16
 1530 766 1530 766 1530 786 c 0,17,18
 1530 816 1530 816 1514 833.5 c 128,-1,19
 1498 851 1498 851 1461 851 c 0,20,21
 1415 851 1415 851 1367 813 c 128,-1,22
 1319 775 1319 775 1269 699.5 c 128,-1,23
 1219 624 1219 624 1169 508 c 128,-1,24
 1119 392 1119 392 1073 235 c 2,25,-1
 1001 0 l 1,26,-1
 694 0 l 1,27,-1
 888 632 l 2,28,29
 902 678 902 678 910.5 708 c 128,-1,30
 919 738 919 738 921.5 757.5 c 128,-1,31
 924 777 924 777 924 789 c 0,32,33
 924 818 924 818 909.5 834 c 128,-1,34
 895 850 895 850 861 850 c 0,35,36
 813 850 813 850 766 811 c 128,-1,37
 719 772 719 772 672 694 c 128,-1,38
 625 616 625 616 578.5 498 c 128,-1,39
 532 380 532 380 485 222 c 2,40,-1
 421 0 l 1,41,-1
 117 0 l 1,42,-1
 354 864 l 1,43,44
 351 864 351 864 348.5 864 c 128,-1,45
 346 864 346 864 341 864 c 0,46,47
 284 864 284 864 242 851 c 128,-1,48
 200 838 200 838 163.5 802.5 c 128,-1,49
 127 767 127 767 87 698 c 1,50,-1
 54 710 l 1,51,52
 88 862 88 862 145 945.5 c 128,-1,53
 202 1029 202 1029 284.5 1062.5 c 128,-1,54
 367 1096 367 1096 476 1096 c 0,55,56
 506 1096 506 1096 530.5 1095 c 128,-1,57
 555 1094 555 1094 580.5 1092.5 c 128,-1,58
 606 1091 606 1091 637 1086 c 1,59,-1
 471 487 l 1,60,-1
 499 491 l 1,61,62
 572 677 572 677 636 796.5 c 128,-1,63
 700 916 700 916 758 981.5 c 128,-1,64
 816 1047 816 1047 872 1072.5 c 128,-1,65
 928 1098 928 1098 987 1098 c 0,66,67
 1082 1098 1082 1098 1126.5 1050 c 128,-1,68
 1171 1002 1171 1002 1171 916 c 0,69,70
 1171 874 1171 874 1160.5 823.5 c 128,-1,71
 1150 773 1150 773 1130 702 c 2,72,-1
 1069 490 l 1,73,-1
 1093 490 l 1,74,75
 1166 671 1166 671 1233.5 789.5 c 128,-1,76
 1301 908 1301 908 1364.5 975.5 c 128,-1,77
 1428 1043 1428 1043 1491 1070.5 c 128,-1,78
 1554 1098 1554 1098 1622 1098 c 0,79,80
 1738 1098 1738 1098 1792.5 1039 c 128,-1,81
 1847 980 1847 980 1847 891 c 0,82,83
 1847 846 1847 846 1833.5 781.5 c 128,-1,84
 1820 717 1820 717 1783 618 c 2,85,-1
 1627 193 l 1,0,1
EndSplineSet
EndChar

StartChar: n
Encoding: 110 110 81
Width: 1406
GlyphClass: 2
Flags: MW
AnchorPoint: "Anchor-4" 605 0 basechar 0
AnchorPoint: "Anchor-0" 843 1071 basechar 0
LayerCount: 2
Fore
SplineSet
87 698 m 1,0,-1
 54 710 l 1,1,2
 88 862 88 862 145 945.5 c 128,-1,3
 202 1029 202 1029 284.5 1062.5 c 128,-1,4
 367 1096 367 1096 476 1096 c 0,5,6
 507 1096 507 1096 531.5 1095 c 128,-1,7
 556 1094 556 1094 581 1092.5 c 128,-1,8
 606 1091 606 1091 638 1086 c 1,9,-1
 471 484 l 1,10,-1
 499 487 l 1,11,12
 573 663 573 663 642.5 781 c 128,-1,13
 712 899 712 899 779.5 968.5 c 128,-1,14
 847 1038 847 1038 918.5 1068 c 128,-1,15
 990 1098 990 1098 1069 1098 c 0,16,17
 1184 1098 1184 1098 1237 1038 c 128,-1,18
 1290 978 1290 978 1290 889 c 0,19,20
 1290 844 1290 844 1277 780 c 128,-1,21
 1264 716 1264 716 1227 618 c 1,22,23
 1228 618 1228 618 1073 194 c 1,24,25
 1076 194 1076 194 1078 194 c 0,26,27
 1131 204 1131 204 1192.5 232 c 128,-1,28
 1254 260 1254 260 1333 311 c 1,29,-1
 1378 231 l 1,30,31
 1274 131 1274 131 1184.5 74.5 c 128,-1,32
 1095 18 1095 18 1016 -4.5 c 128,-1,33
 937 -27 937 -27 864 -27 c 0,34,35
 783 -27 783 -27 751 13.5 c 128,-1,36
 719 54 719 54 751 141 c 1,37,38
 750 141 750 141 929 625 c 0,39,40
 954 694 954 694 962.5 728 c 128,-1,41
 971 762 971 762 971 785 c 0,42,43
 971 814 971 814 954.5 830.5 c 128,-1,44
 938 847 938 847 901 847 c 0,45,46
 849 847 849 847 794.5 806.5 c 128,-1,47
 740 766 740 766 686 687.5 c 128,-1,48
 632 609 632 609 581 492 c 128,-1,49
 530 375 530 375 485 222 c 2,50,-1
 421 0 l 1,51,-1
 117 0 l 1,52,-1
 354 864 l 1,53,54
 351 864 351 864 348.5 864 c 128,-1,55
 346 864 346 864 341 864 c 0,56,57
 284 864 284 864 242 851 c 128,-1,58
 200 838 200 838 163.5 802.5 c 128,-1,59
 127 767 127 767 87 698 c 1,0,-1
EndSplineSet
EndChar

StartChar: o
Encoding: 111 111 82
Width: 1160
GlyphClass: 2
Flags: MW
AnchorPoint: "Anchor-4" 436 0 basechar 0
AnchorPoint: "Anchor-3" 588 0 basechar 0
AnchorPoint: "Anchor-2" 867 1071 basechar 0
AnchorPoint: "Anchor-0" 712 1071 basechar 0
LayerCount: 2
Fore
SplineSet
487 157 m 0,0,1
 543 157 543 157 591 192 c 128,-1,2
 639 227 639 227 677.5 286.5 c 128,-1,3
 716 346 716 346 743.5 422 c 128,-1,4
 771 498 771 498 786 580 c 128,-1,5
 801 662 801 662 801 741 c 0,6,7
 801 831 801 831 769 872.5 c 128,-1,8
 737 914 737 914 674 914 c 0,9,10
 619 914 619 914 570.5 879.5 c 128,-1,11
 522 845 522 845 484 785 c 128,-1,12
 446 725 446 725 418 649 c 128,-1,13
 390 573 390 573 375.5 491 c 128,-1,14
 361 409 361 409 361 329 c 0,15,16
 361 239 361 239 393 198 c 128,-1,17
 425 157 425 157 487 157 c 0,0,1
686 1098 m 0,18,19
 826 1098 826 1098 916.5 1045.5 c 128,-1,20
 1007 993 1007 993 1050.5 901 c 128,-1,21
 1094 809 1094 809 1094 691 c 0,22,23
 1094 550 1094 550 1050.5 421 c 128,-1,24
 1007 292 1007 292 926 191 c 128,-1,25
 845 90 845 90 731 31.5 c 128,-1,26
 617 -27 617 -27 475 -27 c 0,27,28
 335 -27 335 -27 245 26 c 128,-1,29
 155 79 155 79 111 171.5 c 128,-1,30
 67 264 67 264 67 380 c 0,31,32
 67 520 67 520 110.5 650 c 128,-1,33
 154 780 154 780 235 881 c 128,-1,34
 316 982 316 982 430.5 1040 c 128,-1,35
 545 1098 545 1098 686 1098 c 0,18,19
EndSplineSet
Substitution2: "Single Substitution lookup 3 subtable" ordmasculine
EndChar

StartChar: p
Encoding: 112 112 83
Width: 1312
GlyphClass: 2
Flags: MW
AnchorPoint: "Anchor-4" 142 -492 basechar 0
AnchorPoint: "Anchor-0" 796 1071 basechar 0
LayerCount: 2
Fore
SplineSet
487 334 m 2,0,1
 479 303 479 303 477 282 c 128,-1,2
 475 261 475 261 475 245 c 0,3,4
 475 187 475 187 508.5 150 c 128,-1,5
 542 113 542 113 609 113 c 0,6,7
 661 113 661 113 709.5 147 c 128,-1,8
 758 181 758 181 801 240 c 128,-1,9
 844 299 844 299 875.5 375 c 128,-1,10
 907 451 907 451 925 536.5 c 128,-1,11
 943 622 943 622 943 707 c 0,12,13
 943 791 943 791 916.5 829.5 c 128,-1,14
 890 868 890 868 838 868 c 0,15,16
 802 868 802 868 763 844 c 128,-1,17
 724 820 724 820 686.5 777.5 c 128,-1,18
 649 735 649 735 615 682 c 128,-1,19
 581 629 581 629 556 570.5 c 128,-1,20
 531 512 531 512 518 455 c 2,21,-1
 487 334 l 2,0,1
425 18 m 2,22,-1
 325 -359 l 1,23,-1
 484 -401 l 1,24,-1
 458 -519 l 1,25,-1
 -127 -519 l 1,26,-1
 -103 -402 l 1,27,-1
 28 -360 l 1,28,-1
 355 865 l 1,29,30
 352 865 352 865 349 865 c 128,-1,31
 346 865 346 865 341 865 c 0,32,33
 282 865 282 865 238.5 852 c 128,-1,34
 195 839 195 839 158.5 803.5 c 128,-1,35
 122 768 122 768 81 698 c 1,36,-1
 49 712 l 1,37,38
 84 863 84 863 142.5 946.5 c 128,-1,39
 201 1030 201 1030 285.5 1063.5 c 128,-1,40
 370 1097 370 1097 480 1097 c 0,41,42
 527 1097 527 1097 561 1095 c 128,-1,43
 595 1093 595 1093 635 1088 c 1,44,-1
 518 673 l 1,45,-1
 536 675 l 1,46,47
 609 825 609 825 681.5 918.5 c 128,-1,48
 754 1012 754 1012 829.5 1055 c 128,-1,49
 905 1098 905 1098 986 1098 c 0,50,51
 1121 1098 1121 1098 1191.5 1007 c 128,-1,52
 1262 916 1262 916 1262 766 c 0,53,54
 1262 644 1262 644 1230.5 527.5 c 128,-1,55
 1199 411 1199 411 1140.5 311 c 128,-1,56
 1082 211 1082 211 1002.5 134.5 c 128,-1,57
 923 58 923 58 827.5 15.5 c 128,-1,58
 732 -27 732 -27 626 -27 c 0,59,60
 506 -27 506 -27 426 18 c 1,61,62
 426 18 426 18 425 18 c 2,22,-1
EndSplineSet
EndChar

StartChar: q
Encoding: 113 113 84
Width: 1225
GlyphClass: 2
Flags: MW
AnchorPoint: "Anchor-4" 677 -492 basechar 0
AnchorPoint: "Anchor-0" 800 1071 basechar 0
LayerCount: 2
Fore
SplineSet
560 -360 m 1,0,-1
 800 429 l 1,1,-1
 787 429 l 1,2,3
 702 282 702 282 633.5 192 c 128,-1,4
 565 102 565 102 507.5 54 c 128,-1,5
 450 6 450 6 397 -10.5 c 128,-1,6
 344 -27 344 -27 290 -27 c 0,7,8
 219 -27 219 -27 160 4 c 128,-1,9
 101 35 101 35 65 96.5 c 128,-1,10
 29 158 29 158 29 252 c 0,11,12
 29 360 29 360 64.5 477 c 0,13,14
 98 587 98 587 160.007614213 700.680203046 c 0,15,16
 206 786 206 786 307 902.5 c 0,17,18
 356 959 356 959 451.5 1015.40039062 c 4,19,20
 541 1068 541 1068 646 1076.90039062 c 4,21,22
 1101 1112 1101 1112 1115 773 c 1,23,-1
 867 -356 l 1,24,-1
 988 -402 l 1,25,-1
 961 -519 l 2,26,27
 960 -519 960 -519 370 -519 c 1,28,-1
 396 -401 l 1,29,-1
 560 -360 l 1,0,-1
887 841 m 1,30,31
 868 874 868 874 844 891 c 0,32,33
 806 920 806 920 754 920 c 0,34,35
 693 920 693 920 633.5 876.5 c 128,-1,36
 574 833 574 833 520 761 c 128,-1,37
 466 689 466 689 424.5 604 c 128,-1,38
 383 519 383 519 358.5 436.5 c 128,-1,39
 334 354 334 354 334 291 c 0,40,41
 334 238 334 238 360.5 212.5 c 128,-1,42
 387 187 387 187 434 187 c 0,43,44
 479 187 479 187 535 228 c 128,-1,45
 591 269 591 269 647 339 c 0,46,47
 703 408 703 408 752 496 c 0,48,49
 802 584 802 584 832 677 c 2,50,-1
 887 841 l 1,30,31
EndSplineSet
EndChar

StartChar: r
Encoding: 114 114 85
Width: 1089
GlyphClass: 2
Flags: MW
AnchorPoint: "Anchor-4" 269 0 basechar 0
AnchorPoint: "Anchor-0" 683 1071 basechar 0
LayerCount: 2
Fore
SplineSet
354 864 m 1,0,1
 351 864 351 864 348.5 864 c 128,-1,2
 346 864 346 864 341 864 c 0,3,4
 284 864 284 864 242 851 c 128,-1,5
 200 838 200 838 163.5 802.5 c 128,-1,6
 127 767 127 767 87 698 c 1,7,-1
 54 710 l 1,8,9
 88 862 88 862 145 945.5 c 128,-1,10
 202 1029 202 1029 284.5 1062.5 c 128,-1,11
 367 1096 367 1096 476 1096 c 0,12,13
 511 1096 511 1096 536.5 1095 c 128,-1,14
 562 1094 562 1094 587 1092.5 c 128,-1,15
 612 1091 612 1091 640 1086 c 1,16,-1
 482 516 l 1,17,-1
 508 521 l 1,18,19
 599 736 599 736 679 862 c 128,-1,20
 759 988 759 988 837.5 1043 c 0,21,22
 904 1090 904 1090 1000 1098 c 0,23,24
 1089 1106 1089 1106 1204 977 c 1,25,26
 1200 960 1200 960 972.5 737 c 1,27,28
 959 766 959 766 940 787 c 0,29,30
 918 811 918 811 892.5 824.5 c 128,-1,31
 867 838 867 838 850 838 c 0,32,33
 818 838 818 838 781 810.5 c 128,-1,34
 744 783 744 783 705 730.5 c 128,-1,35
 666 678 666 678 628.5 604 c 128,-1,36
 591 530 591 530 555 436 c 0,37,38
 513.645327447 329.247240618 513.645327447 329.247240618 486 231 c 2,39,-1
 421 0 l 1,40,-1
 117 0 l 1,41,-1
 354 864 l 1,0,1
EndSplineSet
EndChar

StartChar: s
Encoding: 115 115 86
Width: 961
GlyphClass: 2
Flags: MW
AnchorPoint: "Anchor-4" 397 0 basechar 0
AnchorPoint: "Anchor-0" 601 1071 basechar 0
LayerCount: 2
Fore
SplineSet
210 314 m 1,0,1
 218 258 218 258 229 221.5 c 128,-1,2
 240 185 240 185 262 156 c 0,3,4
 285 127 285 127 313 117 c 128,-1,5
 341 107 341 107 383 107 c 0,6,7
 450 107 450 107 498 124 c 128,-1,8
 546 141 546 141 571.5 174.5 c 128,-1,9
 597 208 597 208 597 257 c 0,10,11
 597 295 597 295 582 323.5 c 128,-1,12
 567 352 567 352 525 380 c 128,-1,13
 483 408 483 408 398 442 c 0,14,15
 315 477 315 477 266.5 516.5 c 128,-1,16
 218 556 218 556 196 608.5 c 128,-1,17
 174 661 174 661 174 735 c 0,18,19
 174 843 174 843 229 925 c 128,-1,20
 284 1007 284 1007 387.5 1052.5 c 128,-1,21
 491 1098 491 1098 638 1098 c 0,22,23
 747 1098 747 1098 815.5 1075.5 c 128,-1,24
 884 1053 884 1053 916 1012.5 c 128,-1,25
 948 972 948 972 948 916 c 0,26,27
 948 872 948 872 930 840.5 c 128,-1,28
 912 809 912 809 872 792 c 128,-1,29
 832 775 832 775 766 775 c 1,30,31
 756 824 756 824 740.5 857.5 c 128,-1,32
 725 891 725 891 703 917 c 0,33,34
 680 942 680 942 653.5 953 c 128,-1,35
 627 964 627 964 593 964 c 0,36,37
 508 964 508 964 465 932 c 128,-1,38
 422 900 422 900 422 843 c 0,39,40
 422 811 422 811 435 785 c 128,-1,41
 448 759 448 759 489.5 731 c 128,-1,42
 531 703 531 703 616 663 c 0,43,44
 702 624 702 624 749 581 c 128,-1,45
 796 538 796 538 816.5 485 c 128,-1,46
 837 432 837 432 837 365 c 0,47,48
 837 241 837 241 777.5 153 c 128,-1,49
 718 65 718 65 606.5 19 c 128,-1,50
 495 -27 495 -27 338 -27 c 0,51,52
 217 -27 217 -27 145 -1 c 128,-1,53
 73 25 73 25 41 69 c 128,-1,54
 9 113 9 113 9 168 c 0,55,56
 9 216 9 216 26.5 248.5 c 128,-1,57
 44 281 44 281 88 297.5 c 128,-1,58
 132 314 132 314 210 314 c 1,0,1
EndSplineSet
EndChar

StartChar: t
Encoding: 116 116 87
Width: 876
GlyphClass: 2
Flags: MW
AnchorPoint: "Anchor-4" 363 0 basechar 0
AnchorPoint: "Anchor-3" 819 1611 basechar 0
LayerCount: 2
Fore
SplineSet
519 462 m 2,0,1
 495.868014269 384.330558859 495.868014269 384.330558859 489 356 c 0,2,3
 479 315 479 315 475 291 c 128,-1,4
 471 267 471 267 471 252 c 0,5,6
 471 225 471 225 481 215.5 c 128,-1,7
 491 206 491 206 512 206 c 128,-1,8
 533 206 533 206 561.5 218.5 c 128,-1,9
 590 231 590 231 633.5 263.5 c 128,-1,10
 677 296 677 296 740 354 c 1,11,-1
 798 278 l 1,12,13
 717 186 717 186 648 126.5 c 128,-1,14
 579 67 579 67 519 33.5 c 128,-1,15
 459 0 459 0 408.5 -13.5 c 128,-1,16
 358 -27 358 -27 316 -27 c 0,17,18
 242 -27 242 -27 202 15 c 128,-1,19
 162 57 162 57 162 150 c 0,20,21
 162 207 162 207 175 264.5 c 0,22,23
 199.907232109 368.439795532 199.907232109 368.439795532 218 431 c 2,24,-1
 360 922 l 1,25,-1
 129 922 l 1,26,-1
 183 1071 l 1,27,-1
 404 1071 l 1,28,29
 404 1071 404 1071 473 1292 c 1,30,31
 511 1366 511 1366 677 1366 c 2,32,-1
 788 1366 l 1,33,-1
 701 1071 l 1,34,-1
 939 1071 l 1,35,-1
 935 922 l 1,36,-1
 656 922 l 1,37,-1
 519 462 l 2,0,1
EndSplineSet
EndChar

StartChar: u
Encoding: 117 117 88
Width: 1361
GlyphClass: 2
Flags: MW
AnchorPoint: "Anchor-4" 565 0 basechar 0
AnchorPoint: "Anchor-3" 1166 0 basechar 0
AnchorPoint: "Anchor-2" 1199 1071 basechar 0
AnchorPoint: "Anchor-0" 791 1071 basechar 0
LayerCount: 2
Fore
SplineSet
785 125 m 2,0,-1
 899 503 l 1,1,-1
 877 499 l 1,2,3
 797 336 797 336 731 232.5 c 128,-1,4
 665 129 665 129 606.5 72.5 c 128,-1,5
 548 16 548 16 488 -5.5 c 128,-1,6
 428 -27 428 -27 357 -27 c 0,7,8
 248 -27 248 -27 195 32 c 128,-1,9
 142 91 142 91 142 180 c 0,10,11
 142 224 142 224 156 288.5 c 128,-1,12
 170 353 170 353 206 460 c 2,13,-1
 349 878 l 1,14,15
 334 875 334 875 320 870 c 0,16,17
 265 854 265 854 210 819.5 c 128,-1,18
 155 785 155 785 95 731 c 1,19,-1
 40 807 l 1,20,21
 137 916 137 916 225.5 979.5 c 128,-1,22
 314 1043 314 1043 393 1052.5 c 128,-1,23
 472 1062 472 1062 543 1062 c 0,24,25
 639 1062 639 1062 665 1027.5 c 128,-1,26
 691 993 691 993 654 885 c 2,27,-1
 495 424 l 2,28,29
 474 364 474 364 465.5 329.5 c 128,-1,30
 457 295 457 295 457 273 c 0,31,32
 457 244 457 244 474 229.5 c 128,-1,33
 491 215 491 215 523 215 c 0,34,35
 559 215 559 215 601.5 240 c 128,-1,36
 644 265 644 265 690 324.5 c 128,-1,37
 736 384 736 384 784.5 487.5 c 128,-1,38
 833 591 833 591 882 746 c 2,39,-1
 986 1062 l 1,40,-1
 1291 1062 l 1,41,-1
 1035 190 l 1,42,43
 1043 191 1043 191 1052 193 c 0,44,45
 1109 204 1109 204 1170 235 c 128,-1,46
 1231 266 1231 266 1301 318 c 1,47,-1
 1349 239 l 1,48,49
 1201 89 1201 89 1081 31 c 0,50,51
 962 -27 962 -27 884 -27 c 0,52,53
 813 -27 813 -27 786 8 c 128,-1,54
 759 43 759 43 785 125 c 2,0,-1
EndSplineSet
EndChar

StartChar: v
Encoding: 118 118 89
Width: 1233
GlyphClass: 2
Flags: MW
AnchorPoint: "Anchor-4" 515 0 basechar 0
AnchorPoint: "Anchor-0" 766 1071 basechar 0
LayerCount: 2
Fore
SplineSet
1175 846 m 0,0,1
 1175 703 1175 703 1138 573 c 128,-1,2
 1101 443 1101 443 1034.5 333.5 c 128,-1,3
 968 224 968 224 880 143 c 128,-1,4
 792 62 792 62 691 -9.5 c 1,5,6
 590 -27 590 -27 483 -27 c 0,7,8
 332 -27 332 -27 256.5 10.5 c 1,9,10
 181 102 181 102 181 221 c 0,11,12
 181 293 181 293 207 383 c 1,13,-1
 353 864 l 1,14,15
 351 864 351 864 348 864 c 128,-1,16
 345 864 345 864 341 864 c 0,17,18
 284 864 284 864 242 851 c 128,-1,19
 200 838 200 838 163.5 802.5 c 128,-1,20
 127 767 127 767 88 698 c 1,21,-1
 54 711 l 1,22,23
 83 823 83 823 122 898 c 128,-1,24
 161 973 161 973 215.5 1017 c 128,-1,25
 270 1061 270 1061 345.5 1079.5 c 128,-1,26
 421 1098 421 1098 523 1098 c 0,27,28
 559 1098 559 1098 588.5 1096.5 c 128,-1,29
 618 1095 618 1095 646.5 1093 c 128,-1,30
 675 1091 675 1091 710 1086 c 1,31,-1
 499 387 l 2,32,33
 489 356 489 356 484.5 329 c 128,-1,34
 480 302 480 302 480 281 c 0,35,36
 480 228 480 228 510.5 203.5 c 128,-1,37
 541 179 541 179 599 179 c 0,38,39
 655 179 655 179 710.5 205 c 128,-1,40
 766 231 766 231 815.5 277.5 c 128,-1,41
 865 324 865 324 903.5 386 c 128,-1,42
 942 448 942 448 964 521 c 128,-1,43
 986 594 986 594 986 671 c 0,44,45
 986 736 986 736 963 774 c 128,-1,46
 940 812 940 812 909 834 c 128,-1,47
 878 856 878 856 855 871.5 c 128,-1,48
 832 887 832 887 832 905 c 0,49,50
 832 994 832 994 877.5 1046 c 128,-1,51
 923 1098 923 1098 1007 1098 c 0,52,53
 1081 1098 1081 1098 1128 1039.5 c 128,-1,54
 1175 981 1175 981 1175 846 c 0,0,1
EndSplineSet
EndChar

StartChar: w
Encoding: 119 119 90
Width: 1759
GlyphClass: 2
Flags: MW
AnchorPoint: "Anchor-4" 808 0 basechar 0
AnchorPoint: "Anchor-0" 1085 1071 basechar 0
LayerCount: 2
Fore
SplineSet
964 1071 m 1,0,-1
 1257 1071 l 1,1,-1
 1085 392 l 2,2,3
 1077 357 1077 357 1073 329 c 128,-1,4
 1069 301 1069 301 1069 280 c 0,5,6
 1069 226 1069 226 1093 202.5 c 128,-1,7
 1117 179 1117 179 1168 179 c 0,8,9
 1217 179 1217 179 1266.5 204.5 c 128,-1,10
 1316 230 1316 230 1361 276.5 c 128,-1,11
 1406 323 1406 323 1441.5 385 c 128,-1,12
 1477 447 1477 447 1498 520 c 128,-1,13
 1519 593 1519 593 1519 671 c 0,14,15
 1519 735 1519 735 1495.5 772 c 128,-1,16
 1472 809 1472 809 1440.5 830.5 c 128,-1,17
 1409 852 1409 852 1385.5 867 c 128,-1,18
 1362 882 1362 882 1362 901 c 0,19,20
 1362 985 1362 985 1410 1041.5 c 128,-1,21
 1458 1098 1458 1098 1538 1098 c 0,22,23
 1588 1098 1588 1098 1624.5 1074 c 128,-1,24
 1661 1050 1661 1050 1680.5 994.5 c 128,-1,25
 1700 939 1700 939 1700 846 c 0,26,27
 1700 693 1700 693 1665.5 559.5 c 128,-1,28
 1631 426 1631 426 1569 318.5 c 128,-1,29
 1507 211 1507 211 1428 133.5 c 128,-1,30
 1349 56 1349 56 1260 -12.5 c 1,31,32
 1171 -27 1171 -27 1082 -27 c 0,33,34
 974 -27 974 -27 916.5 -5.5 c 1,35,36
 859 70 859 70 859 178 c 0,37,38
 859 206 859 206 864 241 c 128,-1,39
 869 276 869 276 879 316 c 2,40,-1
 921 487 l 1,41,-1
 900 485 l 1,42,43
 848 339 848 339 791.5 240 c 128,-1,44
 735 141 735 141 674.5 82.5 c 1,45,46
 614 -3 614 -3 549 -1.5 c 1,47,48
 484 -27 484 -27 416 -27 c 0,49,50
 297 -27 297 -27 236 9 c 1,51,52
 175 99 175 99 175 213 c 0,53,54
 175 291 175 291 203 387 c 1,55,-1
 349 864 l 1,56,57
 346 864 346 864 343 864 c 128,-1,58
 340 864 340 864 335 864 c 0,59,60
 278 864 278 864 236.5 851 c 128,-1,61
 195 838 195 838 159 802.5 c 128,-1,62
 123 767 123 767 84 698 c 1,63,-1
 49 711 l 1,64,65
 78 823 78 823 117 898 c 128,-1,66
 156 973 156 973 210 1017 c 128,-1,67
 264 1061 264 1061 340 1079.5 c 128,-1,68
 416 1098 416 1098 519 1098 c 0,69,70
 555 1098 555 1098 584.5 1096.5 c 128,-1,71
 614 1095 614 1095 642.5 1093 c 128,-1,72
 671 1091 671 1091 705 1086 c 1,73,74
 704 1086 704 1086 484 356 c 0,75,76
 475 325 475 325 470.5 300.5 c 128,-1,77
 466 276 466 276 466 257 c 0,78,79
 466 216 466 216 488 198 c 128,-1,80
 510 180 510 180 550 180 c 0,81,82
 601 180 601 180 653 219.5 c 128,-1,83
 705 259 705 259 754 351.5 c 128,-1,84
 803 444 803 444 844 603 c 2,85,-1
 964 1071 l 1,0,-1
EndSplineSet
EndChar

StartChar: x
Encoding: 120 120 91
Width: 1236
GlyphClass: 2
Flags: MW
AnchorPoint: "Anchor-4" 472 0 basechar 0
AnchorPoint: "Anchor-0" 761 1071 basechar 0
LayerCount: 2
Fore
SplineSet
1169 307 m 1,0,1
 1068 176 1068 176 988 103 c 128,-1,2
 908 30 908 30 842.5 1.5 c 128,-1,3
 777 -27 777 -27 716 -27 c 0,4,5
 671 -27 671 -27 642 -11 c 128,-1,6
 613 5 613 5 595 43 c 128,-1,7
 577 81 577 81 561 146 c 2,8,-1
 514 355 l 1,9,-1
 424 230 l 2,10,11
 353 132 353 132 300 75.5 c 128,-1,12
 247 19 247 19 199.5 -4 c 128,-1,13
 152 -27 152 -27 95 -27 c 0,14,15
 20 -27 20 -27 -21 17.5 c 128,-1,16
 -62 62 -62 62 -62 131 c 0,17,18
 -62 188 -62 188 -36 231.5 c 128,-1,19
 -10 275 -10 275 23 300.5 c 128,-1,20
 56 326 56 326 80 326 c 0,21,22
 90 326 90 326 105.5 312 c 128,-1,23
 121 298 121 298 138 279 c 0,24,25
 157 260 157 260 175 246 c 128,-1,26
 193 232 193 232 207 232 c 0,27,28
 226 232 226 232 254.5 249.5 c 128,-1,29
 283 267 283 267 326 310.5 c 128,-1,30
 369 354 369 354 429 433 c 2,31,-1
 481 501 l 1,32,-1
 406 834 l 2,33,34
 400 860 400 860 396.5 867 c 128,-1,35
 393 874 393 874 387 874 c 0,36,37
 361 874 361 874 306.5 825.5 c 128,-1,38
 252 777 252 777 171 665 c 1,39,-1
 100 720 l 1,40,41
 177 860 177 860 248.5 943 c 128,-1,42
 320 1026 320 1026 389 1062 c 128,-1,43
 458 1098 458 1098 528 1098 c 0,44,45
 575 1098 575 1098 604.5 1081.5 c 128,-1,46
 634 1065 634 1065 653 1027 c 128,-1,47
 672 989 672 989 685 924 c 2,48,-1
 729 726 l 1,49,50
 763 775 763 775 808 840 c 0,51,52
 881 944 881 944 934.5 999.5 c 128,-1,53
 988 1055 988 1055 1036 1076.5 c 128,-1,54
 1084 1098 1084 1098 1138 1098 c 0,55,56
 1213 1098 1213 1098 1254 1054 c 128,-1,57
 1295 1010 1295 1010 1295 941 c 0,58,59
 1295 885 1295 885 1269.5 840.5 c 128,-1,60
 1244 796 1244 796 1211 770.5 c 128,-1,61
 1178 745 1178 745 1152 745 c 0,62,63
 1143 745 1143 745 1127.5 759.5 c 128,-1,64
 1112 774 1112 774 1093 794 c 0,65,66
 1074 815 1074 815 1056.5 827 c 128,-1,67
 1039 839 1039 839 1025 839 c 0,68,69
 1001 839 1001 839 966.5 815 c 128,-1,70
 932 791 932 791 889.5 745.5 c 128,-1,71
 847 700 847 700 802 638 c 2,72,-1
 761 584 l 1,73,-1
 839 240 l 2,74,75
 846 210 846 210 849.5 201.5 c 128,-1,76
 853 193 853 193 863 193 c 0,77,78
 881 193 881 193 914 209.5 c 128,-1,79
 947 226 947 226 996.5 264.5 c 128,-1,80
 1046 303 1046 303 1110 369 c 1,81,-1
 1169 307 l 1,0,1
EndSplineSet
EndChar

StartChar: y
Encoding: 121 121 92
Width: 1191
GlyphClass: 2
Flags: MW
AnchorPoint: "Anchor-4" 914 -127 basechar 0
AnchorPoint: "Anchor-0" 709 1071 basechar 0
LayerCount: 2
Fore
SplineSet
118 576 m 1,0,-1
 30 610 l 1,1,2
 85 760 85 760 135 855.5 c 128,-1,3
 185 951 185 951 232.5 1004 c 128,-1,4
 280 1057 280 1057 326 1077.5 c 128,-1,5
 372 1098 372 1098 421 1098 c 0,6,7
 453 1098 453 1098 478 1084 c 128,-1,8
 503 1070 503 1070 524.5 1036 c 128,-1,9
 546 1002 546 1002 569 943 c 0,10,11
 593 885 593 885 624.5 767 c 128,-1,12
 656 649 656 649 694 466 c 0,13,14
 720 339 720 339 747 177 c 1,15,16
 754 192 754 192 760 207 c 0,17,18
 810 322 810 322 847 454 c 128,-1,19
 884 586 884 586 906 739.5 c 128,-1,20
 928 893 928 893 936 1071 c 1,21,22
 968 1081 968 1081 1011 1086.5 c 128,-1,23
 1054 1092 1054 1092 1106 1092 c 0,24,25
 1154 1091 1154 1091 1175 1075 c 128,-1,26
 1196 1059 1196 1059 1194 1028 c 0,27,28
 1187 956 1187 956 1166 867.5 c 128,-1,29
 1145 779 1145 779 1111.5 678 c 128,-1,30
 1078 577 1078 577 1033.5 470 c 128,-1,31
 989 363 989 363 935 254.5 c 128,-1,32
 881 146 881 146 819 41 c 0,33,34
 710 -143 710 -143 593 -267.5 c 128,-1,35
 476 -392 476 -392 361 -455.5 c 128,-1,36
 246 -519 246 -519 140 -519 c 0,37,38
 39 -519 39 -519 -7 -467 c 128,-1,39
 -53 -415 -53 -415 -53 -337 c 0,40,41
 -53 -269 -53 -269 -10.5 -221.5 c 128,-1,42
 32 -174 32 -174 94 -174 c 0,43,44
 103 -174 103 -174 121 -192 c 128,-1,45
 139 -210 139 -210 163 -238 c 0,46,47
 188 -266 188 -266 213 -288 c 128,-1,48
 238 -310 238 -310 254 -310 c 0,49,50
 305 -310 305 -310 365 -280.5 c 128,-1,51
 425 -251 425 -251 489 -188 c 0,52,53
 511 -166 511 -166 533 -140 c 1,54,55
 513 -31 513 -31 495 62 c 0,56,57
 468 197 468 197 445 302.5 c 128,-1,58
 422 408 422 408 402 489 c 128,-1,59
 382 570 382 570 364 633 c 0,60,61
 341 716 341 716 327.5 756.5 c 128,-1,62
 314 797 314 797 305 810.5 c 128,-1,63
 296 824 296 824 287 824 c 0,64,65
 272 824 272 824 247 801 c 128,-1,66
 222 778 222 778 189.5 724 c 128,-1,67
 157 670 157 670 118 576 c 1,0,-1
EndSplineSet
EndChar

StartChar: z
Encoding: 122 122 93
Width: 1091
GlyphClass: 2
Flags: MW
AnchorPoint: "Anchor-4" 431 0 basechar 0
AnchorPoint: "Anchor-0" 650 1071 basechar 0
LayerCount: 2
Fore
SplineSet
171 665 m 1,0,-1
 88 721 l 1,1,2
 157 862 157 862 217.5 944 c 128,-1,3
 278 1026 278 1026 335 1060.5 c 128,-1,4
 392 1095 392 1095 449.5 1094 c 128,-1,5
 507 1093 507 1093 568 1070 c 2,6,-1
 871 957 l 1,7,-1
 1017 1105 l 1,8,-1
 1102 999 l 1,9,-1
 495 386 l 1,10,-1
 645 295 l 2,11,12
 698 263 698 263 735 249 c 128,-1,13
 772 235 772 235 807 243.5 c 128,-1,14
 842 252 842 252 884 287 c 128,-1,15
 926 322 926 322 990 387 c 1,16,-1
 1047 327 l 1,17,18
 950 188 950 188 876 108.5 c 128,-1,19
 802 29 802 29 741.5 -1 c 128,-1,20
 681 -31 681 -31 627 -24.5 c 128,-1,21
 573 -18 573 -18 517 14 c 2,22,-1
 267 155 l 1,23,-1
 86 -28 l 1,24,-1
 4 78 l 1,25,-1
 638 721 l 1,26,-1
 478 786 l 2,27,28
 418 810 418 810 380 819 c 128,-1,29
 342 828 342 828 312.5 817.5 c 128,-1,30
 283 807 283 807 250.5 770 c 128,-1,31
 218 733 218 733 171 665 c 1,0,-1
EndSplineSet
EndChar

StartChar: braceleft
Encoding: 123 123 94
Width: 705
GlyphClass: 1
Flags: MW
LayerCount: 2
Fore
SplineSet
66 542 m 1,0,-1
 106 678 l 1,1,-1
 173 680 l 2,2,3
 218 682 218 682 248.5 695 c 128,-1,4
 279 708 279 708 299 736 c 0,5,6
 318 765 318 765 332 811 c 0,7,8
 347 868 347 868 352 930.5 c 128,-1,9
 357 993 357 993 363.5 1059.5 c 128,-1,10
 370 1126 370 1126 389 1193 c 0,11,12
 417 1294 417 1294 510.5 1372 c 128,-1,13
 604 1450 604 1450 762 1462 c 2,14,-1
 908 1473 l 1,15,-1
 883 1332 l 1,16,-1
 804 1322 l 2,17,18
 727 1313 727 1313 688.5 1275.5 c 128,-1,19
 650 1238 650 1238 630 1168 c 0,20,21
 616 1118 616 1118 606.5 1062 c 128,-1,22
 597 1006 597 1006 587.5 948.5 c 128,-1,23
 578 891 578 891 560 833 c 0,24,25
 532 738 532 738 459 670 c 0,26,27
 414 628 414 628 343 605 c 1,28,29
 355 599 355 599 364 592 c 0,30,31
 401 566 401 566 415.5 532 c 128,-1,32
 430 498 430 498 430 456 c 0,33,34
 430 413 430 413 413 352 c 128,-1,35
 396 291 396 291 374 224 c 128,-1,36
 352 157 352 157 334.5 95.5 c 128,-1,37
 317 34 317 34 317 -10 c 0,38,39
 317 -51 317 -51 336.5 -74.5 c 128,-1,40
 356 -98 356 -98 399 -104 c 2,41,-1
 465 -115 l 1,42,-1
 413 -254 l 1,43,-1
 321 -244 l 2,44,45
 212 -231 212 -231 151 -163.5 c 128,-1,46
 90 -96 90 -96 90 -11 c 0,47,48
 90 45 90 45 110.5 108.5 c 128,-1,49
 131 172 131 172 159 236.5 c 128,-1,50
 187 301 187 301 207.5 359.5 c 128,-1,51
 228 418 228 418 228 463 c 0,52,53
 228 501 228 501 205.5 519.5 c 128,-1,54
 183 538 183 538 133 539 c 2,55,-1
 66 542 l 1,0,-1
EndSplineSet
Substitution2: "'case' Case-Sensitive Forms in Latin lookup 9 subtable" braceleft.case
EndChar

StartChar: bar
Encoding: 124 124 95
Width: 558
GlyphClass: 1
Flags: MW
LayerCount: 2
Fore
SplineSet
-92 -481 m 1,0,-1
 478 1519 l 1,1,-1
 664 1519 l 1,2,-1
 94 -481 l 1,3,-1
 -92 -481 l 1,0,-1
EndSplineSet
EndChar

StartChar: braceright
Encoding: 125 125 96
Width: 705
GlyphClass: 1
Flags: MW
LayerCount: 2
Fore
SplineSet
705 678 m 1,0,-1
 665 541 l 2,1,2
 664 541 664 541 598 539 c 0,3,4
 553 538 553 538 522.5 524.5 c 128,-1,5
 492 511 492 511 472 483 c 128,-1,6
 452 455 452 455 439 408 c 0,7,8
 423 352 423 352 418 289 c 128,-1,9
 413 226 413 226 407.5 160 c 128,-1,10
 402 94 402 94 383 27 c 0,11,12
 355 -75 355 -75 261.5 -152.5 c 128,-1,13
 168 -230 168 -230 9 -243 c 2,14,-1
 -138 -254 l 1,15,-1
 -111 -112 l 1,16,-1
 -32 -102 l 2,17,18
 44 -93 44 -93 83 -55.5 c 128,-1,19
 122 -18 122 -18 142 51 c 0,20,21
 156 102 156 102 165 157.5 c 128,-1,22
 174 213 174 213 184.5 271 c 128,-1,23
 195 329 195 329 210 386 c 0,24,25
 238 482 238 482 312 550 c 0,26,27
 357 592 357 592 428 615 c 1,28,29
 417 621 417 621 407 628 c 0,30,31
 370 653 370 653 355.5 687 c 128,-1,32
 341 721 341 721 341 763 c 0,33,34
 341 806 341 806 358 867 c 128,-1,35
 375 928 375 928 397 995 c 128,-1,36
 419 1062 419 1062 436 1123.5 c 128,-1,37
 453 1185 453 1185 453 1229 c 0,38,39
 453 1271 453 1271 434 1294 c 128,-1,40
 415 1317 415 1317 372 1324 c 2,41,-1
 307 1334 l 1,42,-1
 358 1473 l 1,43,-1
 450 1463 l 2,44,45
 558 1451 558 1451 619.5 1383.5 c 128,-1,46
 681 1316 681 1316 681 1230 c 0,47,48
 681 1174 681 1174 660 1110.5 c 128,-1,49
 639 1047 639 1047 611.5 982.5 c 128,-1,50
 584 918 584 918 563 859.5 c 128,-1,51
 542 801 542 801 542 756 c 0,52,53
 542 718 542 718 565 700 c 128,-1,54
 588 682 588 682 638 680 c 2,55,-1
 705 678 l 1,0,-1
EndSplineSet
Substitution2: "'case' Case-Sensitive Forms in Latin lookup 9 subtable" braceright.case
EndChar

StartChar: asciitilde
Encoding: 126 126 97
Width: 1092
GlyphClass: 1
Flags: MW
LayerCount: 2
Fore
SplineSet
986 652 m 1,0,1
 956 531 956 531 913.5 461 c 128,-1,2
 871 391 871 391 818.5 362 c 128,-1,3
 766 333 766 333 701 333 c 0,4,5
 648 333 648 333 607 355.5 c 128,-1,6
 566 378 566 378 532 407 c 128,-1,7
 498 436 498 436 466 458 c 128,-1,8
 434 480 434 480 398 480 c 0,9,10
 354 480 354 480 324 450.5 c 128,-1,11
 294 421 294 421 271 344 c 1,12,-1
 107 344 l 1,13,14
 137 465 137 465 179.5 534.5 c 128,-1,15
 222 604 222 604 275 633 c 128,-1,16
 328 662 328 662 392 662 c 0,17,18
 445 662 445 662 486 640 c 128,-1,19
 527 618 527 618 561 589 c 128,-1,20
 595 560 595 560 627 537.5 c 128,-1,21
 659 515 659 515 694 515 c 0,22,23
 739 515 739 515 769 544.5 c 128,-1,24
 799 574 799 574 822 652 c 1,25,-1
 986 652 l 1,0,1
EndSplineSet
EndChar

StartChar: exclamdown
Encoding: 161 161 99
Width: 598
GlyphClass: 1
Flags: MW
LayerCount: 2
Fore
SplineSet
353 658 m 0,0,1
 285 658 285 658 249 693 c 128,-1,2
 213 728 213 728 213 790 c 0,3,4
 213 849 213 849 238 899 c 128,-1,5
 263 949 263 949 313.5 979 c 128,-1,6
 364 1009 364 1009 440 1009 c 0,7,8
 509 1009 509 1009 544.5 973.5 c 128,-1,9
 580 938 580 938 580 877 c 0,10,11
 580 818 580 818 555.5 768 c 128,-1,12
 531 718 531 718 480.5 688 c 128,-1,13
 430 658 430 658 353 658 c 0,0,1
-120 -342 m 2,14,-1
 -94 -261 l 2,15,16
 -86 -239 -86 -239 -67.5 -193.5 c 128,-1,17
 -49 -148 -49 -148 -23 -86 c 128,-1,18
 3 -24 3 -24 34 48.5 c 128,-1,19
 65 121 65 121 97.5 198.5 c 128,-1,20
 130 276 130 276 162.5 352 c 128,-1,21
 195 428 195 428 222 496 c 1,22,-1
 379 496 l 1,23,24
 368 428 368 428 355.5 352 c 128,-1,25
 343 276 343 276 331 198.5 c 128,-1,26
 319 121 319 121 307.5 48.5 c 128,-1,27
 296 -24 296 -24 286.5 -86 c 128,-1,28
 277 -148 277 -148 269 -193.5 c 128,-1,29
 261 -239 261 -239 256 -261 c 2,30,-1
 235 -342 l 2,31,32
 227 -371 227 -371 207.5 -390.5 c 128,-1,33
 188 -410 188 -410 147 -419.5 c 128,-1,34
 106 -429 106 -429 35 -429 c 0,35,36
 -37 -429 -37 -429 -73.5 -419.5 c 128,-1,37
 -110 -410 -110 -410 -119.5 -390 c 128,-1,38
 -129 -370 -129 -370 -120 -342 c 2,14,-1
EndSplineSet
Substitution2: "'case' Case-Sensitive Forms in Latin lookup 9 subtable" exclamdown.case
EndChar

StartChar: currency
Encoding: 164 164 102
Width: 1026
GlyphClass: 1
Flags: MW
LayerCount: 2
Fore
SplineSet
479 300 m 128,-1,1
 551 300 551 300 601 332.5 c 128,-1,2
 651 365 651 365 676.5 419 c 128,-1,3
 702 473 702 473 702 538 c 0,4,5
 702 609 702 609 660.5 652.5 c 128,-1,6
 619 696 619 696 546 696 c 0,7,8
 475 696 475 696 425 663.5 c 128,-1,9
 375 631 375 631 349.5 577 c 128,-1,10
 324 523 324 523 324 458 c 0,11,12
 324 387 324 387 365.5 343.5 c 128,-1,0
 407 300 407 300 479 300 c 128,-1,1
571 843 m 0,13,14
 658 843 658 843 722 808 c 0,15,16
 740 798 740 798 755 786 c 1,17,-1
 869 879 l 1,18,-1
 957 739 l 1,19,-1
 846 650 l 1,20,21
 857 609 857 609 857 562 c 0,22,23
 857 450 857 450 810 357 c 0,24,25
 789 317 789 317 760 283 c 1,26,-1
 826 177 l 1,27,-1
 684 76 l 1,28,-1
 618 181 l 1,29,30
 546 153 546 153 455 153 c 0,31,32
 369 153 369 153 304 189 c 0,33,34
 286 199 286 199 271 211 c 1,35,-1
 156 117 l 1,36,-1
 69 257 l 1,37,-1
 180 347 l 1,38,39
 169 387 169 387 169 434 c 0,40,41
 169 547 169 547 216 640 c 0,42,43
 237 680 237 680 266 713 c 1,44,-1
 200 819 l 1,45,-1
 342 919 l 1,46,-1
 408 814 l 1,47,48
 480 843 480 843 571 843 c 0,13,14
EndSplineSet
EndChar

StartChar: brokenbar
Encoding: 166 166 104
Width: 558
GlyphClass: 1
Flags: MW
LayerCount: 2
Fore
SplineSet
-92 -481 m 1,0,-1
 138 325 l 1,1,-1
 324 325 l 1,2,-1
 94 -481 l 1,3,-1
 -92 -481 l 1,0,-1
439 730 m 1,4,-1
 253 730 l 1,5,-1
 478 1519 l 1,6,-1
 664 1519 l 1,7,-1
 439 730 l 1,4,-1
EndSplineSet
EndChar

StartChar: section
Encoding: 167 167 105
Width: 1230
GlyphClass: 1
Flags: MW
LayerCount: 2
Fore
SplineSet
897 576 m 0,0,1
 897 630 897 630 857 658.5 c 128,-1,2
 817 687 817 687 754 704 c 128,-1,3
 691 721 691 721 620 739 c 0,4,5
 588 747 588 747 558 757 c 1,6,7
 521 750 521 750 494 739 c 0,8,9
 434 715 434 715 409 678 c 128,-1,10
 384 641 384 641 384 596 c 0,11,12
 384 542 384 542 424 512.5 c 128,-1,13
 464 483 464 483 527.5 466 c 128,-1,14
 591 449 591 449 662 431 c 0,15,16
 693 423 693 423 723 412 c 1,17,18
 759 420 759 420 787 431 c 0,19,20
 846 455 846 455 871.5 492 c 128,-1,21
 897 529 897 529 897 576 c 0,0,1
451 807 m 1,22,23
 410 834 410 834 382 874 c 0,24,25
 342 931 342 931 342 1027 c 0,26,27
 342 1134 342 1134 401.5 1223 c 128,-1,28
 461 1312 461 1312 585.5 1366.5 c 128,-1,29
 710 1421 710 1421 905 1421 c 0,30,31
 1047 1421 1047 1421 1126 1396.5 c 128,-1,32
 1205 1372 1205 1372 1235.5 1333 c 128,-1,33
 1266 1294 1266 1294 1266 1249 c 0,34,35
 1265 1186 1265 1186 1226.5 1149.5 c 128,-1,36
 1188 1113 1188 1113 1132 1113 c 0,37,38
 1114 1113 1114 1113 1094 1136 c 128,-1,39
 1074 1159 1074 1159 1044 1189 c 128,-1,40
 1014 1219 1014 1219 967.5 1242 c 128,-1,41
 921 1265 921 1265 847 1265 c 0,42,43
 765 1265 765 1265 717.5 1245 c 128,-1,44
 670 1225 670 1225 649 1193.5 c 128,-1,45
 628 1162 628 1162 628 1125 c 0,46,47
 628 1075 628 1075 668.5 1046.5 c 128,-1,48
 709 1018 709 1018 773 1000.5 c 128,-1,49
 837 983 837 983 907.5 965.5 c 128,-1,50
 978 948 978 948 1042.5 918 c 128,-1,51
 1107 888 1107 888 1147.5 834.5 c 128,-1,52
 1188 781 1188 781 1188 691 c 0,53,54
 1188 541 1188 541 1076 452 c 0,55,56
 987 383 987 383 830 362 c 1,57,58
 870 335 870 335 900 294 c 0,59,60
 940 238 940 238 940 143 c 0,61,62
 940 35 940 35 880 -55 c 128,-1,63
 820 -145 820 -145 695 -199.5 c 128,-1,64
 570 -254 570 -254 376 -254 c 0,65,66
 235 -254 235 -254 156.5 -230.5 c 128,-1,67
 78 -207 78 -207 46 -168 c 128,-1,68
 14 -129 14 -129 14 -83 c 0,69,70
 14 -19 14 -19 52.5 17.5 c 128,-1,71
 91 54 91 54 147 54 c 0,72,73
 165 54 165 54 185 31 c 128,-1,74
 205 8 205 8 235.5 -22.5 c 128,-1,75
 266 -53 266 -53 314 -75.5 c 128,-1,76
 362 -98 362 -98 435 -98 c 0,77,78
 516 -98 516 -98 563.5 -78 c 128,-1,79
 611 -58 611 -58 631.5 -26 c 128,-1,80
 652 6 652 6 652 42 c 0,81,82
 652 94 652 94 612 121.5 c 128,-1,83
 572 149 572 149 508 166.5 c 128,-1,84
 444 184 444 184 373 202 c 128,-1,85
 302 220 302 220 238.5 250.5 c 128,-1,86
 175 281 175 281 134.5 334.5 c 128,-1,87
 94 388 94 388 94 478 c 0,88,89
 94 627 94 627 205 716 c 0,90,91
 292 786 292 786 451 807 c 1,22,23
EndSplineSet
EndChar

StartChar: copyright
Encoding: 169 169 107
Width: 1659
GlyphClass: 1
Flags: MW
LayerCount: 2
Fore
SplineSet
969 1421 m 0,0,1
 1169 1421 1169 1421 1312 1354 c 128,-1,2
 1455 1287 1455 1287 1531 1161 c 128,-1,3
 1607 1035 1607 1035 1607 857 c 0,4,5
 1607 682 1607 682 1554.5 523 c 128,-1,6
 1502 364 1502 364 1399.5 240.5 c 128,-1,7
 1297 117 1297 117 1148 46 c 128,-1,8
 999 -25 999 -25 807 -25 c 0,9,10
 607 -25 607 -25 464 41.5 c 128,-1,11
 321 108 321 108 245 234.5 c 128,-1,12
 169 361 169 361 169 539 c 0,13,14
 169 714 169 714 222 873 c 128,-1,15
 275 1032 275 1032 377 1155.5 c 128,-1,16
 479 1279 479 1279 628 1350 c 128,-1,17
 777 1421 777 1421 969 1421 c 0,0,1
814 86 m 0,18,19
 976 86 976 86 1101.5 147 c 128,-1,20
 1227 208 1227 208 1312.5 313.5 c 128,-1,21
 1398 419 1398 419 1442.5 554.5 c 128,-1,22
 1487 690 1487 690 1487 840 c 0,23,24
 1487 988 1487 988 1425.5 1093 c 128,-1,25
 1364 1198 1364 1198 1247 1254 c 128,-1,26
 1130 1310 1130 1310 962 1310 c 0,27,28
 800 1310 800 1310 674.5 1249 c 128,-1,29
 549 1188 549 1188 463.5 1082 c 128,-1,30
 378 976 378 976 334 840.5 c 128,-1,31
 290 705 290 705 290 556 c 0,32,33
 290 408 290 408 351 302.5 c 128,-1,34
 412 197 412 197 529 141.5 c 128,-1,35
 646 86 646 86 814 86 c 0,18,19
912 417 m 0,36,37
 949 417 949 417 988 426 c 0,38,39
 996 427 996 427 1005 430 c 1,40,-1
 1109 575 l 1,41,-1
 1185 575 l 1,42,-1
 1091 337 l 1,43,44
 1027 317 1027 317 970.5 307 c 128,-1,45
 914 297 914 297 844 297 c 0,46,47
 722 297 722 297 640 332.5 c 128,-1,48
 558 368 558 368 517 437 c 128,-1,49
 476 506 476 506 476 606 c 0,50,51
 476 709 476 709 509 800 c 128,-1,52
 542 891 542 891 610 960 c 128,-1,53
 678 1029 678 1029 780 1069 c 128,-1,54
 882 1109 882 1109 1016 1109 c 0,55,56
 1071 1109 1071 1109 1124 1100 c 0,57,58
 1159 1095 1159 1095 1191 1086 c 1,59,-1
 1240 1128 l 1,60,-1
 1302 1128 l 1,61,-1
 1220 812 l 1,62,-1
 1140 811 l 1,63,-1
 1130 957 l 1,64,65
 1114 964 1114 964 1097 970 c 0,66,67
 1056 982 1056 982 1001 982 c 0,68,69
 928 982 928 982 873 952 c 128,-1,70
 818 922 818 922 781 869.5 c 128,-1,71
 744 817 744 817 725.5 749.5 c 128,-1,72
 707 682 707 682 707 607 c 0,73,74
 707 512 707 512 758.5 464.5 c 128,-1,75
 810 417 810 417 912 417 c 0,36,37
EndSplineSet
EndChar

StartChar: ordfeminine
Encoding: 170 170 108
Width: 1038
GlyphClass: 1
Flags: MW
LayerCount: 2
Fore
SplineSet
694 905 m 2,0,-1
 757 1104 l 1,1,-1
 751 1104 l 1,2,3
 680 972 680 972 623.5 903.5 c 128,-1,4
 567 835 567 835 517.5 810.5 c 128,-1,5
 468 786 468 786 418 786 c 0,6,7
 344 786 344 786 294.5 832.5 c 128,-1,8
 245 879 245 879 245 973 c 0,9,10
 245 1064 245 1064 280 1160 c 128,-1,11
 315 1256 315 1256 374.5 1339 c 128,-1,12
 434 1422 434 1422 511 1473 c 128,-1,13
 588 1524 588 1524 672 1524 c 0,14,15
 737 1524 737 1524 777 1482 c 0,16,17
 803 1454 803 1454 823 1408 c 1,18,-1
 896 1508 l 1,19,-1
 1085 1508 l 2,20,21
 1086 1508 1086 1508 910 933 c 1,22,23
 920 934 920 934 930 936 c 0,24,25
 982 945 982 945 1053 981 c 1,26,-1
 1074 921 l 1,27,28
 1006 867 1006 867 954.5 838 c 128,-1,29
 903 809 903 809 860.5 797.5 c 128,-1,30
 818 786 818 786 775 786 c 0,31,32
 716 786 716 786 694 811 c 128,-1,33
 672 836 672 836 694 905 c 2,0,-1
165 492 m 1,34,-1
 214 661 l 1,35,-1
 922 661 l 1,36,-1
 875 492 l 1,37,-1
 165 492 l 1,34,-1
801 1355 m 1,38,39
 790 1373 790 1373 778 1382 c 0,40,41
 755 1401 755 1401 725 1401 c 0,42,43
 692 1401 692 1401 657.5 1373.5 c 128,-1,44
 623 1346 623 1346 591.5 1302 c 128,-1,45
 560 1258 560 1258 536 1205.5 c 128,-1,46
 512 1153 512 1153 498 1102.5 c 128,-1,47
 484 1052 484 1052 484 1012 c 0,48,49
 484 980 484 980 496.5 964.5 c 128,-1,50
 509 949 509 949 538 949 c 0,51,52
 564 949 564 949 593.5 973 c 128,-1,53
 623 997 623 997 654 1038 c 128,-1,54
 685 1079 685 1079 713 1132 c 128,-1,55
 741 1185 741 1185 761 1243 c 2,56,-1
 801 1355 l 1,38,39
EndSplineSet
EndChar

StartChar: guillemotleft
Encoding: 171 171 109
Width: 1164
GlyphClass: 1
Flags: MW
LayerCount: 2
Fore
SplineSet
837 472 m 1,0,-1
 968 87 l 1,1,-1
 831 13 l 1,2,-1
 540 410 l 1,3,-1
 592 590 l 1,4,-1
 1096 987 l 1,5,-1
 1191 862 l 1,6,-1
 837 472 l 1,0,-1
349 472 m 1,7,-1
 479 87 l 1,8,-1
 343 13 l 1,9,-1
 50 410 l 1,10,-1
 103 590 l 1,11,-1
 608 987 l 1,12,-1
 703 862 l 1,13,-1
 349 472 l 1,7,-1
EndSplineSet
Substitution2: "'case' Case-Sensitive Forms in Latin lookup 9 subtable" guillemotleft.case
EndChar

StartChar: logicalnot
Encoding: 172 172 110
Width: 1092
GlyphClass: 1
Flags: MW
LayerCount: 2
Fore
SplineSet
216 775 m 1,0,-1
 1016 775 l 1,1,-1
 855 217 l 1,2,-1
 688 217 l 1,3,-1
 798 595 l 1,4,-1
 163 595 l 1,5,-1
 216 775 l 1,0,-1
EndSplineSet
EndChar

StartChar: registered
Encoding: 174 174 112
Width: 1169
GlyphClass: 1
Flags: MW
LayerCount: 2
Fore
SplineSet
769 1421 m 0,0,1
 970 1421 970 1421 1081 1326.5 c 128,-1,2
 1192 1232 1192 1232 1192 1063 c 0,3,4
 1192 917 1192 917 1132.5 791.5 c 128,-1,5
 1073 666 1073 666 956 590 c 128,-1,6
 839 514 839 514 669 514 c 0,7,8
 468 514 468 514 356.5 608 c 128,-1,9
 245 702 245 702 245 871 c 0,10,11
 245 1018 245 1018 305.5 1143 c 128,-1,12
 366 1268 366 1268 482.5 1344.5 c 128,-1,13
 599 1421 599 1421 769 1421 c 0,0,1
678 606 m 0,14,15
 817 606 817 606 907.5 668.5 c 128,-1,16
 998 731 998 731 1043 832.5 c 128,-1,17
 1088 934 1088 934 1088 1051 c 0,18,19
 1088 1138 1088 1138 1051.5 1200 c 128,-1,20
 1015 1262 1015 1262 942 1295.5 c 128,-1,21
 869 1329 869 1329 760 1329 c 0,22,23
 622 1329 622 1329 530.5 1266 c 128,-1,24
 439 1203 439 1203 394.5 1102 c 128,-1,25
 350 1001 350 1001 350 883 c 0,26,27
 350 796 350 796 386.5 734 c 128,-1,28
 423 672 423 672 496 639 c 128,-1,29
 569 606 569 606 678 606 c 0,14,15
924 807 m 1,30,-1
 909 758 l 1,31,32
 843 751 843 751 808.5 754 c 128,-1,33
 774 757 774 757 762.5 774 c 128,-1,34
 751 791 751 791 753 825 c 2,35,-1
 757 894 l 2,36,37
 758 925 758 925 751 934 c 128,-1,38
 744 943 744 943 712 943 c 2,39,-1
 673 943 l 1,40,-1
 635 811 l 1,41,-1
 672 796 l 1,42,-1
 661 757 l 1,43,-1
 433 757 l 1,44,-1
 444 796 l 1,45,-1
 501 811 l 1,46,47
 500 811 500 811 598 1151 c 1,48,-1
 551 1166 l 1,49,-1
 562 1204 l 1,50,-1
 674 1204 l 1,51,-1
 749 1204 l 1,52,-1
 841 1204 l 2,53,54
 908 1204 908 1204 939.5 1180 c 128,-1,55
 971 1156 971 1156 971 1110 c 0,56,57
 971 1051 971 1051 932 1015 c 0,58,59
 897 983 897 983 830 975 c 1,60,61
 863 971 863 971 876 956 c 0,62,63
 892 938 892 938 890 898 c 2,64,-1
 888 850 l 2,65,66
 887 821 887 821 893 814 c 128,-1,67
 899 807 899 807 924 807 c 1,30,-1
727 1127 m 1,68,-1
 692 1006 l 1,69,-1
 757 1006 l 2,70,71
 797 1006 797 1006 816 1029.5 c 128,-1,72
 835 1053 835 1053 835 1090 c 0,73,74
 835 1109 835 1109 824.5 1118 c 128,-1,75
 814 1127 814 1127 788 1127 c 2,76,-1
 727 1127 l 1,68,-1
EndSplineSet
EndChar

StartChar: degree
Encoding: 176 176 114
Width: 738
GlyphClass: 1
Flags: MW
LayerCount: 2
Fore
SplineSet
522 936 m 0,0,1
 583 936 583 936 626 965.5 c 128,-1,2
 669 995 669 995 691.5 1043.5 c 128,-1,3
 714 1092 714 1092 714 1148 c 0,4,5
 714 1219 714 1219 674 1259 c 128,-1,6
 634 1299 634 1299 562 1299 c 0,7,8
 501 1299 501 1299 458.5 1269.5 c 128,-1,9
 416 1240 416 1240 393 1192 c 128,-1,10
 370 1144 370 1144 370 1087 c 0,11,12
 370 1016 370 1016 410.5 976 c 128,-1,13
 451 936 451 936 522 936 c 0,0,1
576 1414 m 0,14,15
 692 1414 692 1414 763.5 1345.5 c 128,-1,16
 835 1277 835 1277 835 1163 c 0,17,18
 835 1071 835 1071 794.5 993 c 128,-1,19
 754 915 754 915 680.5 868 c 128,-1,20
 607 821 607 821 508 821 c 0,21,22
 393 821 393 821 321.5 890 c 128,-1,23
 250 959 250 959 250 1072 c 0,24,25
 250 1164 250 1164 290.5 1242 c 128,-1,26
 331 1320 331 1320 404 1367 c 128,-1,27
 477 1414 477 1414 576 1414 c 0,14,15
EndSplineSet
EndChar

StartChar: plusminus
Encoding: 177 177 115
Width: 1092
GlyphClass: 1
Flags: MW
LayerCount: 2
Fore
SplineSet
608 994 m 1,0,-1
 775 994 l 1,1,-1
 677 658 l 1,2,-1
 987 658 l 1,3,-1
 935 477 l 1,4,-1
 625 477 l 1,5,-1
 538 180 l 1,6,-1
 849 180 l 1,7,-1
 797 0 l 1,8,-1
 10 0 l 1,9,-1
 62 180 l 1,10,-1
 371 180 l 1,11,-1
 458 477 l 1,12,-1
 147 477 l 1,13,-1
 200 658 l 1,14,-1
 510 658 l 1,15,-1
 608 994 l 1,0,-1
EndSplineSet
EndChar

StartChar: uni00B2
Encoding: 178 178 116
Width: 757
GlyphClass: 1
Flags: MW
LayerCount: 2
Fore
SplineSet
420 838 m 1,0,-1
 670 838 l 1,1,-1
 759 928 l 1,2,-1
 830 928 l 1,3,-1
 684 612 l 1,4,-1
 636 612 l 1,5,-1
 602 645 l 1,6,-1
 151 645 l 1,7,-1
 183 754 l 1,8,-1
 393 916 l 2,9,10
 477 977 477 977 519.5 1018.5 c 128,-1,11
 562 1060 562 1060 577 1092 c 128,-1,12
 592 1124 592 1124 592 1155 c 0,13,14
 592 1196 592 1196 565 1218.5 c 128,-1,15
 538 1241 538 1241 487 1241 c 0,16,17
 430 1241 430 1241 391 1210 c 128,-1,18
 352 1179 352 1179 315 1105 c 1,19,-1
 238 1148 l 1,20,21
 277 1243 277 1243 325 1302 c 128,-1,22
 373 1361 373 1361 437 1388.5 c 128,-1,23
 501 1416 501 1416 586 1416 c 0,24,25
 696 1416 696 1416 760.5 1369.5 c 128,-1,26
 825 1323 825 1323 825 1234 c 0,27,28
 825 1191 825 1191 813 1152.5 c 128,-1,29
 801 1114 801 1114 769 1075 c 128,-1,30
 737 1036 737 1036 678 993 c 128,-1,31
 619 950 619 950 524 898 c 2,32,-1
 420 838 l 1,0,-1
EndSplineSet
EndChar

StartChar: uni00B3
Encoding: 179 179 117
Width: 714
GlyphClass: 1
Flags: MW
LayerCount: 2
Fore
SplineSet
387 966 m 1,0,-1
 390 1053 l 1,1,2
 473 1064 473 1064 516.5 1082.5 c 128,-1,3
 560 1101 560 1101 575 1127.5 c 128,-1,4
 590 1154 590 1154 590 1186 c 0,5,6
 590 1226 590 1226 566 1244.5 c 128,-1,7
 542 1263 542 1263 499 1263 c 0,8,9
 446 1263 446 1263 408 1235 c 128,-1,10
 370 1207 370 1207 340 1146 c 1,11,-1
 269 1186 l 1,12,13
 315 1296 315 1296 390.5 1355.5 c 128,-1,14
 466 1415 466 1415 601 1415 c 0,15,16
 704 1415 704 1415 749 1372.5 c 128,-1,17
 794 1330 794 1330 794 1264 c 0,18,19
 794 1219 794 1219 773.5 1181 c 128,-1,20
 753 1143 753 1143 707 1116 c 0,21,22
 669 1094 669 1094 610 1083 c 1,23,24
 680 1078 680 1078 722 1040 c 0,25,26
 770 996 770 996 770 923 c 0,27,28
 770 839 770 839 722.5 772.5 c 128,-1,29
 675 706 675 706 582.5 667.5 c 128,-1,30
 490 629 490 629 352 629 c 0,31,32
 227 629 227 629 182 661.5 c 128,-1,33
 137 694 137 694 137 733 c 128,-1,34
 137 772 137 772 158.5 797 c 128,-1,35
 180 822 180 822 221 822 c 0,36,37
 231 822 231 822 243.5 809 c 128,-1,38
 256 796 256 796 274 778 c 128,-1,39
 292 760 292 760 317.5 747 c 128,-1,40
 343 734 343 734 381 734 c 0,41,42
 422 734 422 734 454 745.5 c 128,-1,43
 486 757 486 757 509.5 778 c 128,-1,44
 533 799 533 799 545 828.5 c 128,-1,45
 557 858 557 858 557 894 c 0,46,47
 557 939 557 939 529 957.5 c 128,-1,48
 501 976 501 976 436 970 c 2,49,-1
 387 966 l 1,0,-1
EndSplineSet
EndChar

StartChar: uni00B5
Encoding: 181 181 119
Width: 1404
GlyphClass: 1
Flags: MW
LayerCount: 2
Fore
SplineSet
852 746 m 2,0,-1
 957 1071 l 1,1,-1
 1262 1071 l 1,2,-1
 1005 190 l 1,3,4
 1013 191 1013 191 1022 193 c 0,5,6
 1079 204 1079 204 1140.5 235 c 128,-1,7
 1202 266 1202 266 1271 318 c 1,8,-1
 1320 239 l 1,9,10
 1172 89 1172 89 1052.5 31 c 128,-1,11
 933 -27 933 -27 854 -27 c 0,12,13
 783 -27 783 -27 756.5 8 c 128,-1,14
 730 43 730 43 754 125 c 2,15,-1
 869 503 l 1,16,-1
 847 499 l 1,17,18
 772 333 772 333 713 228.5 c 128,-1,19
 654 124 654 124 602.5 68.5 c 128,-1,20
 551 13 551 13 499.5 -7 c 128,-1,21
 448 -27 448 -27 387 -27 c 0,22,23
 316 -27 316 -27 273 0 c 0,24,25
 238 23 238 23 220 58 c 1,26,-1
 171 -487 l 1,27,-1
 -46 -512 l 1,28,-1
 -92 -512 l 1,29,-1
 357 1071 l 1,30,-1
 662 1071 l 1,31,-1
 467 427 l 2,32,33
 449 367 449 367 441.5 333 c 128,-1,34
 434 299 434 299 434 278 c 0,35,36
 434 249 434 249 450 232 c 128,-1,37
 466 215 466 215 503 215 c 0,38,39
 539 215 539 215 580 240 c 128,-1,40
 621 265 621 265 665.5 324.5 c 128,-1,41
 710 384 710 384 756.5 487 c 128,-1,42
 803 590 803 590 852 746 c 2,0,-1
EndSplineSet
EndChar

StartChar: paragraph
Encoding: 182 182 120
Width: 1269
GlyphClass: 1
Flags: MW
LayerCount: 2
Fore
SplineSet
810 -228 m 1,0,-1
 670 -228 l 1,1,-1
 1102 1261 l 1,2,-1
 958 1261 l 1,3,-1
 525 -228 l 1,4,-1
 384 -228 l 1,5,-1
 639 649 l 1,6,-1
 498 649 l 2,7,8
 346 649 346 649 272.5 711.5 c 128,-1,9
 199 774 199 774 199 900 c 0,10,11
 199 994 199 994 226 1082 c 128,-1,12
 253 1170 253 1170 311.5 1241 c 128,-1,13
 370 1312 370 1312 463.5 1354 c 128,-1,14
 557 1396 557 1396 688 1396 c 2,15,-1
 856 1396 l 1,16,-1
 949 1396 l 1,17,-1
 1141 1396 l 1,18,-1
 1203 1396 l 1,19,-1
 1446 1396 l 1,20,-1
 1419 1305 l 2,21,22
 1418 1305 1418 1305 1244 1264 c 1,23,-1
 810 -228 l 1,0,-1
EndSplineSet
EndChar

StartChar: uni00B9
Encoding: 185 185 123
Width: 615
GlyphClass: 1
Flags: MW
LayerCount: 2
Fore
SplineSet
437 1213 m 1,0,-1
 265 1164 l 1,1,-1
 244 1250 l 1,2,-1
 562 1396 l 1,3,-1
 714 1396 l 1,4,-1
 524 743 l 1,5,-1
 622 710 l 1,6,-1
 603 645 l 1,7,-1
 162 645 l 1,8,-1
 180 710 l 1,9,-1
 301 743 l 1,10,-1
 437 1213 l 1,0,-1
EndSplineSet
EndChar

StartChar: ordmasculine
Encoding: 186 186 124
Width: 985
GlyphClass: 1
Flags: MW
LayerCount: 2
Fore
SplineSet
615 939 m 0,0,1
 661 939 661 939 698 968 c 128,-1,2
 735 997 735 997 761.5 1045 c 128,-1,3
 788 1093 788 1093 803 1151.5 c 128,-1,4
 818 1210 818 1210 818 1268 c 0,5,6
 818 1330 818 1330 793 1356 c 128,-1,7
 768 1382 768 1382 723 1382 c 0,8,9
 677 1382 677 1382 639 1353.5 c 128,-1,10
 601 1325 601 1325 574.5 1276.5 c 128,-1,11
 548 1228 548 1228 534 1169.5 c 128,-1,12
 520 1111 520 1111 520 1053 c 0,13,14
 520 991 520 991 545.5 965 c 128,-1,15
 571 939 571 939 615 939 c 0,0,1
748 1534 m 0,16,17
 896 1534 896 1534 971 1464 c 128,-1,18
 1046 1394 1046 1394 1046 1269 c 0,19,20
 1046 1175 1046 1175 1016.5 1088.5 c 128,-1,21
 987 1002 987 1002 929 934 c 128,-1,22
 871 866 871 866 785.5 826.5 c 128,-1,23
 700 787 700 787 589 787 c 0,24,25
 443 787 443 787 367 857 c 128,-1,26
 291 927 291 927 291 1052 c 0,27,28
 291 1146 291 1146 321 1232.5 c 128,-1,29
 351 1319 351 1319 408.5 1387 c 128,-1,30
 466 1455 466 1455 551.5 1494.5 c 128,-1,31
 637 1534 637 1534 748 1534 c 0,16,17
124 492 m 1,32,-1
 172 661 l 1,33,-1
 881 661 l 1,34,-1
 834 492 l 1,35,-1
 124 492 l 1,32,-1
EndSplineSet
EndChar

StartChar: guillemotright
Encoding: 187 187 125
Width: 1195
GlyphClass: 1
Flags: MW
LayerCount: 2
Fore
SplineSet
828 528 m 1,0,-1
 698 913 l 1,1,-1
 834 987 l 1,2,-1
 1126 590 l 1,3,-1
 1074 410 l 1,4,-1
 569 13 l 1,5,-1
 474 139 l 1,6,-1
 828 528 l 1,0,-1
339 527 m 1,7,-1
 209 913 l 1,8,-1
 345 987 l 1,9,-1
 637 590 l 1,10,-1
 585 410 l 1,11,-1
 80 13 l 1,12,-1
 -14 139 l 1,13,-1
 339 527 l 1,7,-1
EndSplineSet
Substitution2: "'case' Case-Sensitive Forms in Latin lookup 9 subtable" guillemotright.case
EndChar

StartChar: questiondown
Encoding: 191 191 129
Width: 1161
GlyphClass: 1
Flags: MW
LayerCount: 2
Fore
SplineSet
498 -434 m 0,0,1
 368 -434 368 -434 269 -401.5 c 128,-1,2
 170 -369 170 -369 103 -311 c 128,-1,3
 36 -253 36 -253 2 -176.5 c 128,-1,4
 -32 -100 -32 -100 -32 -14 c 0,5,6
 -32 113 -32 113 25 201 c 128,-1,7
 82 289 82 289 210 330 c 0,8,9
 315 364 315 364 477 360 c 1,10,-1
 547 511 l 1,11,-1
 715 511 l 1,12,-1
 645 155 l 1,13,14
 485 166 485 166 397 147 c 128,-1,15
 309 128 309 128 273.5 80 c 128,-1,16
 238 32 238 32 238 -46 c 0,17,18
 238 -106 238 -106 264 -153.5 c 128,-1,19
 290 -201 290 -201 340 -228 c 128,-1,20
 390 -255 390 -255 464 -255 c 0,21,22
 535 -255 535 -255 585.5 -232 c 128,-1,23
 636 -209 636 -209 669.5 -179 c 128,-1,24
 703 -149 703 -149 727.5 -126 c 128,-1,25
 752 -103 752 -103 771 -103 c 0,26,27
 828 -103 828 -103 864 -138 c 128,-1,28
 900 -173 900 -173 900 -229 c 0,29,30
 900 -288 900 -288 861.5 -334.5 c 128,-1,31
 823 -381 823 -381 735 -407.5 c 128,-1,32
 647 -434 647 -434 498 -434 c 0,0,1
668 659 m 0,33,34
 600 659 600 659 563.5 694 c 128,-1,35
 527 729 527 729 527 791 c 0,36,37
 527 850 527 850 552.5 900 c 128,-1,38
 578 950 578 950 628 980 c 128,-1,39
 678 1010 678 1010 754 1010 c 0,40,41
 823 1010 823 1010 859 974.5 c 128,-1,42
 895 939 895 939 895 878 c 0,43,44
 895 819 895 819 870.5 769 c 128,-1,45
 846 719 846 719 795.5 689 c 128,-1,46
 745 659 745 659 668 659 c 0,33,34
EndSplineSet
Substitution2: "'case' Case-Sensitive Forms in Latin lookup 9 subtable" questiondown.case
EndChar

StartChar: AE
Encoding: 198 198 136
Width: 2149
GlyphClass: 2
Flags: MW
AnchorPoint: "Anchor-4" 1005 0 basechar 0
LayerCount: 2
Fore
SplineSet
1595 470 m 1,0,-1
 1631 649 l 1,1,-1
 1357 649 l 1,2,-1
 1218 172 l 1,3,-1
 1698 172 l 1,4,-1
 1956 451 l 1,5,-1
 2086 444 l 1,6,-1
 1820 -84 l 1,7,-1
 1713 -84 l 1,8,-1
 1663 0 l 1,9,-1
 1168 0 l 1,10,-1
 1004 0 l 1,11,-1
 691 0 l 1,12,-1
 716 89 l 1,13,-1
 881 142 l 1,14,-1
 971 451 l 1,15,-1
 515 451 l 1,16,-1
 242 139 l 1,17,-1
 384 89 l 1,18,-1
 358 0 l 1,19,-1
 -152 0 l 1,20,-1
 -125 89 l 1,21,-1
 28 139 l 1,22,-1
 998 1243 l 1,23,-1
 808 1307 l 1,24,-1
 833 1396 l 1,25,-1
 1409 1396 l 1,26,-1
 1574 1396 l 1,27,-1
 2059 1396 l 1,28,-1
 2177 1475 l 1,29,-1
 2270 1475 l 1,30,-1
 2163 997 l 1,31,-1
 2032 997 l 1,32,-1
 2024 1223 l 1,33,-1
 1524 1223 l 1,34,-1
 1403 808 l 1,35,-1
 1677 808 l 1,36,-1
 1744 984 l 1,37,-1
 1872 984 l 1,38,-1
 1797 727 l 1,39,-1
 1723 470 l 1,40,-1
 1595 470 l 1,0,-1
661 618 m 1,41,-1
 1020 618 l 1,42,-1
 1201 1235 l 1,43,-1
 661 618 l 1,41,-1
EndSplineSet
EndChar

StartChar: Ccedilla
Encoding: 199 199 137
Width: 1437
GlyphClass: 1
Flags: MW
LayerCount: 2
Fore
SplineSet
561 -395 m 0,0,1
 613 -395 613 -395 639.5 -371.5 c 128,-1,2
 666 -348 666 -348 666 -309 c 0,3,4
 666 -279 666 -279 630 -258.5 c 128,-1,5
 594 -238 594 -238 485 -223 c 1,6,-1
 494 -194 l 1,7,-1
 662 -20 l 1,8,9
 518 -7 518 -7 416 46 c 0,10,11
 279 117 279 117 212.5 245 c 128,-1,12
 146 373 146 373 146 542 c 0,13,14
 146 694 146 694 184.5 827.5 c 128,-1,15
 223 961 223 961 299.5 1070 c 128,-1,16
 376 1179 376 1179 488.5 1257.5 c 128,-1,17
 601 1336 601 1336 750 1378.5 c 128,-1,18
 899 1421 899 1421 1081 1421 c 0,19,20
 1148 1421 1148 1421 1208 1414 c 128,-1,21
 1268 1407 1268 1407 1322 1394 c 0,22,23
 1323 1393 1323 1393 1324 1393 c 2,24,-1
 1417 1476 l 1,25,-1
 1519 1476 l 1,26,-1
 1433 922 l 1,27,-1
 1291 922 l 2,28,29
 1290 922 1290 922 1257 1194 c 1,30,31
 1230 1207 1230 1207 1200 1216 c 0,32,33
 1138 1233 1138 1233 1062 1233 c 0,34,35
 945 1233 945 1233 851 1201.5 c 128,-1,36
 757 1170 757 1170 686.5 1110.5 c 128,-1,37
 616 1051 616 1051 568.5 968 c 128,-1,38
 521 885 521 885 496.5 782 c 128,-1,39
 472 679 472 679 472 559 c 0,40,41
 472 421 472 421 517 331 c 128,-1,42
 562 241 562 241 647.5 197 c 128,-1,43
 733 153 733 153 854 153 c 0,44,45
 912 153 912 153 983 167 c 0,46,47
 995 169 995 169 1008 172 c 1,48,-1
 1217 449 l 1,49,-1
 1356 449 l 1,50,-1
 1200 42 l 1,51,52
 1113 13 1113 13 1004 -6 c 0,53,54
 897 -25 897 -25 766 -25 c 1,55,-1
 688 -105 l 1,56,57
 754 -124 754 -124 784 -153 c 0,58,59
 827 -195 827 -195 827 -250 c 0,60,61
 827 -315 827 -315 795 -367.5 c 128,-1,62
 763 -420 763 -420 694.5 -450.5 c 128,-1,63
 626 -481 626 -481 519 -481 c 0,64,65
 444 -481 444 -481 412.5 -461.5 c 128,-1,66
 381 -442 381 -442 381 -406 c 0,67,68
 381 -379 381 -379 396.5 -360 c 128,-1,69
 412 -341 412 -341 436 -341 c 0,70,71
 449 -341 449 -341 466 -354.5 c 128,-1,72
 483 -368 483 -368 505.5 -381.5 c 128,-1,73
 528 -395 528 -395 561 -395 c 0,0,1
EndSplineSet
EndChar

StartChar: multiply
Encoding: 215 215 153
Width: 1092
GlyphClass: 1
Flags: MW
LayerCount: 2
Fore
SplineSet
271 791 m 1,0,-1
 414 892 l 1,1,-1
 573 624 l 1,2,-1
 907 892 l 1,3,-1
 993 752 l 1,4,-1
 657 483 l 1,5,-1
 824 202 l 1,6,-1
 679 104 l 1,7,-1
 520 372 l 1,8,-1
 185 104 l 1,9,-1
 100 244 l 1,10,-1
 436 514 l 1,11,-1
 271 791 l 1,0,-1
EndSplineSet
EndChar

StartChar: Oslash
Encoding: 216 216 154
Width: 1608
GlyphClass: 2
Flags: MW
AnchorPoint: "Anchor-4" 673 0 basechar 0
LayerCount: 2
Fore
SplineSet
1574 872 m 0,0,1
 1574 724 1574 724 1535.5 590 c 128,-1,2
 1497 456 1497 456 1425 343.5 c 128,-1,3
 1353 231 1353 231 1251 148.5 c 128,-1,4
 1149 66 1149 66 1020 20.5 c 128,-1,5
 891 -25 891 -25 740 -25 c 0,6,7
 546 -25 546 -25 415 40 c 0,8,9
 355 70 355 70 309 111 c 1,10,-1
 181 0 l 1,11,-1
 -55 0 l 1,12,-1
 215 234 l 1,13,14
 152 355 152 355 152 524 c 0,15,16
 152 671 152 671 190 805.5 c 128,-1,17
 228 940 228 940 300.5 1052 c 128,-1,18
 373 1164 373 1164 475.5 1247 c 128,-1,19
 578 1330 578 1330 706.5 1375.5 c 128,-1,20
 835 1421 835 1421 985 1421 c 0,21,22
 1181 1421 1181 1421 1312 1356 c 0,23,24
 1370 1326 1370 1326 1416 1285 c 1,25,-1
 1545 1396 l 1,26,-1
 1781 1396 l 1,27,-1
 1511 1162 l 1,28,29
 1574 1041 1574 1041 1574 872 c 0,0,1
468 441 m 1,30,-1
 1214 1112 l 1,31,32
 1203 1132 1203 1132 1188 1149 c 0,33,34
 1118 1229 1118 1229 978 1229 c 0,35,36
 898 1229 898 1229 829.5 1200.5 c 128,-1,37
 761 1172 761 1172 704.5 1120 c 128,-1,38
 648 1068 648 1068 604 998 c 128,-1,39
 560 928 560 928 529.5 844.5 c 128,-1,40
 499 761 499 761 483 669.5 c 128,-1,41
 467 578 467 578 467 484 c 0,42,43
 467 462 467 462 468 441 c 1,30,-1
511 283 m 1,44,45
 522 263 522 263 536 246 c 0,46,47
 606 166 606 166 747 166 c 0,48,49
 827 166 827 166 895.5 194.5 c 128,-1,50
 964 223 964 223 1021 275 c 128,-1,51
 1078 327 1078 327 1122.5 397.5 c 128,-1,52
 1167 468 1167 468 1196.5 551.5 c 128,-1,53
 1226 635 1226 635 1242 726.5 c 128,-1,54
 1258 818 1258 818 1258 912 c 0,55,56
 1258 934 1258 934 1257 955 c 1,57,-1
 511 283 l 1,44,45
EndSplineSet
EndChar

StartChar: Thorn
Encoding: 222 222 160
Width: 1376
GlyphClass: 1
Flags: MW
LayerCount: 2
Fore
SplineSet
466 1256 m 1,0,-1
 317 1307 l 1,1,-1
 343 1396 l 1,2,-1
 982 1396 l 1,3,-1
 958 1307 l 1,4,-1
 793 1253 l 1,5,-1
 758 1135 l 1,6,-1
 911 1135 l 2,7,8
 1076 1135 1076 1135 1175.5 1094.5 c 128,-1,9
 1275 1054 1275 1054 1319 979.5 c 128,-1,10
 1363 905 1363 905 1363 803 c 0,11,12
 1363 696 1363 696 1328 601 c 128,-1,13
 1293 506 1293 506 1220.5 434 c 128,-1,14
 1148 362 1148 362 1036.5 321 c 128,-1,15
 925 280 925 280 772 280 c 2,16,-1
 508 280 l 1,17,-1
 467 139 l 1,18,-1
 616 89 l 1,19,-1
 591 0 l 1,20,-1
 -49 0 l 1,21,-1
 -24 89 l 1,22,-1
 141 142 l 1,23,-1
 466 1256 l 1,0,-1
763 452 m 2,24,25
 836 452 836 452 890 480 c 128,-1,26
 944 508 944 508 980 556.5 c 128,-1,27
 1016 605 1016 605 1033.5 667.5 c 128,-1,28
 1051 730 1051 730 1051 798 c 0,29,30
 1051 852 1051 852 1028.5 889 c 128,-1,31
 1006 926 1006 926 957 944.5 c 128,-1,32
 908 963 908 963 827 963 c 2,33,-1
 708 963 l 1,34,-1
 559 452 l 1,35,-1
 763 452 l 2,24,25
EndSplineSet
EndChar

StartChar: germandbls
Encoding: 223 223 161
Width: 1504
GlyphClass: 1
Flags: MW
LayerCount: 2
Fore
SplineSet
543 336 m 2,0,1
 497 105 497 105 431.5 -58 c 128,-1,2
 366 -221 366 -221 284 -323.5 c 128,-1,3
 202 -426 202 -426 106.5 -472.5 c 128,-1,4
 11 -519 11 -519 -95 -519 c 0,5,6
 -224 -519 -224 -519 -279 -468 c 128,-1,7
 -334 -417 -334 -417 -334 -325 c 0,8,9
 -334 -250 -334 -250 -287 -210.5 c 128,-1,10
 -240 -171 -240 -171 -142 -171 c 1,11,12
 -135 -225 -135 -225 -125.5 -262 c 128,-1,13
 -116 -299 -116 -299 -97 -326 c 128,-1,14
 -78 -353 -78 -353 -57 -362.5 c 128,-1,15
 -36 -372 -36 -372 -9 -372 c 0,16,17
 27 -372 27 -372 57.5 -356.5 c 128,-1,18
 88 -341 88 -341 114 -306 c 128,-1,19
 140 -271 140 -271 160 -211.5 c 128,-1,20
 180 -152 180 -152 196 -65 c 2,21,-1
 364 922 l 1,22,-1
 124 922 l 1,23,-1
 128 1071 l 1,24,-1
 390 1071 l 1,25,26
 425 1231 425 1231 498 1341 c 0,27,28
 583 1467 583 1467 714.5 1529 c 128,-1,29
 846 1591 846 1591 1017 1591 c 0,30,31
 1157 1591 1157 1591 1243.5 1557 c 128,-1,32
 1330 1523 1330 1523 1368.5 1462.5 c 128,-1,33
 1407 1402 1407 1402 1407 1324 c 0,34,35
 1407 1238 1407 1238 1365.5 1174.5 c 128,-1,36
 1324 1111 1324 1111 1224 1053 c 0,37,38
 1158 1014 1158 1014 1122 984 c 128,-1,39
 1086 954 1086 954 1074 927 c 128,-1,40
 1062 900 1062 900 1062 868 c 0,41,42
 1062 844 1062 844 1073.5 818.5 c 128,-1,43
 1085 793 1085 793 1116.5 760 c 128,-1,44
 1148 727 1148 727 1206 680 c 0,45,46
 1295 609 1295 609 1335 533.5 c 128,-1,47
 1375 458 1375 458 1375 368 c 0,48,49
 1375 246 1375 246 1323 157 c 128,-1,50
 1271 68 1271 68 1171.5 20.5 c 128,-1,51
 1072 -27 1072 -27 927 -27 c 0,52,53
 759 -27 759 -27 689.5 28 c 128,-1,54
 620 83 620 83 620 166 c 0,55,56
 620 216 620 216 638 248 c 128,-1,57
 656 280 656 280 700 296 c 128,-1,58
 744 312 744 312 820 312 c 1,59,60
 827 254 827 254 839 218.5 c 128,-1,61
 851 183 851 183 871 154 c 0,62,63
 891 127 891 127 915.5 117 c 128,-1,64
 940 107 940 107 972 107 c 0,65,66
 1022 107 1022 107 1057 124 c 128,-1,67
 1092 141 1092 141 1111 177.5 c 128,-1,68
 1130 214 1130 214 1130 270 c 0,69,70
 1130 323 1130 323 1098.5 370.5 c 128,-1,71
 1067 418 1067 418 976 484 c 128,-1,72
 885 550 885 550 849.5 612 c 128,-1,73
 814 674 814 674 814 746 c 0,74,75
 814 799 814 799 830 846 c 128,-1,76
 846 893 846 893 883 940 c 128,-1,77
 920 987 920 987 983 1039 c 0,78,79
 1046 1090 1046 1090 1081 1132.5 c 128,-1,80
 1116 1175 1116 1175 1130.5 1216.5 c 128,-1,81
 1145 1258 1145 1258 1145 1304 c 0,82,83
 1145 1371 1145 1371 1105 1410 c 128,-1,84
 1065 1449 1065 1449 971 1449 c 0,85,86
 893 1449 893 1449 841 1421.5 c 128,-1,87
 789 1394 789 1394 757.5 1332 c 128,-1,88
 726 1270 726 1270 706 1166 c 2,89,-1
 543 336 l 2,0,1
EndSplineSet
EndChar

StartChar: ae
Encoding: 230 230 168
Width: 1795
GlyphClass: 2
Flags: MW
AnchorPoint: "Anchor-4" 741 0 basechar 0
AnchorPoint: "Anchor-0" 1066 1071 basechar 0
LayerCount: 2
Fore
SplineSet
887 841 m 1,0,1
 868 874 868 874 844 891 c 0,2,3
 806 920 806 920 754 920 c 0,4,5
 693 920 693 920 633.5 876.5 c 128,-1,6
 574 833 574 833 520 761 c 128,-1,7
 466 689 466 689 424.5 604 c 128,-1,8
 383 519 383 519 358.5 436.5 c 128,-1,9
 334 354 334 354 334 291 c 0,10,11
 334 238 334 238 360 212.5 c 128,-1,12
 386 187 386 187 432 187 c 0,13,14
 475 187 475 187 531.5 232.5 c 128,-1,15
 588 278 588 278 646 354 c 128,-1,16
 704 430 704 430 755 523 c 128,-1,17
 806 616 806 616 840 710 c 2,18,-1
 887 841 l 1,0,1
917 913 m 1,19,-1
 1025 1071 l 1,20,-1
 1196 1071 l 1,21,-1
 1159 916 l 1,22,23
 1222 995 1222 995 1306 1044 c 0,24,25
 1396 1098 1396 1098 1523 1098 c 0,26,27
 1613 1098 1613 1098 1667.5 1063.5 c 128,-1,28
 1722 1029 1722 1029 1747.5 971 c 128,-1,29
 1773 913 1773 913 1773 841 c 0,30,31
 1773 785 1773 785 1757 727 c 0,32,33
 1740 669 1740 669 1712 616 c 1,34,35
 1628 590 1628 590 1541.5 568 c 128,-1,36
 1455 546 1455 546 1367.5 528.5 c 128,-1,37
 1280 511 1280 511 1195 496 c 0,38,39
 1148 488 1148 488 1102 481 c 1,40,41
 1101 459 1101 459 1101 436 c 0,42,43
 1101 301 1101 301 1144.5 248 c 128,-1,44
 1188 195 1188 195 1290 195 c 0,45,46
 1351 195 1351 195 1403 213.5 c 128,-1,47
 1455 232 1455 232 1502.5 274 c 128,-1,48
 1550 316 1550 316 1592 387 c 1,49,-1
 1685 387 l 1,50,51
 1620 230 1620 230 1542.5 140 c 128,-1,52
 1465 50 1465 50 1373.5 11.5 c 128,-1,53
 1282 -27 1282 -27 1175 -27 c 0,54,55
 1039 -27 1039 -27 953 32.5 c 128,-1,56
 867 92 867 92 835.5 207 c 128,-1,57
 804 322 804 322 828 487 c 1,58,-1
 812 483 l 1,59,60
 721 322 721 322 649.5 221.5 c 128,-1,61
 578 121 578 121 517.5 67 c 128,-1,62
 457 13 457 13 402 -7 c 128,-1,63
 347 -27 347 -27 290 -27 c 0,64,65
 219 -27 219 -27 160 4 c 128,-1,66
 101 35 101 35 65 96.5 c 128,-1,67
 29 158 29 158 29 252 c 0,68,69
 29 360 29 360 64.5 477 c 128,-1,70
 100 594 100 594 162 704 c 128,-1,71
 224 814 224 814 307 902.5 c 128,-1,72
 390 991 390 991 485.5 1043.5 c 128,-1,73
 581 1096 581 1096 682 1096 c 0,74,75
 780 1096 780 1096 842 1036 c 0,76,77
 887 991 887 991 917 913 c 1,19,-1
1114 595 m 1,78,79
 1200 616 1200 616 1262 633 c 0,80,81
 1350 658 1350 658 1402 680.5 c 128,-1,82
 1454 703 1454 703 1479 727 c 128,-1,83
 1504 751 1504 751 1511.5 779.5 c 128,-1,84
 1519 808 1519 808 1519 845 c 0,85,86
 1519 881 1519 881 1507 906 c 128,-1,87
 1495 931 1495 931 1471.5 944.5 c 128,-1,88
 1448 958 1448 958 1412 958 c 0,89,90
 1363 958 1363 958 1317 934 c 128,-1,91
 1271 910 1271 910 1232 865.5 c 128,-1,92
 1193 821 1193 821 1163 756.5 c 128,-1,93
 1133 692 1133 692 1117 612 c 0,94,95
 1115 603 1115 603 1114 595 c 1,78,79
EndSplineSet
EndChar

StartChar: eth
Encoding: 240 240 178
Width: 1166
GlyphClass: 1
Flags: MW
LayerCount: 2
Fore
SplineSet
485 1097 m 1,0,-1
 431 1204 l 1,1,-1
 634 1331 l 1,2,3
 625 1337 625 1337 616 1342 c 0,4,5
 508 1404 508 1404 334 1446 c 1,6,-1
 369 1591 l 1,7,8
 587 1559 587 1559 732 1486 c 0,9,10
 774 1465 774 1465 810 1441 c 1,11,-1
 1036 1583 l 1,12,-1
 1090 1476 l 1,13,-1
 910 1363 l 1,14,15
 939 1336 939 1336 962 1306 c 0,16,17
 1047 1201 1047 1201 1081 1072 c 0,18,19
 1116 944 1116 944 1112 800 c 0,20,21
 1108 629 1108 629 1062 479 c 128,-1,22
 1016 329 1016 329 933 215.5 c 128,-1,23
 850 102 850 102 733.5 37.5 c 128,-1,24
 617 -27 617 -27 469 -27 c 0,25,26
 330 -27 330 -27 240.5 22.5 c 128,-1,27
 151 72 151 72 107.5 159.5 c 128,-1,28
 64 247 64 247 64 359 c 0,29,30
 64 502 64 502 103.5 625 c 128,-1,31
 143 748 143 748 214 841.5 c 128,-1,32
 285 935 285 935 378 988 c 128,-1,33
 471 1041 471 1041 579 1041 c 0,34,35
 680 1041 680 1041 740 997 c 128,-1,36
 800 953 800 953 826 876 c 0,37,38
 827 872 827 872 828 869 c 1,39,40
 831 913 831 913 830 954 c 0,41,42
 827 1091 827 1091 776 1186 c 0,43,44
 757 1221 757 1221 730 1251 c 1,45,-1
 485 1097 l 1,0,-1
485 156 m 0,46,47
 541 156 541 156 589 188.5 c 128,-1,48
 637 221 637 221 675 278 c 128,-1,49
 713 335 713 335 741 407.5 c 128,-1,50
 769 480 769 480 783 558.5 c 128,-1,51
 797 637 797 637 797 713 c 0,52,53
 797 798 797 798 765 837.5 c 128,-1,54
 733 877 733 877 672 877 c 0,55,56
 616 877 616 877 568 843.5 c 128,-1,57
 520 810 520 810 482 753.5 c 128,-1,58
 444 697 444 697 416.5 625 c 128,-1,59
 389 553 389 553 374 474 c 128,-1,60
 359 395 359 395 359 319 c 0,61,62
 359 235 359 235 390.5 195.5 c 128,-1,63
 422 156 422 156 485 156 c 0,46,47
EndSplineSet
EndChar

StartChar: divide
Encoding: 247 247 185
Width: 1092
GlyphClass: 1
Flags: MW
LayerCount: 2
Fore
SplineSet
464 285 m 0,0,1
 521 285 521 285 552.5 251.5 c 128,-1,2
 584 218 584 218 584 163 c 0,3,4
 584 97 584 97 541 48 c 128,-1,5
 498 -1 498 -1 423 -1 c 0,6,7
 366 -1 366 -1 334 32.5 c 128,-1,8
 302 66 302 66 302 120 c 0,9,10
 302 187 302 187 346 236 c 128,-1,11
 390 285 390 285 464 285 c 0,0,1
672 997 m 0,12,13
 728 997 728 997 759.5 964 c 128,-1,14
 791 931 791 931 791 876 c 0,15,16
 791 809 791 809 748 760.5 c 128,-1,17
 705 712 705 712 630 712 c 0,18,19
 573 712 573 712 541 745.5 c 128,-1,20
 509 779 509 779 509 833 c 0,21,22
 509 900 509 900 553 948.5 c 128,-1,23
 597 997 597 997 672 997 c 0,12,13
179 588 m 1,24,-1
 967 588 l 1,25,-1
 914 408 l 1,26,-1
 126 408 l 1,27,-1
 179 588 l 1,24,-1
EndSplineSet
EndChar

StartChar: oslash
Encoding: 248 248 186
Width: 1200
GlyphClass: 2
Flags: MW
AnchorPoint: "Anchor-4" 457 0 basechar 0
AnchorPoint: "Anchor-0" 732 1071 basechar 0
LayerCount: 2
Fore
SplineSet
1093 1071 m 1,0,-1
 1274 1071 l 1,1,-1
 1075 891 l 1,2,3
 1114 803 1114 803 1114 691 c 0,4,5
 1114 550 1114 550 1071 421 c 128,-1,6
 1028 292 1028 292 947 191 c 128,-1,7
 866 90 866 90 751.5 31.5 c 128,-1,8
 637 -27 637 -27 495 -27 c 0,9,10
 355 -27 355 -27 265 26 c 0,11,12
 226 49 226 49 196 79 c 1,13,-1
 108 0 l 1,14,-1
 -71 0 l 1,15,-1
 127 181 l 1,16,17
 88 270 88 270 88 380 c 0,18,19
 88 520 88 520 131 650 c 128,-1,20
 174 780 174 780 255 881 c 128,-1,21
 336 982 336 982 451 1040 c 128,-1,22
 566 1098 566 1098 707 1098 c 0,23,24
 847 1098 847 1098 938 1046 c 0,25,26
 977 1023 977 1023 1007 992 c 1,27,-1
 1093 1071 l 1,0,-1
508 157 m 0,28,29
 564 157 564 157 611.5 192 c 128,-1,30
 659 227 659 227 698 286.5 c 128,-1,31
 737 346 737 346 764 422 c 128,-1,32
 791 498 791 498 806 580 c 0,33,34
 815 627 815 627 818 673 c 1,35,-1
 392 244 l 1,36,37
 400 216 400 216 414 198 c 0,38,39
 446 157 446 157 508 157 c 0,28,29
385 399 m 1,40,-1
 811 827 l 1,41,42
 803 855 803 855 789 872 c 0,43,44
 758 914 758 914 694 914 c 0,45,46
 639 914 639 914 590.5 879.5 c 128,-1,47
 542 845 542 845 504 785 c 128,-1,48
 466 725 466 725 438.5 649 c 128,-1,49
 411 573 411 573 396 491 c 0,50,51
 388 445 388 445 385 399 c 1,40,-1
EndSplineSet
EndChar

StartChar: thorn
Encoding: 254 254 192
Width: 1210
GlyphClass: 1
Flags: MW
LayerCount: 2
Fore
SplineSet
416 673 m 1,0,-1
 433 675 l 1,1,2
 507 825 507 825 580 918.5 c 128,-1,3
 653 1012 653 1012 728.5 1055 c 128,-1,4
 804 1098 804 1098 884 1098 c 0,5,6
 1018 1098 1018 1098 1089 1007 c 128,-1,7
 1160 916 1160 916 1160 766 c 0,8,9
 1160 644 1160 644 1128.5 527.5 c 128,-1,10
 1097 411 1097 411 1038.5 311 c 128,-1,11
 980 211 980 211 901 134.5 c 128,-1,12
 822 58 822 58 726.5 15.5 c 128,-1,13
 631 -27 631 -27 524 -27 c 0,14,15
 404 -27 404 -27 324 18 c 0,16,17
 324 19 324 19 323 19 c 2,18,-1
 223 -359 l 1,19,-1
 382 -401 l 1,20,-1
 356 -492 l 1,21,-1
 -229 -492 l 1,22,-1
 -205 -402 l 1,23,-1
 -73 -360 l 1,24,-1
 369 1298 l 1,25,26
 351 1312 351 1312 320 1333 c 128,-1,27
 289 1354 289 1354 254 1377 c 128,-1,28
 219 1400 219 1400 192 1417 c 1,29,-1
 211 1503 l 1,30,-1
 681 1591 l 1,31,-1
 729 1591 l 1,32,-1
 416 673 l 1,0,-1
386 334 m 2,33,34
 378 303 378 303 375 282 c 128,-1,35
 372 261 372 261 372 245 c 0,36,37
 372 187 372 187 406.5 150 c 128,-1,38
 441 113 441 113 507 113 c 0,39,40
 558 113 558 113 607 147 c 128,-1,41
 656 181 656 181 699 240 c 128,-1,42
 742 299 742 299 774 375 c 128,-1,43
 806 451 806 451 824 536.5 c 128,-1,44
 842 622 842 622 842 707 c 0,45,46
 842 791 842 791 815 829.5 c 128,-1,47
 788 868 788 868 736 868 c 0,48,49
 700 868 700 868 660.5 844 c 128,-1,50
 621 820 621 820 583.5 777.5 c 128,-1,51
 546 735 546 735 513 682 c 128,-1,52
 480 629 480 629 454 570.5 c 128,-1,53
 428 512 428 512 415 455 c 2,54,-1
 386 334 l 2,33,34
EndSplineSet
EndChar

StartChar: Aogonek
Encoding: 260 260 198
Width: 1560
GlyphClass: 1
Flags: MW
LayerCount: 2
Fore
SplineSet
1018 -283 m 0,0,1
 1018 -317 1018 -317 1037 -334.5 c 128,-1,2
 1056 -352 1056 -352 1095 -352 c 0,3,4
 1123 -352 1123 -352 1149.5 -343.5 c 128,-1,5
 1176 -335 1176 -335 1217 -313 c 1,6,-1
 1223 -389 l 1,7,8
 1152 -441 1152 -441 1101.5 -461 c 128,-1,9
 1051 -481 1051 -481 999 -481 c 0,10,11
 926 -481 926 -481 891.5 -440.5 c 128,-1,12
 857 -400 857 -400 857 -342 c 0,13,14
 857 -304 857 -304 870 -266.5 c 128,-1,15
 883 -229 883 -229 919 -180 c 128,-1,16
 955 -131 955 -131 1026 -57 c 2,17,-1
 1081 0 l 1,18,-1
 788 0 l 1,19,-1
 815 89 l 1,20,-1
 983 140 l 1,21,-1
 961 435 l 1,22,-1
 437 435 l 1,23,-1
 256 139 l 1,24,-1
 397 89 l 1,25,-1
 371 0 l 2,26,27
 370 0 370 0 -124 0 c 1,28,-1
 -97 89 l 1,29,-1
 56 139 l 1,30,-1
 850 1405 l 1,31,-1
 1192 1405 l 1,32,-1
 1309 142 l 1,33,-1
 1457 89 l 1,34,-1
 1431 0 l 1,35,-1
 1174 0 l 1,36,-1
 1117 -78 l 2,37,38
 1075 -133 1075 -133 1054.5 -170 c 128,-1,39
 1034 -207 1034 -207 1026 -233 c 128,-1,40
 1018 -259 1018 -259 1018 -283 c 0,0,1
903 1196 m 1,41,-1
 539 602 l 1,42,-1
 948 602 l 1,43,-1
 903 1196 l 1,41,-1
EndSplineSet
EndChar

StartChar: Dcroat
Encoding: 272 272 210
Width: 1561
GlyphClass: 1
Flags: MW
LayerCount: 2
Fore
SplineSet
470 1256 m 1,0,-1
 321 1307 l 1,1,-1
 347 1396 l 1,2,-1
 660 1396 l 1,3,-1
 838 1396 l 1,4,-1
 937 1396 l 2,5,6
 1159 1396 1159 1396 1291 1333.5 c 128,-1,7
 1423 1271 1423 1271 1481 1157.5 c 128,-1,8
 1539 1044 1539 1044 1539 892 c 0,9,10
 1539 689 1539 689 1476 524.5 c 128,-1,11
 1413 360 1413 360 1293.5 243 c 128,-1,12
 1174 126 1174 126 1006 63 c 128,-1,13
 838 0 838 0 628 0 c 2,14,-1
 431 0 l 1,15,-1
 255 0 l 1,16,-1
 -46 0 l 1,17,-1
 -20 89 l 1,18,-1
 144 142 l 1,19,-1
 285 624 l 1,20,-1
 135 624 l 1,21,-1
 182 787 l 1,22,-1
 333 787 l 1,23,-1
 470 1256 l 1,0,-1
644 172 m 2,24,25
 755 172 755 172 845.5 214.5 c 128,-1,26
 936 257 936 257 1005 330.5 c 128,-1,27
 1074 404 1074 404 1121 499 c 128,-1,28
 1168 594 1168 594 1191.5 701.5 c 128,-1,29
 1215 809 1215 809 1215 918 c 0,30,31
 1215 1015 1215 1015 1180.5 1083 c 128,-1,32
 1146 1151 1146 1151 1073 1187 c 128,-1,33
 1000 1223 1000 1223 884 1223 c 2,34,-1
 788 1223 l 1,35,-1
 660 787 l 1,36,-1
 919 787 l 1,37,-1
 871 624 l 1,38,-1
 613 624 l 1,39,-1
 481 172 l 1,40,-1
 644 172 l 2,24,25
EndSplineSet
EndChar

StartChar: dcroat
Encoding: 273 273 211
Width: 1313
GlyphClass: 1
Flags: MW
LayerCount: 2
Fore
SplineSet
726 1202 m 1,0,-1
 762 1334 l 1,1,-1
 1038 1334 l 1,2,-1
 1047 1364 l 1,3,4
 1040 1372 1040 1372 1031 1378.5 c 128,-1,5
 1022 1385 1022 1385 1012 1392.5 c 128,-1,6
 1002 1400 1002 1400 991 1407.5 c 128,-1,7
 980 1415 980 1415 969 1422 c 128,-1,8
 958 1429 958 1429 947.5 1436 c 128,-1,9
 937 1443 937 1443 925 1448 c 1,10,-1
 946 1535 l 1,11,-1
 1366 1591 l 1,12,-1
 1414 1591 l 1,13,-1
 1335 1334 l 1,14,-1
 1512 1334 l 1,15,-1
 1476 1202 l 1,16,-1
 1294 1202 l 1,17,-1
 981 188 l 1,18,19
 995 190 995 190 1008 192 c 0,20,21
 1066 202 1066 202 1125 230.5 c 128,-1,22
 1184 259 1184 259 1250 312 c 1,23,-1
 1298 235 l 1,24,25
 1152 84 1152 84 1033 28.5 c 128,-1,26
 914 -27 914 -27 822 -27 c 0,27,28
 735 -27 735 -27 705 6 c 128,-1,29
 675 39 675 39 704 122 c 2,30,-1
 826 483 l 1,31,-1
 811 483 l 1,32,33
 719 322 719 322 647.5 221 c 128,-1,34
 576 120 576 120 515.5 66 c 128,-1,35
 455 12 455 12 400.5 -7.5 c 128,-1,36
 346 -27 346 -27 290 -27 c 0,37,38
 220 -27 220 -27 160.5 4 c 128,-1,39
 101 35 101 35 65 96.5 c 128,-1,40
 29 158 29 158 29 252 c 0,41,42
 29 361 29 361 64.5 478 c 128,-1,43
 100 595 100 595 162 705 c 128,-1,44
 224 815 224 815 307 904 c 128,-1,45
 390 993 390 993 485 1045 c 128,-1,46
 580 1097 580 1097 682 1097 c 0,47,48
 780 1097 780 1097 841 1037 c 0,49,50
 883 995 883 995 912 923 c 1,51,-1
 998 1202 l 1,52,-1
 726 1202 l 1,0,-1
887 841 m 1,53,54
 867 875 867 875 844 892 c 0,55,56
 805 921 805 921 753 921 c 0,57,58
 692 921 692 921 632.5 877.5 c 128,-1,59
 573 834 573 834 519 761.5 c 128,-1,60
 465 689 465 689 423.5 605 c 128,-1,61
 382 521 382 521 358 437.5 c 128,-1,62
 334 354 334 354 334 291 c 0,63,64
 334 238 334 238 360 212.5 c 128,-1,65
 386 187 386 187 431 187 c 0,66,67
 467 187 467 187 513.5 218 c 128,-1,68
 560 249 560 249 609.5 304 c 128,-1,69
 659 359 659 359 707 431 c 128,-1,70
 755 503 755 503 795.5 586.5 c 128,-1,71
 836 670 836 670 861 755 c 2,72,-1
 887 841 l 1,53,54
EndSplineSet
EndChar

StartChar: Eogonek
Encoding: 280 280 218
Width: 1408
GlyphClass: 1
Flags: MW
LayerCount: 2
Fore
SplineSet
777 -283 m 0,0,1
 777 -317 777 -317 796 -334.5 c 128,-1,2
 815 -352 815 -352 854 -352 c 0,3,4
 882 -352 882 -352 908.5 -343.5 c 128,-1,5
 935 -335 935 -335 976 -313 c 1,6,-1
 981 -389 l 1,7,8
 910 -441 910 -441 859.5 -461 c 128,-1,9
 809 -481 809 -481 758 -481 c 0,10,11
 685 -481 685 -481 650.5 -440.5 c 128,-1,12
 616 -400 616 -400 616 -342 c 0,13,14
 616 -301 616 -301 628.5 -263.5 c 128,-1,15
 641 -226 641 -226 679.5 -178.5 c 128,-1,16
 718 -131 718 -131 796 -62 c 2,17,-1
 864 0 l 1,18,-1
 428 0 l 1,19,-1
 263 0 l 1,20,-1
 -49 0 l 1,21,-1
 -24 89 l 1,22,-1
 141 142 l 1,23,-1
 466 1256 l 1,24,-1
 317 1307 l 1,25,-1
 343 1396 l 1,26,-1
 669 1396 l 1,27,-1
 834 1396 l 1,28,-1
 1319 1396 l 1,29,-1
 1437 1475 l 2,30,31
 1438 1475 1438 1475 1530 1475 c 1,32,-1
 1423 997 l 1,33,-1
 1291 997 l 1,34,-1
 1283 1223 l 1,35,-1
 784 1223 l 1,36,-1
 663 808 l 1,37,-1
 937 808 l 1,38,-1
 1004 984 l 1,39,-1
 1131 984 l 1,40,-1
 1057 727 l 1,41,-1
 982 470 l 1,42,-1
 855 470 l 1,43,-1
 890 649 l 1,44,-1
 617 649 l 1,45,-1
 478 172 l 1,46,-1
 958 172 l 1,47,-1
 1216 451 l 1,48,-1
 1346 444 l 1,49,-1
 1079 -84 l 1,50,-1
 973 -84 l 1,51,-1
 937 -24 l 1,52,-1
 885 -85 l 2,53,54
 839 -139 839 -139 816 -174.5 c 128,-1,55
 793 -210 793 -210 785 -234.5 c 128,-1,56
 777 -259 777 -259 777 -283 c 0,0,1
EndSplineSet
EndChar

StartChar: Hbar
Encoding: 294 294 232
Width: 1694
GlyphClass: 1
Flags: MW
LayerCount: 2
Fore
SplineSet
1340 1256 m 1,0,-1
 1192 1307 l 1,1,-1
 1217 1396 l 1,2,-1
 1857 1396 l 1,3,-1
 1832 1307 l 1,4,-1
 1667 1253 l 1,5,-1
 1633 1136 l 1,6,-1
 1787 1136 l 1,7,-1
 1739 973 l 1,8,-1
 1585 973 l 1,9,-1
 1341 139 l 1,10,-1
 1491 89 l 1,11,-1
 1465 0 l 1,12,-1
 826 0 l 1,13,-1
 850 89 l 1,14,-1
 1016 142 l 1,15,-1
 1157 626 l 1,16,-1
 613 626 l 1,17,-1
 470 139 l 1,18,-1
 618 89 l 1,19,-1
 594 0 l 1,20,-1
 -48 0 l 1,21,-1
 -21 89 l 1,22,-1
 143 142 l 1,23,-1
 385 973 l 1,24,-1
 235 973 l 1,25,-1
 282 1136 l 1,26,-1
 433 1136 l 1,27,-1
 468 1256 l 1,28,-1
 320 1307 l 1,29,-1
 345 1396 l 1,30,-1
 985 1396 l 1,31,-1
 960 1307 l 1,32,-1
 796 1253 l 1,33,-1
 762 1136 l 1,34,-1
 1305 1136 l 1,35,-1
 1340 1256 l 1,0,-1
714 973 m 1,36,-1
 663 798 l 1,37,-1
 1207 798 l 1,38,-1
 1258 973 l 1,39,-1
 714 973 l 1,36,-1
EndSplineSet
EndChar

StartChar: hbar
Encoding: 295 295 233
Width: 1310
GlyphClass: 1
Flags: MW
LayerCount: 2
Fore
SplineSet
165 1202 m 1,0,-1
 200 1334 l 1,1,-1
 384 1334 l 1,2,-1
 392 1363 l 1,3,4
 380 1374 380 1374 364.5 1383.5 c 128,-1,5
 349 1393 349 1393 331.5 1403.5 c 128,-1,6
 314 1414 314 1414 294 1425 c 128,-1,7
 274 1436 274 1436 254 1448 c 1,8,-1
 273 1535 l 1,9,-1
 715 1591 l 1,10,-1
 762 1591 l 1,11,-1
 673 1334 l 1,12,-1
 951 1334 l 1,13,-1
 916 1202 l 1,14,-1
 627 1202 l 1,15,-1
 378 486 l 1,16,-1
 403 490 l 1,17,18
 477 665 477 665 546.5 782.5 c 128,-1,19
 616 900 616 900 683 969 c 128,-1,20
 750 1038 750 1038 821.5 1068 c 128,-1,21
 893 1098 893 1098 971 1098 c 0,22,23
 1086 1098 1086 1098 1139.5 1038 c 128,-1,24
 1193 978 1193 978 1193 889 c 0,25,26
 1193 844 1193 844 1180 780 c 0,27,28
 1166 716 1166 716 1130 618 c 2,29,-1
 975 193 l 1,30,31
 978 194 978 194 982 194 c 0,32,33
 1035 204 1035 204 1096 232 c 128,-1,34
 1157 260 1157 260 1236 311 c 1,35,-1
 1282 231 l 1,36,37
 1178 131 1178 131 1088 74.5 c 128,-1,38
 998 18 998 18 919 -4.5 c 128,-1,39
 840 -27 840 -27 768 -27 c 0,40,41
 687 -27 687 -27 654.5 13.5 c 128,-1,42
 622 54 622 54 655 141 c 0,43,44
 656 141 656 141 832 625 c 0,45,46
 858 694 858 694 865.5 728 c 128,-1,47
 873 762 873 762 873 785 c 0,48,49
 873 814 873 814 856.5 830.5 c 128,-1,50
 840 847 840 847 804 847 c 0,51,52
 752 847 752 847 697 806.5 c 128,-1,53
 642 766 642 766 588.5 687.5 c 128,-1,54
 535 609 535 609 484.5 491.5 c 128,-1,55
 434 374 434 374 389 222 c 2,56,-1
 324 0 l 1,57,-1
 19 0 l 1,58,-1
 348 1202 l 1,59,-1
 165 1202 l 1,0,-1
EndSplineSet
EndChar

StartChar: Iogonek
Encoding: 302 302 240
Width: 817
GlyphClass: 1
Flags: MW
LayerCount: 2
Fore
SplineSet
159 -282 m 0,0,1
 159 -316 159 -316 177.5 -334 c 128,-1,2
 196 -352 196 -352 236 -352 c 0,3,4
 264 -352 264 -352 289.5 -343.5 c 128,-1,5
 315 -335 315 -335 356 -313 c 1,6,-1
 363 -389 l 1,7,8
 291 -441 291 -441 241 -461 c 128,-1,9
 191 -481 191 -481 139 -481 c 0,10,11
 66 -481 66 -481 31.5 -440 c 128,-1,12
 -3 -399 -3 -399 -3 -341 c 0,13,14
 -3 -301 -3 -301 9.5 -262.5 c 128,-1,15
 22 -224 22 -224 59.5 -175.5 c 128,-1,16
 97 -127 97 -127 170 -58 c 2,17,-1
 229 0 l 1,18,-1
 -49 0 l 1,19,-1
 -24 89 l 1,20,-1
 141 142 l 1,21,-1
 466 1256 l 1,22,-1
 317 1307 l 1,23,-1
 343 1396 l 1,24,-1
 982 1396 l 1,25,-1
 958 1307 l 1,26,-1
 793 1253 l 1,27,-1
 467 139 l 1,28,-1
 616 89 l 1,29,-1
 591 0 l 1,30,-1
 322 0 l 1,31,-1
 258 -81 l 2,32,33
 215 -135 215 -135 193.5 -171 c 128,-1,34
 172 -207 172 -207 165.5 -232.5 c 128,-1,35
 159 -258 159 -258 159 -282 c 0,0,1
EndSplineSet
EndChar

StartChar: dotlessi
Encoding: 305 305 243
Width: 782
GlyphClass: 2
Flags: MW
AnchorPoint: "Anchor-4" 247 0 basechar 0
AnchorPoint: "Anchor-3" 459 0 basechar 0
AnchorPoint: "Anchor-0" 559 1074 basechar 0
LayerCount: 2
Fore
SplineSet
434 194 m 1,0,1
 443 195 443 195 452 196 c 0,2,3
 511 206 511 206 569 233 c 128,-1,4
 627 260 627 260 690 308 c 1,5,-1
 738 227 l 1,6,7
 636 132 636 132 546 75.5 c 128,-1,8
 456 19 456 19 376.5 -4 c 128,-1,9
 297 -27 297 -27 226 -27 c 0,10,11
 132 -27 132 -27 105.5 18 c 128,-1,12
 79 63 79 63 123 185 c 2,13,-1
 371 878 l 1,14,15
 359 876 359 876 346 874 c 0,16,17
 289 862 289 862 227.5 829 c 128,-1,18
 166 796 166 796 92 737 c 1,19,-1
 39 816 l 1,20,21
 155 928 155 928 247 989.5 c 128,-1,22
 339 1051 339 1051 415.5 1074.5 c 128,-1,23
 492 1098 492 1098 558 1098 c 0,24,25
 668 1098 668 1098 695 1048 c 128,-1,26
 722 998 722 998 682 887 c 2,27,-1
 434 194 l 1,0,1
EndSplineSet
Substitution2: "'case' Case-Sensitive Forms in Latin lookup 8 subtable" I
EndChar

StartChar: kgreenlandic
Encoding: 312 312 248
Width: 1370
GlyphClass: 1
Flags: MW
LayerCount: 2
Fore
SplineSet
1212 728 m 0,0,1
 1203 728 1203 728 1187.5 751.5 c 128,-1,2
 1172 775 1172 775 1152 806 c 0,3,4
 1133 835 1133 835 1114.5 854 c 128,-1,5
 1096 873 1096 873 1076 873 c 128,-1,6
 1056 873 1056 873 1028.5 860 c 128,-1,7
 1001 847 1001 847 957.5 813 c 128,-1,8
 914 779 914 779 846 716 c 0,9,10
 826 697 826 697 803 675 c 1,11,12
 852 547 852 547 889 461 c 0,13,14
 932 361 932 361 965 305 c 128,-1,15
 998 249 998 249 1025 227.5 c 128,-1,16
 1052 206 1052 206 1078 206 c 0,17,18
 1099 206 1099 206 1123 219.5 c 128,-1,19
 1147 233 1147 233 1178 262.5 c 128,-1,20
 1209 292 1209 292 1251 338 c 1,21,-1
 1305 270 l 1,22,23
 1228 164 1228 164 1157 98 c 128,-1,24
 1086 32 1086 32 1023 2.5 c 128,-1,25
 960 -27 960 -27 907 -27 c 0,26,27
 865 -27 865 -27 825 -2.5 c 128,-1,28
 785 22 785 22 742.5 83.5 c 128,-1,29
 700 145 700 145 654 254 c 0,30,31
 610 357 610 357 559 512 c 1,32,-1
 417 0 l 1,33,-1
 113 0 l 1,34,-1
 353 864 l 1,35,36
 350 864 350 864 347 864 c 128,-1,37
 344 864 344 864 340 864 c 0,38,39
 283 864 283 864 241.5 851 c 128,-1,40
 200 838 200 838 163.5 802.5 c 128,-1,41
 127 767 127 767 87 698 c 1,42,-1
 53 711 l 1,43,44
 82 823 82 823 121.5 898 c 128,-1,45
 161 973 161 973 215.5 1017 c 128,-1,46
 270 1061 270 1061 346.5 1079.5 c 128,-1,47
 423 1098 423 1098 527 1098 c 0,48,49
 583 1098 583 1098 629.5 1093 c 128,-1,50
 676 1088 676 1088 716 1079 c 1,51,-1
 579 585 l 1,52,53
 721 744 721 744 820 844 c 0,54,55
 921 947 921 947 991 1002 c 128,-1,56
 1061 1057 1061 1057 1113 1077.5 c 128,-1,57
 1165 1098 1165 1098 1212 1098 c 0,58,59
 1297 1098 1297 1098 1338.5 1050.5 c 128,-1,60
 1380 1003 1380 1003 1380 934 c 0,61,62
 1380 866 1380 866 1354 820 c 128,-1,63
 1328 774 1328 774 1288.5 751 c 128,-1,64
 1249 728 1249 728 1212 728 c 0,0,1
EndSplineSet
EndChar

StartChar: Lslash
Encoding: 321 321 257
Width: 1314
GlyphClass: 1
Flags: MW
LayerCount: 2
Fore
SplineSet
1043 1000 m 1,0,-1
 989 812 l 1,1,-1
 639 638 l 1,2,-1
 503 172 l 1,3,-1
 887 172 l 1,4,-1
 1145 496 l 1,5,-1
 1276 490 l 1,6,-1
 1036 -86 l 1,7,-1
 929 -86 l 1,8,-1
 865 0 l 1,9,-1
 453 0 l 1,10,-1
 186 0 l 1,11,-1
 -25 0 l 1,12,-1
 1 89 l 1,13,-1
 166 143 l 1,14,-1
 274 512 l 1,15,-1
 89 420 l 1,16,-1
 144 607 l 1,17,-1
 328 699 l 1,18,-1
 491 1255 l 1,19,-1
 343 1307 l 1,20,-1
 369 1396 l 1,21,-1
 1008 1396 l 1,22,-1
 983 1307 l 1,23,-1
 818 1253 l 1,24,-1
 694 826 l 1,25,-1
 1043 1000 l 1,0,-1
EndSplineSet
EndChar

StartChar: lslash
Encoding: 322 322 258
Width: 855
GlyphClass: 1
Flags: MW
LayerCount: 2
Fore
SplineSet
439 1298 m 1,0,1
 421 1312 421 1312 390 1333 c 128,-1,2
 359 1354 359 1354 324.5 1377 c 128,-1,3
 290 1400 290 1400 261 1417 c 1,4,-1
 281 1503 l 1,5,-1
 778 1591 l 1,6,-1
 825 1591 l 1,7,-1
 622 883 l 1,8,-1
 850 1031 l 1,9,-1
 802 855 l 1,10,-1
 571 705 l 1,11,-1
 426 198 l 1,12,13
 439 199 439 199 452 201 c 0,14,15
 513 210 513 210 573 237.5 c 128,-1,16
 633 265 633 265 696 311 c 1,17,-1
 745 231 l 1,18,19
 639 131 639 131 548.5 74 c 128,-1,20
 458 17 458 17 379 -5 c 128,-1,21
 300 -27 300 -27 229 -27 c 0,22,23
 145 -27 145 -27 116.5 20.5 c 128,-1,24
 88 68 88 68 122 183 c 2,25,-1
 227 551 l 1,26,-1
 38 429 l 1,27,-1
 87 606 l 1,28,-1
 277 730 l 1,29,-1
 439 1298 l 1,0,1
EndSplineSet
EndChar

StartChar: Eng
Encoding: 330 330 265
Width: 1575
GlyphClass: 1
Flags: MW
LayerCount: 2
Fore
SplineSet
1175 -111 m 2,0,1
 1139 -235 1139 -235 1080.5 -317.5 c 128,-1,2
 1022 -400 1022 -400 936.5 -440.5 c 128,-1,3
 851 -481 851 -481 734 -481 c 0,4,5
 618 -481 618 -481 562 -438 c 128,-1,6
 506 -395 506 -395 506 -328 c 0,7,8
 506 -269 506 -269 537 -229.5 c 128,-1,9
 568 -190 568 -190 619 -189 c 0,10,11
 633 -189 633 -189 650.5 -204 c 128,-1,12
 668 -219 668 -219 690 -238.5 c 128,-1,13
 712 -258 712 -258 741 -273 c 128,-1,14
 770 -288 770 -288 808 -288 c 0,15,16
 855 -288 855 -288 891.5 -272 c 128,-1,17
 928 -256 928 -256 957 -215.5 c 128,-1,18
 986 -175 986 -175 1007 -100 c 2,19,-1
 1033 -11 l 1,20,-1
 617 1185 l 1,21,-1
 313 140 l 1,22,-1
 470 89 l 1,23,-1
 446 0 l 1,24,-1
 -49 0 l 1,25,-1
 -26 89 l 1,26,-1
 141 139 l 1,27,-1
 463 1241 l 1,28,-1
 316 1312 l 1,29,-1
 340 1396 l 1,30,-1
 866 1396 l 1,31,-1
 1177 484 l 1,32,-1
 1401 1255 l 1,33,34
 1400 1255 1400 1255 1244 1307 c 1,35,-1
 1269 1396 l 1,36,-1
 1764 1396 l 1,37,-1
 1739 1307 l 1,38,-1
 1573 1256 l 1,39,-1
 1175 -111 l 2,0,1
EndSplineSet
EndChar

StartChar: eng
Encoding: 331 331 266
Width: 1341
GlyphClass: 1
Flags: MW
LayerCount: 2
Fore
SplineSet
512 -519 m 0,0,1
 406 -519 406 -519 359.5 -476.5 c 128,-1,2
 313 -434 313 -434 313 -364 c 0,3,4
 313 -302 313 -302 346 -264 c 128,-1,5
 379 -226 379 -226 432 -226 c 0,6,7
 441 -226 441 -226 459 -246.5 c 128,-1,8
 477 -267 477 -267 496 -296 c 0,9,10
 516 -325 516 -325 533.5 -345 c 128,-1,11
 551 -365 551 -365 561 -365 c 0,12,13
 584 -365 584 -365 603.5 -355 c 128,-1,14
 623 -345 623 -345 642.5 -315 c 128,-1,15
 662 -285 662 -285 684 -227.5 c 128,-1,16
 706 -170 706 -170 732 -75 c 2,17,-1
 925 619 l 2,18,19
 937 668 937 668 945 698 c 128,-1,20
 953 728 953 728 955.5 748 c 128,-1,21
 958 768 958 768 958 784 c 0,22,23
 958 813 958 813 940 830 c 128,-1,24
 922 847 922 847 886 847 c 0,25,26
 835 847 835 847 783 806.5 c 128,-1,27
 731 766 731 766 679.5 687 c 128,-1,28
 628 608 628 608 579 491.5 c 128,-1,29
 530 375 530 375 485 222 c 2,30,-1
 421 0 l 1,31,-1
 117 0 l 1,32,-1
 354 864 l 1,33,34
 351 864 351 864 348.5 864 c 128,-1,35
 346 864 346 864 341 864 c 0,36,37
 284 864 284 864 242 851 c 128,-1,38
 200 838 200 838 163.5 802.5 c 128,-1,39
 127 767 127 767 87 698 c 1,40,-1
 54 710 l 1,41,42
 88 862 88 862 145 945.5 c 128,-1,43
 202 1029 202 1029 284.5 1062.5 c 128,-1,44
 367 1096 367 1096 476 1096 c 0,45,46
 507 1096 507 1096 531.5 1095 c 128,-1,47
 556 1094 556 1094 581 1092.5 c 128,-1,48
 606 1091 606 1091 638 1086 c 1,49,-1
 471 484 l 1,50,-1
 499 487 l 1,51,52
 572 662 572 662 639 780.5 c 128,-1,53
 706 899 706 899 771 968.5 c 128,-1,54
 836 1038 836 1038 904.5 1068 c 128,-1,55
 973 1098 973 1098 1050 1098 c 0,56,57
 1162 1098 1162 1098 1216 1041.5 c 128,-1,58
 1270 985 1270 985 1270 893 c 0,59,60
 1270 849 1270 849 1260 782.5 c 128,-1,61
 1250 716 1250 716 1219 615 c 2,62,-1
 1074 127 l 2,63,64
 1007 -98 1007 -98 916.5 -240.5 c 128,-1,65
 826 -383 826 -383 723 -451 c 128,-1,66
 620 -519 620 -519 512 -519 c 0,0,1
EndSplineSet
EndChar

StartChar: OE
Encoding: 338 338 273
Width: 2160
GlyphClass: 1
Flags: MW
LayerCount: 2
Fore
SplineSet
1734 470 m 1,0,-1
 1606 470 l 1,1,-1
 1642 649 l 1,2,-1
 1368 649 l 1,3,-1
 1228 172 l 1,4,-1
 1709 172 l 1,5,-1
 1967 451 l 1,6,-1
 2098 444 l 1,7,-1
 1831 -84 l 1,8,-1
 1724 -84 l 1,9,-1
 1674 0 l 1,10,-1
 1178 0 l 1,11,-1
 850 0 l 1,12,-1
 734 0 l 2,13,14
 519 0 519 0 387.5 60.5 c 128,-1,15
 256 121 256 121 197 231 c 128,-1,16
 138 341 138 341 138 491 c 0,17,18
 138 686 138 686 197 851.5 c 128,-1,19
 256 1017 256 1017 371.5 1139 c 128,-1,20
 487 1261 487 1261 657 1328.5 c 128,-1,21
 827 1396 827 1396 1046 1396 c 2,22,-1
 1258 1396 l 1,23,-1
 1586 1396 l 1,24,-1
 2070 1396 l 1,25,-1
 2189 1475 l 1,26,-1
 2281 1475 l 1,27,-1
 2175 997 l 2,28,29
 2174 997 2174 997 2042 997 c 1,30,-1
 2034 1223 l 1,31,-1
 1535 1223 l 1,32,-1
 1414 808 l 1,33,-1
 1688 808 l 1,34,-1
 1756 984 l 1,35,-1
 1883 984 l 1,36,-1
 1809 727 l 1,37,-1
 1734 470 l 1,0,-1
1207 1223 m 1,38,-1
 1033 1223 l 2,39,40
 914 1223 914 1223 822 1180 c 128,-1,41
 730 1137 730 1137 662 1062.5 c 128,-1,42
 594 988 594 988 549 892.5 c 128,-1,43
 504 797 504 797 482.5 691.5 c 128,-1,44
 461 586 461 586 461 482 c 0,45,46
 461 385 461 385 496 315.5 c 128,-1,47
 531 246 531 246 605.5 209 c 128,-1,48
 680 172 680 172 798 172 c 2,49,-1
 900 172 l 1,50,-1
 1207 1223 l 1,38,-1
EndSplineSet
EndChar

StartChar: oe
Encoding: 339 339 274
Width: 1762
GlyphClass: 2
Flags: MW
AnchorPoint: "Anchor-4" 786 0 basechar 0
AnchorPoint: "Anchor-0" 1035 1071 basechar 0
LayerCount: 2
Fore
SplineSet
487 157 m 0,0,1
 543 157 543 157 591 192 c 128,-1,2
 639 227 639 227 677.5 286.5 c 128,-1,3
 716 346 716 346 743.5 422 c 128,-1,4
 771 498 771 498 786 580 c 128,-1,5
 801 662 801 662 801 741 c 0,6,7
 801 831 801 831 769 872.5 c 128,-1,8
 737 914 737 914 674 914 c 0,9,10
 619 914 619 914 570.5 879.5 c 128,-1,11
 522 845 522 845 484 785 c 128,-1,12
 446 725 446 725 418 649 c 128,-1,13
 390 573 390 573 375.5 491 c 128,-1,14
 361 409 361 409 361 329 c 0,15,16
 361 239 361 239 393 198 c 128,-1,17
 425 157 425 157 487 157 c 0,0,1
686 1098 m 0,18,19
 797 1098 797 1098 871.5 1060 c 128,-1,20
 946 1022 946 1022 990 958 c 0,21,22
 999 946 999 946 1007 934 c 1,23,24
 1024 950 1024 950 1044 966 c 0,25,26
 1122 1028 1122 1028 1218 1063 c 128,-1,27
 1314 1098 1314 1098 1420 1098 c 0,28,29
 1535 1098 1535 1098 1604.5 1063.5 c 128,-1,30
 1674 1029 1674 1029 1706 971 c 128,-1,31
 1738 913 1738 913 1738 841 c 0,32,33
 1738 786 1738 786 1723 728 c 128,-1,34
 1708 670 1708 670 1678 616 c 1,35,36
 1594 591 1594 591 1508 568.5 c 128,-1,37
 1422 546 1422 546 1334.5 528.5 c 128,-1,38
 1247 511 1247 511 1162 496 c 0,39,40
 1114 488 1114 488 1068 481 c 1,41,42
 1067 459 1067 459 1067 436 c 0,43,44
 1067 301 1067 301 1110.5 248 c 128,-1,45
 1154 195 1154 195 1257 195 c 0,46,47
 1317 195 1317 195 1369 213.5 c 128,-1,48
 1421 232 1421 232 1468 274 c 128,-1,49
 1515 316 1515 316 1558 387 c 1,50,-1
 1651 387 l 1,51,52
 1587 231 1587 231 1509.5 140.5 c 128,-1,53
 1432 50 1432 50 1340 11.5 c 128,-1,54
 1248 -27 1248 -27 1141 -27 c 0,55,56
 1040 -27 1040 -27 971.5 8.5 c 128,-1,57
 903 44 903 44 864 108 c 0,58,59
 856 122 856 122 849 136 c 1,60,61
 837 123 837 123 824 110 c 0,62,63
 754 46 754 46 666.5 9.5 c 128,-1,64
 579 -27 579 -27 475 -27 c 0,65,66
 335 -27 335 -27 245 26 c 128,-1,67
 155 79 155 79 111 171.5 c 128,-1,68
 67 264 67 264 67 380 c 0,69,70
 67 520 67 520 110.5 650 c 128,-1,71
 154 780 154 780 235 881 c 128,-1,72
 316 982 316 982 430.5 1040 c 128,-1,73
 545 1098 545 1098 686 1098 c 0,18,19
1080 595 m 1,74,75
 1165 616 1165 616 1227 633 c 0,76,77
 1316 658 1316 658 1368 680.5 c 128,-1,78
 1420 703 1420 703 1445 727 c 128,-1,79
 1470 751 1470 751 1477.5 779.5 c 128,-1,80
 1485 808 1485 808 1485 845 c 0,81,82
 1485 881 1485 881 1473 906 c 128,-1,83
 1461 931 1461 931 1438 944.5 c 128,-1,84
 1415 958 1415 958 1378 958 c 0,85,86
 1329 958 1329 958 1283.5 935 c 128,-1,87
 1238 912 1238 912 1198.5 867 c 128,-1,88
 1159 822 1159 822 1129.5 758 c 128,-1,89
 1100 694 1100 694 1084 613 c 0,90,91
 1082 604 1082 604 1080 595 c 1,74,75
EndSplineSet
EndChar

StartChar: Scedilla
Encoding: 350 350 285
Width: 1233
GlyphClass: 1
Flags: MW
LayerCount: 2
Fore
SplineSet
353 -481 m 0,0,1
 278 -481 278 -481 246.5 -461.5 c 128,-1,2
 215 -442 215 -442 215 -406 c 0,3,4
 215 -379 215 -379 230.5 -360 c 128,-1,5
 246 -341 246 -341 271 -341 c 0,6,7
 284 -341 284 -341 300.5 -354.5 c 128,-1,8
 317 -368 317 -368 340 -381.5 c 128,-1,9
 363 -395 363 -395 395 -395 c 0,10,11
 448 -395 448 -395 474.5 -371.5 c 128,-1,12
 501 -348 501 -348 501 -309 c 0,13,14
 501 -279 501 -279 464.5 -258.5 c 128,-1,15
 428 -238 428 -238 320 -223 c 1,16,-1
 329 -194 l 1,17,-1
 492 -24 l 1,18,19
 468 -25 468 -25 443 -25 c 0,20,21
 328 -25 328 -25 238 -9 c 128,-1,22
 148 7 148 7 77 32 c 1,23,-1
 80 459 l 1,24,-1
 207 459 l 1,25,-1
 300 169 l 1,26,27
 305 168 305 168 310 167 c 0,28,29
 382 151 382 151 465 151 c 0,30,31
 588 151 588 151 667 180 c 128,-1,32
 746 209 746 209 785.5 262.5 c 128,-1,33
 825 316 825 316 825 390 c 0,34,35
 825 442 825 442 799.5 476 c 128,-1,36
 774 510 774 510 731 534.5 c 128,-1,37
 688 559 688 559 633.5 580.5 c 128,-1,38
 579 602 579 602 519 627 c 0,39,40
 439 661 439 661 381.5 701.5 c 128,-1,41
 324 742 324 742 293 801.5 c 128,-1,42
 262 861 262 861 262 952 c 0,43,44
 262 1097 262 1097 331 1202 c 128,-1,45
 400 1307 400 1307 533.5 1364 c 128,-1,46
 667 1421 667 1421 859 1421 c 0,47,48
 960 1421 960 1421 1049 1402 c 0,49,50
 1080 1395 1080 1395 1108 1386 c 1,51,-1
 1200 1476 l 1,52,-1
 1301 1476 l 1,53,-1
 1215 963 l 1,54,-1
 1081 963 l 1,55,-1
 1045 1206 l 1,56,57
 1017 1220 1017 1220 982 1230 c 0,58,59
 912 1249 912 1249 837 1249 c 0,60,61
 730 1249 730 1249 666.5 1226 c 128,-1,62
 603 1203 603 1203 576 1161.5 c 128,-1,63
 549 1120 549 1120 549 1061 c 0,64,65
 549 1004 549 1004 583 969.5 c 128,-1,66
 617 935 617 935 677.5 909 c 128,-1,67
 738 883 738 883 818 852 c 0,68,69
 899 821 899 821 967.5 779 c 128,-1,70
 1036 737 1036 737 1078.5 670.5 c 128,-1,71
 1121 604 1121 604 1121 498 c 0,72,73
 1121 337 1121 337 1043.5 219.5 c 128,-1,74
 966 102 966 102 815 38 c 0,75,76
 726 1 726 1 612 -14 c 1,77,-1
 523 -105 l 1,78,79
 589 -124 589 -124 619 -153 c 0,80,81
 662 -195 662 -195 662 -250 c 0,82,83
 662 -315 662 -315 629.5 -367.5 c 128,-1,84
 597 -420 597 -420 528.5 -450.5 c 128,-1,85
 460 -481 460 -481 353 -481 c 0,0,1
EndSplineSet
Substitution2: "'locl' Localized Forms in Latin lookup 1 subtable" uni0218
Substitution2: "'locl' Localized Forms in Latin lookup 0 subtable" uni0218
EndChar

StartChar: uni0162
Encoding: 354 354 289
Width: 1449
GlyphClass: 1
Flags: MW
LayerCount: 2
Fore
SplineSet
394 -481 m 0,0,1
 319 -481 319 -481 287.5 -461.5 c 128,-1,2
 256 -442 256 -442 256 -406 c 0,3,4
 256 -379 256 -379 271.5 -360 c 128,-1,5
 287 -341 287 -341 312 -341 c 0,6,7
 325 -341 325 -341 341.5 -354.5 c 128,-1,8
 358 -368 358 -368 381 -381.5 c 128,-1,9
 404 -395 404 -395 436 -395 c 0,10,11
 489 -395 489 -395 515.5 -371.5 c 128,-1,12
 542 -348 542 -348 542 -309 c 0,13,14
 542 -279 542 -279 505 -258.5 c 128,-1,15
 468 -238 468 -238 361 -223 c 1,16,-1
 370 -194 l 1,17,-1
 557 0 l 1,18,-1
 267 0 l 1,19,-1
 293 89 l 1,20,-1
 459 142 l 1,21,-1
 773 1218 l 1,22,-1
 527 1218 l 1,23,-1
 304 910 l 1,24,-1
 169 916 l 1,25,-1
 383 1485 l 1,26,-1
 491 1485 l 1,27,-1
 540 1396 l 1,28,-1
 1404 1396 l 1,29,-1
 1508 1485 l 1,30,-1
 1614 1485 l 1,31,-1
 1533 912 l 1,32,-1
 1407 912 l 1,33,-1
 1367 1218 l 1,34,-1
 1101 1218 l 1,35,-1
 786 139 l 1,36,-1
 932 89 l 1,37,-1
 907 0 l 1,38,-1
 667 0 l 1,39,-1
 564 -105 l 1,40,41
 630 -124 630 -124 660 -153 c 0,42,43
 703 -195 703 -195 703 -250 c 0,44,45
 703 -315 703 -315 670.5 -367.5 c 128,-1,46
 638 -420 638 -420 569.5 -450.5 c 128,-1,47
 501 -481 501 -481 394 -481 c 0,0,1
EndSplineSet
EndChar

StartChar: Tbar
Encoding: 358 358 293
Width: 1453
GlyphClass: 1
Flags: MW
LayerCount: 2
Fore
SplineSet
323 597 m 2,0,1
 322 597 322 597 370 760 c 1,2,-1
 639 760 l 1,3,-1
 773 1218 l 1,4,-1
 527 1218 l 1,5,-1
 305 910 l 1,6,-1
 169 916 l 1,7,-1
 383 1485 l 1,8,-1
 492 1485 l 1,9,-1
 541 1396 l 1,10,-1
 1405 1396 l 1,11,-1
 1508 1485 l 1,12,-1
 1615 1485 l 1,13,-1
 1533 912 l 1,14,-1
 1407 912 l 1,15,-1
 1367 1218 l 1,16,-1
 1101 1218 l 1,17,-1
 967 760 l 1,18,-1
 1236 760 l 1,19,-1
 1188 597 l 1,20,-1
 920 597 l 1,21,-1
 786 139 l 1,22,-1
 933 89 l 1,23,-1
 908 0 l 1,24,-1
 268 0 l 1,25,-1
 294 89 l 1,26,-1
 459 142 l 1,27,-1
 592 597 l 1,28,-1
 323 597 l 2,0,1
EndSplineSet
EndChar

StartChar: tbar
Encoding: 359 359 294
Width: 906
GlyphClass: 1
Flags: MW
LayerCount: 2
Fore
SplineSet
495 252 m 0,0,1
 495 225 495 225 505.5 215.5 c 128,-1,2
 516 206 516 206 535 206 c 0,3,4
 556 206 556 206 585.5 218.5 c 128,-1,5
 615 231 615 231 658.5 263.5 c 128,-1,6
 702 296 702 296 764 354 c 1,7,-1
 822 278 l 1,8,9
 742 186 742 186 672 126.5 c 128,-1,10
 602 67 602 67 543 33.5 c 128,-1,11
 484 0 484 0 433.5 -13.5 c 128,-1,12
 383 -27 383 -27 339 -27 c 0,13,14
 266 -27 266 -27 226 15 c 128,-1,15
 186 57 186 57 186 150 c 0,16,17
 186 196 186 196 199.5 264.5 c 128,-1,18
 213 333 213 333 241 431 c 2,19,-1
 278 559 l 1,20,-1
 98 559 l 1,21,-1
 133 690 l 1,22,-1
 316 690 l 1,23,-1
 384 922 l 1,24,-1
 154 922 l 1,25,-1
 159 1071 l 1,26,-1
 427 1071 l 1,27,-1
 503 1333 l 1,28,-1
 803 1333 l 1,29,-1
 724 1071 l 1,30,-1
 963 1071 l 1,31,-1
 958 922 l 1,32,-1
 680 922 l 1,33,-1
 610 690 l 1,34,-1
 835 690 l 1,35,-1
 800 559 l 1,36,-1
 571 559 l 1,37,-1
 542 462 l 2,38,39
 523 397 523 397 513 356 c 128,-1,40
 503 315 503 315 499 291 c 128,-1,41
 495 267 495 267 495 252 c 0,0,1
EndSplineSet
EndChar

StartChar: Uogonek
Encoding: 370 370 305
Width: 1559
GlyphClass: 1
Flags: MW
LayerCount: 2
Fore
SplineSet
592 -283 m 0,0,1
 592 -317 592 -317 611 -334.5 c 128,-1,2
 630 -352 630 -352 669 -352 c 0,3,4
 697 -352 697 -352 723.5 -343.5 c 128,-1,5
 750 -335 750 -335 790 -313 c 1,6,-1
 796 -389 l 1,7,8
 725 -441 725 -441 674.5 -461 c 128,-1,9
 624 -481 624 -481 573 -481 c 0,10,11
 500 -481 500 -481 465 -440.5 c 128,-1,12
 430 -400 430 -400 430 -342 c 0,13,14
 430 -302 430 -302 442 -264 c 128,-1,15
 454 -226 454 -226 492 -178.5 c 128,-1,16
 530 -131 530 -131 607 -62 c 2,17,-1
 649 -24 l 1,18,19
 482 -16 482 -16 372 41 c 0,20,21
 244 107 244 107 204.5 239 c 128,-1,22
 165 371 165 371 223 569 c 2,23,-1
 425 1256 l 1,24,-1
 276 1307 l 1,25,-1
 301 1396 l 1,26,-1
 940 1396 l 1,27,-1
 916 1307 l 1,28,-1
 751 1253 l 1,29,-1
 542 539 l 2,30,31
 509 425 509 425 528 351.5 c 128,-1,32
 547 278 547 278 615 243 c 128,-1,33
 683 208 683 208 795 208 c 0,34,35
 899 208 899 208 973.5 239.5 c 128,-1,36
 1048 271 1048 271 1100 343 c 128,-1,37
 1152 415 1152 415 1188 537 c 2,38,-1
 1396 1255 l 1,39,-1
 1239 1307 l 1,40,41
 1240 1307 1240 1307 1264 1396 c 1,42,-1
 1758 1396 l 1,43,-1
 1735 1307 l 1,44,-1
 1568 1256 l 1,45,-1
 1351 509 l 2,46,47
 1296 320 1296 320 1211.5 202 c 128,-1,48
 1127 84 1127 84 1002 30 c 0,49,50
 895 -17 895 -17 750 -24 c 1,51,-1
 698 -85 l 2,52,53
 652 -139 652 -139 629 -174.5 c 128,-1,54
 606 -210 606 -210 599 -234.5 c 128,-1,55
 592 -259 592 -259 592 -283 c 0,0,1
EndSplineSet
EndChar

StartChar: uni018F
Encoding: 399 399 318
Width: 1435
GlyphClass: 1
Flags: MW
LayerCount: 2
Fore
SplineSet
408 534 m 1,0,1
 404 518 404 518 402 503 c 0,2,3
 391 447 391 447 391 400 c 0,4,5
 391 286 391 286 451 225.5 c 128,-1,6
 511 165 511 165 636 165 c 0,7,8
 727 165 727 165 801.5 201 c 128,-1,9
 876 237 876 237 933 301.5 c 128,-1,10
 990 366 990 366 1028 452 c 0,11,12
 1046 491 1046 491 1060 534 c 1,13,-1
 408 534 l 1,0,1
1097 707 m 1,14,15
 1106 775 1106 775 1106 847 c 0,16,17
 1106 962 1106 962 1065 1035 c 128,-1,18
 1024 1108 1024 1108 943.5 1143 c 128,-1,19
 863 1178 863 1178 740 1178 c 0,20,21
 651 1178 651 1178 572.5 1167 c 128,-1,22
 494 1156 494 1156 421.5 1133 c 128,-1,23
 349 1110 349 1110 273 1072 c 1,24,-1
 293 1206 l 1,25,26
 409 1284 409 1284 510 1331 c 128,-1,27
 611 1378 611 1378 699.5 1399.5 c 128,-1,28
 788 1421 788 1421 867 1421 c 0,29,30
 1041 1421 1041 1421 1162.5 1359 c 128,-1,31
 1284 1297 1284 1297 1349 1180 c 128,-1,32
 1414 1063 1414 1063 1414 896 c 0,33,34
 1414 742 1414 742 1376 604 c 128,-1,35
 1338 466 1338 466 1266.5 351 c 128,-1,36
 1195 236 1195 236 1095.5 151.5 c 128,-1,37
 996 67 996 67 872.5 21 c 128,-1,38
 749 -25 749 -25 606 -25 c 0,39,40
 449 -25 449 -25 341 26.5 c 128,-1,41
 233 78 233 78 177 177.5 c 128,-1,42
 121 277 121 277 121 423 c 0,43,44
 121 486 121 486 131.5 556.5 c 128,-1,45
 142 627 142 627 165 707 c 1,46,-1
 1097 707 l 1,14,15
EndSplineSet
EndChar

StartChar: Ohorn
Encoding: 416 416 320
Width: 1590
GlyphClass: 2
Flags: MW
AnchorPoint: "Anchor-4" 662 0 basechar 0
LayerCount: 2
Fore
SplineSet
1564 872 m 0,0,1
 1564 724 1564 724 1526 590 c 128,-1,2
 1488 456 1488 456 1415 343.5 c 128,-1,3
 1342 231 1342 231 1240 148.5 c 128,-1,4
 1138 66 1138 66 1009.5 20.5 c 128,-1,5
 881 -25 881 -25 731 -25 c 0,6,7
 536 -25 536 -25 405 40 c 128,-1,8
 274 105 274 105 208 228 c 128,-1,9
 142 351 142 351 142 524 c 0,10,11
 142 671 142 671 180 805.5 c 128,-1,12
 218 940 218 940 290.5 1052 c 128,-1,13
 363 1164 363 1164 465 1247 c 128,-1,14
 567 1330 567 1330 696 1375.5 c 128,-1,15
 825 1421 825 1421 975 1421 c 0,16,17
 1041 1421 1041 1421 1089 1415.5 c 128,-1,18
 1137 1410 1137 1410 1177.5 1403.5 c 128,-1,19
 1218 1397 1218 1397 1257.5 1391.5 c 128,-1,20
 1297 1386 1297 1386 1342 1386 c 0,21,22
 1428 1386 1428 1386 1466 1418 c 128,-1,23
 1504 1450 1504 1450 1504 1505 c 0,24,25
 1504 1541 1504 1541 1491.5 1568.5 c 128,-1,26
 1479 1596 1479 1596 1479 1608 c 0,27,28
 1479 1636 1479 1636 1512 1664.5 c 128,-1,29
 1545 1693 1545 1693 1595 1693 c 128,-1,30
 1645 1693 1645 1693 1677 1662 c 128,-1,31
 1709 1631 1709 1631 1709 1569 c 0,32,33
 1709 1436 1709 1436 1632 1360 c 0,34,35
 1559 1289 1559 1289 1406 1283 c 1,36,37
 1483 1213 1483 1213 1521 1115 c 0,38,39
 1564 1005 1564 1005 1564 872 c 0,0,1
457 484 m 0,40,41
 457 327 457 327 527 246.5 c 128,-1,42
 597 166 597 166 737 166 c 0,43,44
 816 166 816 166 885 194.5 c 128,-1,45
 954 223 954 223 1011 275 c 128,-1,46
 1068 327 1068 327 1112 397.5 c 128,-1,47
 1156 468 1156 468 1186.5 551.5 c 128,-1,48
 1217 635 1217 635 1232.5 726.5 c 128,-1,49
 1248 818 1248 818 1248 912 c 0,50,51
 1248 1069 1248 1069 1178.5 1149 c 128,-1,52
 1109 1229 1109 1229 969 1229 c 0,53,54
 889 1229 889 1229 820 1200.5 c 128,-1,55
 751 1172 751 1172 694 1120 c 128,-1,56
 637 1068 637 1068 593 998 c 128,-1,57
 549 928 549 928 518.5 844.5 c 128,-1,58
 488 761 488 761 472.5 669.5 c 128,-1,59
 457 578 457 578 457 484 c 0,40,41
EndSplineSet
EndChar

StartChar: Uhorn
Encoding: 431 431 322
Width: 1594
GlyphClass: 2
Flags: MW
AnchorPoint: "Anchor-4" 662 0 basechar 0
LayerCount: 2
Fore
SplineSet
542 539 m 2,0,1
 509 425 509 425 528 351.5 c 128,-1,2
 547 278 547 278 615 243 c 128,-1,3
 683 208 683 208 795 208 c 0,4,5
 899 208 899 208 973.5 239.5 c 128,-1,6
 1048 271 1048 271 1100 343 c 128,-1,7
 1152 415 1152 415 1188 537 c 2,8,-1
 1396 1255 l 1,9,-1
 1239 1307 l 1,10,11
 1240 1307 1240 1307 1264 1396 c 1,12,-1
 1597 1396 l 2,13,14
 1690 1396 1690 1396 1728 1425.5 c 128,-1,15
 1766 1455 1766 1455 1766 1507 c 0,16,17
 1766 1542 1766 1542 1753 1569 c 128,-1,18
 1740 1596 1740 1596 1740 1608 c 0,19,20
 1740 1636 1740 1636 1773 1664.5 c 128,-1,21
 1806 1693 1806 1693 1856 1693 c 128,-1,22
 1906 1693 1906 1693 1938 1662.5 c 128,-1,23
 1970 1632 1970 1632 1970 1574 c 0,24,25
 1970 1495 1970 1495 1930 1426.5 c 128,-1,26
 1890 1358 1890 1358 1802.5 1314 c 128,-1,27
 1715 1270 1715 1270 1570 1264 c 1,28,-1
 1351 509 l 2,29,30
 1296 320 1296 320 1211.5 202 c 128,-1,31
 1127 84 1127 84 1002 29.5 c 128,-1,32
 877 -25 877 -25 701 -25 c 0,33,34
 499 -25 499 -25 371.5 41 c 128,-1,35
 244 107 244 107 204.5 239 c 128,-1,36
 165 371 165 371 223 569 c 2,37,-1
 425 1256 l 1,38,-1
 276 1307 l 1,39,-1
 301 1396 l 1,40,-1
 940 1396 l 1,41,-1
 916 1307 l 1,42,-1
 751 1253 l 1,43,-1
 542 539 l 2,0,1
EndSplineSet
EndChar

StartChar: uni01EA
Encoding: 490 490 335
Width: 1588
GlyphClass: 1
Flags: MW
LayerCount: 2
Fore
SplineSet
569 -283 m 0,0,1
 569 -317 569 -317 588 -334.5 c 128,-1,2
 607 -352 607 -352 646 -352 c 0,3,4
 674 -352 674 -352 700.5 -343.5 c 128,-1,5
 727 -335 727 -335 768 -313 c 1,6,-1
 773 -389 l 1,7,8
 702 -441 702 -441 651.5 -461 c 128,-1,9
 601 -481 601 -481 550 -481 c 0,10,11
 477 -481 477 -481 442.5 -440.5 c 128,-1,12
 408 -400 408 -400 408 -342 c 0,13,14
 408 -303 408 -303 420 -265 c 128,-1,15
 432 -227 432 -227 469.5 -178 c 128,-1,16
 507 -129 507 -129 581 -58 c 2,17,-1
 621 -19 l 1,18,19
 497 -6 497 -6 405 40 c 0,20,21
 274 105 274 105 208 228 c 128,-1,22
 142 351 142 351 142 524 c 0,23,24
 142 671 142 671 180 805.5 c 128,-1,25
 218 940 218 940 290.5 1052 c 128,-1,26
 363 1164 363 1164 465 1247 c 128,-1,27
 567 1330 567 1330 696 1375.5 c 128,-1,28
 825 1421 825 1421 975 1421 c 0,29,30
 1171 1421 1171 1421 1301.5 1355.5 c 128,-1,31
 1432 1290 1432 1290 1498 1167.5 c 128,-1,32
 1564 1045 1564 1045 1564 872 c 0,33,34
 1564 724 1564 724 1526 590 c 128,-1,35
 1488 456 1488 456 1415 343.5 c 128,-1,36
 1342 231 1342 231 1240 148.5 c 128,-1,37
 1138 66 1138 66 1009.5 20.5 c 128,-1,38
 881 -25 881 -25 731 -25 c 0,39,40
 724 -25 724 -25 718 -25 c 1,41,-1
 674 -81 l 2,42,43
 630 -135 630 -135 607.5 -171.5 c 128,-1,44
 585 -208 585 -208 577 -233.5 c 128,-1,45
 569 -259 569 -259 569 -283 c 0,0,1
457 484 m 0,46,47
 457 327 457 327 527 246.5 c 128,-1,48
 597 166 597 166 737 166 c 0,49,50
 816 166 816 166 885 194.5 c 128,-1,51
 954 223 954 223 1011 275 c 128,-1,52
 1068 327 1068 327 1112 397.5 c 128,-1,53
 1156 468 1156 468 1186.5 551.5 c 128,-1,54
 1217 635 1217 635 1232.5 726.5 c 128,-1,55
 1248 818 1248 818 1248 912 c 0,56,57
 1248 1069 1248 1069 1178.5 1149 c 128,-1,58
 1109 1229 1109 1229 969 1229 c 0,59,60
 889 1229 889 1229 820 1200.5 c 128,-1,61
 751 1172 751 1172 694 1120 c 128,-1,62
 637 1068 637 1068 593 998 c 128,-1,63
 549 928 549 928 518.5 844.5 c 128,-1,64
 488 761 488 761 472.5 669.5 c 128,-1,65
 457 578 457 578 457 484 c 0,46,47
EndSplineSet
EndChar

StartChar: uni0237
Encoding: 567 567 379
Width: 713
GlyphClass: 2
Flags: MW
AnchorPoint: "Anchor-4" -15 -492 basechar 0
AnchorPoint: "Anchor-0" 507 1074 basechar 0
LayerCount: 2
Fore
SplineSet
457 167 m 2,0,1
 391 -74 391 -74 292.5 -225.5 c 128,-1,2
 194 -377 194 -377 74 -448 c 128,-1,3
 -46 -519 -46 -519 -172 -519 c 0,4,5
 -291 -519 -291 -519 -340.5 -467 c 128,-1,6
 -390 -415 -390 -415 -390 -337 c 0,7,8
 -390 -272 -390 -272 -354 -228 c 128,-1,9
 -318 -184 -318 -184 -254 -184 c 0,10,11
 -245 -184 -245 -184 -224 -208.5 c 128,-1,12
 -203 -233 -203 -233 -176 -271 c 0,13,14
 -148 -307 -148 -307 -126 -330 c 128,-1,15
 -104 -353 -104 -353 -93 -353 c 0,16,17
 -65 -353 -65 -353 -40 -339.5 c 128,-1,18
 -15 -326 -15 -326 8.5 -291.5 c 128,-1,19
 32 -257 32 -257 56.5 -193.5 c 128,-1,20
 81 -130 81 -130 108 -30 c 2,21,-1
 351 878 l 1,22,23
 339 876 339 876 328 874 c 0,24,25
 274 862 274 862 215.5 829 c 128,-1,26
 157 796 157 796 83 737 c 1,27,-1
 29 816 l 1,28,29
 137 922 137 922 225.5 983.5 c 128,-1,30
 314 1045 314 1045 388 1071.5 c 128,-1,31
 462 1098 462 1098 528 1098 c 0,32,33
 601 1098 601 1098 634 1077 c 128,-1,34
 667 1056 667 1056 670 1009.5 c 128,-1,35
 673 963 673 963 651 887 c 2,36,-1
 457 167 l 2,0,1
EndSplineSet
EndChar

StartChar: uni0259
Encoding: 601 601 380
Width: 1062
GlyphClass: 1
Flags: MW
LayerCount: 2
Fore
SplineSet
387 112 m 0,0,1
 436 112 436 112 481.5 136 c 128,-1,2
 527 160 527 160 566.5 204.5 c 128,-1,3
 606 249 606 249 635 313 c 128,-1,4
 664 377 664 377 680 458 c 0,5,6
 682 467 682 467 684 477 c 1,7,8
 600 456 600 456 538 439 c 0,9,10
 449 414 449 414 397 391 c 128,-1,11
 345 368 345 368 319.5 344 c 128,-1,12
 294 320 294 320 287 292 c 128,-1,13
 280 264 280 264 280 227 c 0,14,15
 280 192 280 192 291.5 166 c 128,-1,16
 303 140 303 140 327.5 126 c 128,-1,17
 352 112 352 112 387 112 c 0,0,1
696 590 m 1,18,19
 697 612 697 612 697 634 c 0,20,21
 697 771 697 771 654.5 823.5 c 128,-1,22
 612 876 612 876 509 876 c 0,23,24
 449 876 449 876 396.5 857.5 c 128,-1,25
 344 839 344 839 297 797 c 128,-1,26
 250 755 250 755 206 684 c 1,27,-1
 113 684 l 1,28,29
 178 841 178 841 255 931.5 c 128,-1,30
 332 1022 332 1022 424.5 1060 c 128,-1,31
 517 1098 517 1098 623 1098 c 0,32,33
 748 1098 748 1098 831.5 1053.5 c 128,-1,34
 915 1009 915 1009 957 924 c 128,-1,35
 999 839 999 839 999 715 c 0,36,37
 999 592 999 592 969.5 480.5 c 128,-1,38
 940 369 940 369 883 276.5 c 128,-1,39
 826 184 826 184 746 116 c 128,-1,40
 666 48 666 48 565.5 10.5 c 128,-1,41
 465 -27 465 -27 345 -27 c 0,42,43
 230 -27 230 -27 160 7.5 c 128,-1,44
 90 42 90 42 58.5 100.5 c 128,-1,45
 27 159 27 159 27 230 c 0,46,47
 27 285 27 285 42 343 c 128,-1,48
 57 401 57 401 86 456 c 1,49,50
 170 482 170 482 256 503.5 c 128,-1,51
 342 525 342 525 430 543 c 128,-1,52
 518 561 518 561 603 576 c 0,53,54
 650 584 650 584 696 590 c 1,18,19
EndSplineSet
EndChar

StartChar: uni02B9
Encoding: 697 697 381
Width: 456
GlyphClass: 1
Flags: MW
LayerCount: 2
Fore
SplineSet
190 852 m 1,0,-1
 381 1396 l 1,1,-1
 647 1396 l 1,2,-1
 631 1339 l 1,3,-1
 337 852 l 1,4,-1
 190 852 l 1,0,-1
EndSplineSet
EndChar

StartChar: gravecomb
Encoding: 768 768 392
Width: 0
GlyphClass: 4
Flags: MW
AnchorPoint: "Anchor-6" 283 1471 basemark 0
AnchorPoint: "Anchor-6" 144 995 mark 0
AnchorPoint: "Anchor-0" 144 995 mark 0
LayerCount: 2
Fore
SplineSet
254 1106 m 1,0,-1
 131 1106 l 1,1,-1
 -104 1382 l 1,2,-1
 -90 1433 l 1,3,-1
 170 1433 l 1,4,-1
 254 1106 l 1,0,-1
EndSplineSet
EndChar

StartChar: acutecomb
Encoding: 769 769 393
Width: 0
GlyphClass: 4
Flags: MW
AnchorPoint: "Anchor-6" 283 1471 basemark 0
AnchorPoint: "Anchor-6" 144 995 mark 0
AnchorPoint: "Anchor-0" 144 995 mark 0
LayerCount: 2
Fore
SplineSet
100 1106 m 1,0,-1
 334 1433 l 1,1,-1
 629 1433 l 1,2,-1
 615 1382 l 1,3,-1
 238 1106 l 1,4,-1
 100 1106 l 1,0,-1
EndSplineSet
EndChar

StartChar: uni0302
Encoding: 770 770 394
Width: 0
GlyphClass: 4
Flags: MW
AnchorPoint: "Anchor-6" 272 1433 basemark 0
AnchorPoint: "Anchor-6" 144 995 mark 0
AnchorPoint: "Anchor-0" 144 995 mark 0
LayerCount: 2
Fore
SplineSet
-154 1106 m 1,0,-1
 164 1433 l 1,1,-1
 379 1433 l 1,2,-1
 507 1106 l 1,3,-1
 352 1106 l 1,4,-1
 236 1268 l 1,5,-1
 26 1106 l 1,6,-1
 -154 1106 l 1,0,-1
EndSplineSet
EndChar

StartChar: tildecomb
Encoding: 771 771 395
Width: 0
GlyphClass: 4
Flags: MW
AnchorPoint: "Anchor-6" 248 1354 basemark 0
AnchorPoint: "Anchor-6" 144 995 mark 0
AnchorPoint: "Anchor-0" 144 995 mark 0
LayerCount: 2
Fore
SplineSet
573 1424 m 1,0,1
 527 1300 527 1300 488 1231.5 c 128,-1,2
 449 1163 449 1163 409 1136.5 c 128,-1,3
 369 1110 369 1110 319 1110 c 0,4,5
 279 1110 279 1110 251.5 1130 c 128,-1,6
 224 1150 224 1150 202.5 1175.5 c 128,-1,7
 181 1201 181 1201 161.5 1221 c 128,-1,8
 142 1241 142 1241 118 1241 c 0,9,10
 99 1241 99 1241 82.5 1231.5 c 128,-1,11
 66 1222 66 1222 48.5 1195 c 128,-1,12
 31 1168 31 1168 9 1114 c 1,13,-1
 -128 1114 l 1,14,15
 -82 1239 -82 1239 -43.5 1307 c 128,-1,16
 -5 1375 -5 1375 36 1402 c 128,-1,17
 77 1429 77 1429 126 1429 c 0,18,19
 165 1429 165 1429 192.5 1409 c 128,-1,20
 220 1389 220 1389 242 1363 c 128,-1,21
 264 1337 264 1337 283.5 1317.5 c 128,-1,22
 303 1298 303 1298 327 1298 c 0,23,24
 347 1298 347 1298 363 1307.5 c 128,-1,25
 379 1317 379 1317 396 1344 c 128,-1,26
 413 1371 413 1371 436 1424 c 1,27,-1
 573 1424 l 1,0,1
EndSplineSet
EndChar

StartChar: uni0304
Encoding: 772 772 396
Width: 0
GlyphClass: 4
Flags: MW
AnchorPoint: "Anchor-6" 272 1433 basemark 0
AnchorPoint: "Anchor-6" 144 995 mark 0
AnchorPoint: "Anchor-0" 144 995 mark 0
LayerCount: 2
Fore
SplineSet
-81 1196 m 1,0,-1
 -38 1344 l 1,1,-1
 530 1344 l 1,2,-1
 487 1196 l 1,3,-1
 -81 1196 l 1,0,-1
EndSplineSet
EndChar

StartChar: uni0306
Encoding: 774 774 397
Width: 0
GlyphClass: 4
Flags: MW
AnchorPoint: "Anchor-6" 272 1433 basemark 0
AnchorPoint: "Anchor-6" 144 995 mark 0
AnchorPoint: "Anchor-0" 144 995 mark 0
LayerCount: 2
Fore
SplineSet
217 1277 m 128,-1,1
 271 1277 271 1277 311.5 1291.5 c 128,-1,2
 352 1306 352 1306 383.5 1340.5 c 128,-1,3
 415 1375 415 1375 445 1433 c 1,4,-1
 571 1433 l 1,5,6
 518 1307 518 1307 463 1234.5 c 128,-1,7
 408 1162 408 1162 341 1131.5 c 128,-1,8
 274 1101 274 1101 184 1101 c 0,9,10
 91 1101 91 1101 38.5 1136 c 128,-1,11
 -14 1171 -14 1171 -29.5 1244 c 128,-1,12
 -45 1317 -45 1317 -28 1433 c 1,13,-1
 81 1433 l 1,14,15
 77 1374 77 1374 89 1340 c 128,-1,16
 101 1306 101 1306 132 1291.5 c 128,-1,0
 163 1277 163 1277 217 1277 c 128,-1,1
EndSplineSet
EndChar

StartChar: uni0307
Encoding: 775 775 398
Width: 0
GlyphClass: 4
Flags: MW
AnchorPoint: "Anchor-6" 248 1354 basemark 0
AnchorPoint: "Anchor-6" 144 995 mark 0
AnchorPoint: "Anchor-0" 144 995 mark 0
LayerCount: 2
Fore
SplineSet
202 1133 m 0,0,1
 135 1133 135 1133 99.5 1164 c 128,-1,2
 64 1195 64 1195 64 1247 c 0,3,4
 64 1314 64 1314 107.5 1360 c 128,-1,5
 151 1406 151 1406 246 1406 c 0,6,7
 313 1406 313 1406 349 1376 c 128,-1,8
 385 1346 385 1346 385 1293 c 0,9,10
 385 1227 385 1227 341 1180 c 128,-1,11
 297 1133 297 1133 202 1133 c 0,0,1
EndSplineSet
EndChar

StartChar: uni0308
Encoding: 776 776 399
Width: 0
GlyphClass: 4
Flags: MW
AnchorPoint: "Anchor-6" 248 1354 basemark 0
AnchorPoint: "Anchor-6" 144 995 mark 0
AnchorPoint: "Anchor-0" 144 995 mark 0
LayerCount: 2
Fore
SplineSet
410 1140 m 0,0,1
 356 1140 356 1140 326 1169 c 128,-1,2
 296 1198 296 1198 296 1247 c 0,3,4
 296 1286 296 1286 312.5 1320.5 c 128,-1,5
 329 1355 329 1355 364 1377 c 128,-1,6
 399 1399 399 1399 454 1399 c 128,-1,7
 509 1399 509 1399 539 1370.5 c 128,-1,8
 569 1342 569 1342 569 1293 c 0,9,10
 569 1254 569 1254 552.5 1219 c 128,-1,11
 536 1184 536 1184 501 1162 c 128,-1,12
 466 1140 466 1140 410 1140 c 0,0,1
-7 1140 m 0,13,14
 -61 1140 -61 1140 -91 1169 c 128,-1,15
 -121 1198 -121 1198 -121 1247 c 0,16,17
 -121 1286 -121 1286 -104.5 1320.5 c 128,-1,18
 -88 1355 -88 1355 -53 1377 c 128,-1,19
 -18 1399 -18 1399 37 1399 c 128,-1,20
 92 1399 92 1399 122 1370.5 c 128,-1,21
 152 1342 152 1342 152 1293 c 0,22,23
 152 1254 152 1254 136 1219 c 128,-1,24
 120 1184 120 1184 85 1162 c 128,-1,25
 50 1140 50 1140 -7 1140 c 0,13,14
EndSplineSet
EndChar

StartChar: hookabovecomb
Encoding: 777 777 400
Width: 0
GlyphClass: 4
Flags: MW
AnchorPoint: "Anchor-6" 272 1433 basemark 0
AnchorPoint: "Anchor-6" 144 995 mark 0
AnchorPoint: "Anchor-0" 144 995 mark 0
LayerCount: 2
Fore
SplineSet
56 1318 m 1,0,-1
 106 1481 l 1,1,2
 246 1480 246 1480 319 1461 c 128,-1,3
 392 1442 392 1442 419 1409 c 128,-1,4
 446 1376 446 1376 446 1333 c 0,5,6
 446 1272 446 1272 418 1224.5 c 128,-1,7
 390 1177 390 1177 315 1143.5 c 128,-1,8
 240 1110 240 1110 99 1089 c 1,9,-1
 105 1172 l 1,10,11
 176 1185 176 1185 211 1199 c 128,-1,12
 246 1213 246 1213 257.5 1229 c 128,-1,13
 269 1245 269 1245 269 1264 c 0,14,15
 269 1282 269 1282 253.5 1294.5 c 128,-1,16
 238 1307 238 1307 192.5 1313.5 c 128,-1,17
 147 1320 147 1320 56 1318 c 1,0,-1
EndSplineSet
EndChar

StartChar: uni030A
Encoding: 778 778 401
Width: 0
GlyphClass: 4
Flags: MW
AnchorPoint: "Anchor-6" 273 1434 basemark 0
AnchorPoint: "Anchor-6" 144 995 mark 0
AnchorPoint: "Anchor-0" 144 995 mark 0
LayerCount: 2
Fore
SplineSet
215 1160 m 0,0,1
 269 1160 269 1160 299.5 1197 c 128,-1,2
 330 1234 330 1234 330 1284 c 0,3,4
 330 1332 330 1332 303.5 1360 c 128,-1,5
 277 1388 277 1388 233 1388 c 0,6,7
 179 1388 179 1388 148.5 1351 c 128,-1,8
 118 1314 118 1314 118 1261 c 0,9,10
 118 1215 118 1215 144 1187.5 c 128,-1,11
 170 1160 170 1160 215 1160 c 0,0,1
237 1458 m 0,12,13
 311 1458 311 1458 357.5 1411 c 128,-1,14
 404 1364 404 1364 404 1288 c 0,15,16
 404 1204 404 1204 351 1146 c 128,-1,17
 298 1088 298 1088 211 1088 c 0,18,19
 137 1088 137 1088 90.5 1135.5 c 128,-1,20
 44 1183 44 1183 44 1257 c 0,21,22
 44 1343 44 1343 97.5 1400.5 c 128,-1,23
 151 1458 151 1458 237 1458 c 0,12,13
EndSplineSet
EndChar

StartChar: uni030B
Encoding: 779 779 402
Width: 0
GlyphClass: 4
Flags: MW
AnchorPoint: "Anchor-6" 272 1433 basemark 0
AnchorPoint: "Anchor-6" 144 995 mark 0
AnchorPoint: "Anchor-0" 144 995 mark 0
LayerCount: 2
Fore
SplineSet
-48 1106 m 1,0,-1
 94 1433 l 1,1,-1
 347 1433 l 1,2,-1
 334 1389 l 1,3,-1
 66 1106 l 1,4,-1
 -48 1106 l 1,0,-1
243 1106 m 2,5,6
 242 1106 242 1106 484 1433 c 1,7,-1
 761 1433 l 1,8,-1
 747 1382 l 2,9,10
 746 1382 746 1382 370 1106 c 1,11,-1
 243 1106 l 2,5,6
EndSplineSet
EndChar

StartChar: uni030C
Encoding: 780 780 403
Width: 0
GlyphClass: 4
Flags: MW
AnchorPoint: "Anchor-6" 272 1433 basemark 0
AnchorPoint: "Anchor-6" 144 995 mark 0
AnchorPoint: "Anchor-0" 144 995 mark 0
LayerCount: 2
Fore
SplineSet
602 1433 m 1,0,-1
 284 1106 l 1,1,-1
 69 1106 l 1,2,-1
 -59 1433 l 1,3,-1
 97 1433 l 1,4,-1
 213 1271 l 1,5,-1
 423 1433 l 1,6,-1
 602 1433 l 1,0,-1
EndSplineSet
EndChar

StartChar: uni030F
Encoding: 783 783 404
Width: 0
GlyphClass: 4
Flags: MW
AnchorPoint: "Anchor-6" 272 1433 basemark 0
AnchorPoint: "Anchor-6" 144 995 mark 0
AnchorPoint: "Anchor-0" 144 995 mark 0
LayerCount: 2
Fore
SplineSet
407 1106 m 1,0,-1
 289 1106 l 1,1,-1
 179 1389 l 1,2,-1
 190 1433 l 1,3,-1
 414 1433 l 1,4,-1
 407 1106 l 1,0,-1
113 1106 m 1,5,-1
 -14 1106 l 1,6,-1
 -231 1382 l 1,7,-1
 -217 1433 l 1,8,-1
 14 1433 l 1,9,-1
 113 1106 l 1,5,-1
EndSplineSet
EndChar

StartChar: uni0311
Encoding: 785 785 405
Width: 0
GlyphClass: 4
Flags: MW
AnchorPoint: "Anchor-6" 272 1433 basemark 0
AnchorPoint: "Anchor-6" 144 995 mark 0
AnchorPoint: "Anchor-0" 144 995 mark 0
LayerCount: 2
Fore
SplineSet
233 1262 m 0,0,1
 179 1262 179 1262 138.5 1247 c 128,-1,2
 98 1232 98 1232 66 1198 c 128,-1,3
 34 1164 34 1164 5 1106 c 1,4,-1
 -122 1106 l 1,5,6
 -69 1232 -69 1232 -13.5 1304.5 c 128,-1,7
 42 1377 42 1377 109 1407.5 c 128,-1,8
 176 1438 176 1438 265 1438 c 0,9,10
 358 1438 358 1438 410.5 1403 c 128,-1,11
 463 1368 463 1368 478.5 1295 c 128,-1,12
 494 1222 494 1222 476 1106 c 1,13,-1
 369 1106 l 1,14,15
 375 1194 375 1194 344.5 1228 c 128,-1,16
 314 1262 314 1262 233 1262 c 0,0,1
EndSplineSet
EndChar

StartChar: uni0312
Encoding: 786 786 406
Width: 0
GlyphClass: 4
Flags: MW
AnchorPoint: "Anchor-6" 272 1435 basemark 0
AnchorPoint: "Anchor-6" 144 995 mark 0
AnchorPoint: "Anchor-0" 144 995 mark 0
LayerCount: 2
Fore
SplineSet
342 1218 m 0,0,1
 342 1173 342 1173 304 1134 c 128,-1,2
 266 1095 266 1095 200 1095 c 0,3,4
 144 1095 144 1095 113.5 1126 c 128,-1,5
 83 1157 83 1157 83 1215 c 0,6,7
 83 1272 83 1272 111.5 1325.5 c 128,-1,8
 140 1379 140 1379 209 1419.5 c 128,-1,9
 278 1460 278 1460 403 1475 c 1,10,-1
 391 1395 l 1,11,12
 334 1385 334 1385 304.5 1369 c 128,-1,13
 275 1353 275 1353 264 1334.5 c 128,-1,14
 253 1316 253 1316 253 1298 c 0,15,16
 253 1272 253 1272 275 1258.5 c 128,-1,17
 297 1245 297 1245 319.5 1237 c 128,-1,18
 342 1229 342 1229 342 1218 c 0,0,1
EndSplineSet
EndChar

StartChar: uni031B
Encoding: 795 795 407
Width: 0
GlyphClass: 4
Flags: MW
AnchorPoint: "Anchor-2" 144 995 mark 0
LayerCount: 2
Fore
SplineSet
537 1176 m 0,0,1
 537 1095 537 1095 495 1031 c 128,-1,2
 453 967 453 967 374.5 931 c 128,-1,3
 296 895 296 895 187 895 c 2,4,-1
 39 895 l 1,5,-1
 70 995 l 1,6,-1
 181 995 l 2,7,8
 262 995 262 995 298 1024.5 c 128,-1,9
 334 1054 334 1054 334 1108 c 0,10,11
 334 1142 334 1142 322 1169 c 128,-1,12
 310 1196 310 1196 310 1208 c 0,13,14
 310 1234 310 1234 342.5 1263 c 128,-1,15
 375 1292 375 1292 426 1292 c 0,16,17
 476 1292 476 1292 506.5 1263.5 c 128,-1,18
 537 1235 537 1235 537 1176 c 0,0,1
EndSplineSet
EndChar

StartChar: dotbelowcomb
Encoding: 803 803 408
Width: 0
GlyphClass: 4
Flags: MW
AnchorPoint: "Anchor-5" -284 -481 basemark 0
AnchorPoint: "Anchor-5" -144 0 mark 0
AnchorPoint: "Anchor-4" -144 0 mark 0
LayerCount: 2
Fore
SplineSet
-232 -363 m 0,0,1
 -299 -363 -299 -363 -334.5 -332 c 128,-1,2
 -370 -301 -370 -301 -370 -249 c 0,3,4
 -370 -182 -370 -182 -326.5 -136 c 128,-1,5
 -283 -90 -283 -90 -188 -90 c 0,6,7
 -121 -90 -121 -90 -85.5 -120 c 128,-1,8
 -50 -150 -50 -150 -50 -203 c 0,9,10
 -50 -269 -50 -269 -93.5 -316 c 128,-1,11
 -137 -363 -137 -363 -232 -363 c 0,0,1
EndSplineSet
EndChar

StartChar: uni0324
Encoding: 804 804 409
Width: 0
GlyphClass: 4
Flags: MW
AnchorPoint: "Anchor-5" -284 -481 basemark 0
AnchorPoint: "Anchor-5" -144 0 mark 0
AnchorPoint: "Anchor-4" -144 0 mark 0
LayerCount: 2
Fore
SplineSet
-25 -356 m 0,0,1
 -79 -356 -79 -356 -109 -327 c 128,-1,2
 -139 -298 -139 -298 -139 -249 c 0,3,4
 -139 -210 -139 -210 -122.5 -175.5 c 128,-1,5
 -106 -141 -106 -141 -71 -119 c 128,-1,6
 -36 -97 -36 -97 19 -97 c 128,-1,7
 74 -97 74 -97 104 -125.5 c 128,-1,8
 134 -154 134 -154 134 -203 c 0,9,10
 134 -242 134 -242 118 -277 c 128,-1,11
 102 -312 102 -312 67 -334 c 128,-1,12
 32 -356 32 -356 -25 -356 c 0,0,1
-442 -356 m 0,13,14
 -496 -356 -496 -356 -526 -327 c 128,-1,15
 -556 -298 -556 -298 -556 -249 c 0,16,17
 -556 -210 -556 -210 -539.5 -175.5 c 128,-1,18
 -523 -141 -523 -141 -488 -119 c 128,-1,19
 -453 -97 -453 -97 -397 -97 c 0,20,21
 -343 -97 -343 -97 -313 -125.5 c 128,-1,22
 -283 -154 -283 -154 -283 -203 c 0,23,24
 -283 -242 -283 -242 -299 -277 c 128,-1,25
 -315 -312 -315 -312 -350 -334 c 128,-1,26
 -385 -356 -385 -356 -442 -356 c 0,13,14
EndSplineSet
EndChar

StartChar: uni0326
Encoding: 806 806 410
Width: 0
GlyphClass: 4
Flags: MW
AnchorPoint: "Anchor-5" -284 -481 basemark 0
AnchorPoint: "Anchor-5" -144 0 mark 0
AnchorPoint: "Anchor-4" -144 0 mark 0
LayerCount: 2
Fore
SplineSet
-324 -211 m 0,0,1
 -324 -167 -324 -167 -290 -127.5 c 128,-1,2
 -256 -88 -256 -88 -183 -88 c 0,3,4
 -129 -88 -129 -88 -99 -118.5 c 128,-1,5
 -69 -149 -69 -149 -69 -208 c 0,6,7
 -69 -265 -69 -265 -97.5 -320.5 c 128,-1,8
 -126 -376 -126 -376 -195 -417 c 128,-1,9
 -264 -458 -264 -458 -387 -474 c 1,10,-1
 -375 -394 l 1,11,12
 -318 -383 -318 -383 -288 -367 c 128,-1,13
 -258 -351 -258 -351 -247 -332 c 128,-1,14
 -236 -313 -236 -313 -236 -294 c 0,15,16
 -236 -267 -236 -267 -258 -253 c 128,-1,17
 -280 -239 -280 -239 -302 -230.5 c 128,-1,18
 -324 -222 -324 -222 -324 -211 c 0,0,1
EndSplineSet
EndChar

StartChar: uni0327
Encoding: 807 807 411
Width: 0
GlyphClass: 4
Flags: MW
AnchorPoint: "Anchor-5" -284 -481 basemark 0
AnchorPoint: "Anchor-5" -144 0 mark 0
AnchorPoint: "Anchor-4" -144 0 mark 0
LayerCount: 2
Fore
SplineSet
-344 -481 m 0,0,1
 -419 -481 -419 -481 -450.5 -461.5 c 128,-1,2
 -482 -442 -482 -442 -482 -406 c 0,3,4
 -482 -379 -482 -379 -466 -360 c 128,-1,5
 -450 -341 -450 -341 -426 -341 c 0,6,7
 -413 -341 -413 -341 -396 -354.5 c 128,-1,8
 -379 -368 -379 -368 -356 -381.5 c 128,-1,9
 -333 -395 -333 -395 -301 -395 c 0,10,11
 -249 -395 -249 -395 -222.5 -371.5 c 128,-1,12
 -196 -348 -196 -348 -196 -309 c 0,13,14
 -196 -279 -196 -279 -232.5 -258.5 c 128,-1,15
 -269 -238 -269 -238 -377 -223 c 1,16,-1
 -369 -194 l 1,17,-1
 -143 39 l 1,18,-1
 -32 39 l 1,19,-1
 -174 -105 l 1,20,21
 -108 -124 -108 -124 -78 -153 c 0,22,23
 -34 -195 -34 -195 -34 -250 c 0,24,25
 -34 -315 -34 -315 -67 -367.5 c 128,-1,26
 -100 -420 -100 -420 -168.5 -450.5 c 128,-1,27
 -237 -481 -237 -481 -344 -481 c 0,0,1
EndSplineSet
EndChar

StartChar: uni0328
Encoding: 808 808 412
Width: 0
GlyphClass: 4
Flags: MW
AnchorPoint: "Anchor-3" -168 0 mark 0
LayerCount: 2
Fore
SplineSet
-303 -86 m 2,0,1
 -355 -139 -355 -139 -381.5 -174.5 c 128,-1,2
 -408 -210 -408 -210 -417 -234.5 c 128,-1,3
 -426 -259 -426 -259 -426 -283 c 0,4,5
 -426 -317 -426 -317 -407.5 -334.5 c 128,-1,6
 -389 -352 -389 -352 -349 -352 c 0,7,8
 -321 -352 -321 -352 -295 -343.5 c 128,-1,9
 -269 -335 -269 -335 -228 -313 c 1,10,-1
 -222 -389 l 1,11,12
 -293 -441 -293 -441 -343.5 -461 c 128,-1,13
 -394 -481 -394 -481 -446 -481 c 0,14,15
 -519 -481 -519 -481 -553.5 -440.5 c 128,-1,16
 -588 -400 -588 -400 -588 -342 c 0,17,18
 -588 -302 -588 -302 -574 -263.5 c 128,-1,19
 -560 -225 -560 -225 -517.5 -177.5 c 128,-1,20
 -475 -130 -475 -130 -390 -63 c 2,21,-1
 -238 63 l 1,22,-1
 -159 63 l 1,23,-1
 -303 -86 l 2,0,1
EndSplineSet
EndChar

StartChar: uni032E
Encoding: 814 814 413
Width: 0
GlyphClass: 4
Flags: MW
AnchorPoint: "Anchor-5" -284 -481 basemark 0
AnchorPoint: "Anchor-5" -144 0 mark 0
AnchorPoint: "Anchor-4" -144 0 mark 0
LayerCount: 2
Fore
SplineSet
-209 -216 m 0,0,1
 -155 -216 -155 -216 -115 -201 c 128,-1,2
 -75 -186 -75 -186 -42.5 -152 c 128,-1,3
 -10 -118 -10 -118 18 -60 c 1,4,-1
 145 -60 l 1,5,6
 92 -186 92 -186 37 -258.5 c 128,-1,7
 -18 -331 -18 -331 -85.5 -361.5 c 128,-1,8
 -153 -392 -153 -392 -241 -392 c 0,9,10
 -334 -392 -334 -392 -387 -357 c 128,-1,11
 -440 -322 -440 -322 -455 -248.5 c 128,-1,12
 -470 -175 -470 -175 -453 -60 c 1,13,-1
 -345 -60 l 1,14,15
 -351 -148 -351 -148 -321 -182 c 128,-1,16
 -291 -216 -291 -216 -209 -216 c 0,0,1
EndSplineSet
EndChar

StartChar: uni0331
Encoding: 817 817 414
Width: 0
GlyphClass: 4
Flags: MW
AnchorPoint: "Anchor-5" -284 -481 basemark 0
AnchorPoint: "Anchor-5" -144 0 mark 0
AnchorPoint: "Anchor-4" -144 0 mark 0
LayerCount: 2
Fore
SplineSet
-518 -308 m 1,0,-1
 -472 -152 l 1,1,-1
 95 -152 l 1,2,-1
 49 -308 l 1,3,-1
 -518 -308 l 1,0,-1
EndSplineSet
EndChar

StartChar: uni0335
Encoding: 821 821 415
Width: 0
GlyphClass: 4
Flags: MW
AnchorPoint: "Anchor-1" 197 1175 mark 0
LayerCount: 2
Fore
SplineSet
-161 1114 m 1,0,-1
 -125 1236 l 1,1,-1
 554 1236 l 1,2,-1
 519 1114 l 1,3,-1
 -161 1114 l 1,0,-1
EndSplineSet
EndChar

StartChar: endash
Encoding: 8211 8211 514
Width: 970
GlyphClass: 1
Flags: MW
LayerCount: 2
Fore
SplineSet
136 583 m 1,0,-1
 884 583 l 1,1,-1
 838 421 l 1,2,-1
 88 421 l 1,3,-1
 136 583 l 1,0,-1
EndSplineSet
Substitution2: "'case' Case-Sensitive Forms in Latin lookup 9 subtable" endash.case
EndChar

StartChar: emdash
Encoding: 8212 8212 515
Width: 1268
GlyphClass: 1
Flags: MW
LayerCount: 2
Fore
SplineSet
136 583 m 1,0,-1
 1183 583 l 1,1,-1
 1135 421 l 1,2,-1
 88 421 l 1,3,-1
 136 583 l 1,0,-1
EndSplineSet
Substitution2: "'case' Case-Sensitive Forms in Latin lookup 9 subtable" emdash.case
EndChar

StartChar: quoteleft
Encoding: 8216 8216 516
Width: 541
GlyphClass: 1
Flags: MW
LayerCount: 2
Fore
SplineSet
689 1314 m 1,0,1
 602 1275 602 1275 552.5 1244 c 128,-1,2
 503 1213 503 1213 483.5 1184.5 c 128,-1,3
 464 1156 464 1156 464 1125 c 0,4,5
 464 1098 464 1098 479.5 1077 c 128,-1,6
 495 1056 495 1056 516 1039.5 c 128,-1,7
 537 1023 537 1023 552 1008 c 128,-1,8
 567 993 567 993 567 978 c 0,9,10
 567 934 567 934 544.5 893 c 128,-1,11
 522 852 522 852 480 826 c 128,-1,12
 438 800 438 800 379 800 c 0,13,14
 310 800 310 800 267.5 839 c 128,-1,15
 225 878 225 878 225 959 c 0,16,17
 225 1053 225 1053 264.5 1133 c 128,-1,18
 304 1213 304 1213 396.5 1284 c 128,-1,19
 489 1355 489 1355 651 1418 c 1,20,-1
 689 1314 l 1,0,1
EndSplineSet
EndChar

StartChar: quoteright
Encoding: 8217 8217 517
Width: 537
GlyphClass: 1
Flags: MW
LayerCount: 2
Fore
SplineSet
203 903 m 1,0,1
 291 941 291 941 340.5 972.5 c 128,-1,2
 390 1004 390 1004 409 1032.5 c 128,-1,3
 428 1061 428 1061 428 1092 c 0,4,5
 428 1119 428 1119 412.5 1139.5 c 128,-1,6
 397 1160 397 1160 376 1177 c 128,-1,7
 355 1194 355 1194 339.5 1208.5 c 128,-1,8
 324 1223 324 1223 324 1239 c 0,9,10
 324 1283 324 1283 347 1324 c 128,-1,11
 370 1365 370 1365 411.5 1391 c 128,-1,12
 453 1417 453 1417 513 1417 c 0,13,14
 582 1417 582 1417 624.5 1377.5 c 128,-1,15
 667 1338 667 1338 667 1258 c 0,16,17
 667 1165 667 1165 627.5 1084 c 128,-1,18
 588 1003 588 1003 495.5 932.5 c 128,-1,19
 403 862 403 862 241 798 c 1,20,-1
 203 903 l 1,0,1
EndSplineSet
EndChar

StartChar: quotesinglbase
Encoding: 8218 8218 518
Width: 534
GlyphClass: 1
Flags: MW
LayerCount: 2
Fore
SplineSet
-106 -177 m 1,0,1
 -18 -138 -18 -138 31 -107 c 128,-1,2
 80 -76 80 -76 99.5 -47.5 c 128,-1,3
 119 -19 119 -19 119 12 c 0,4,5
 119 39 119 39 103 59.5 c 128,-1,6
 87 80 87 80 66.5 97 c 128,-1,7
 46 114 46 114 30 128.5 c 128,-1,8
 14 143 14 143 14 159 c 0,9,10
 14 204 14 204 37 244.5 c 128,-1,11
 60 285 60 285 101.5 311 c 128,-1,12
 143 337 143 337 203 337 c 0,13,14
 272 337 272 337 314.5 297.5 c 128,-1,15
 357 258 357 258 357 178 c 0,16,17
 357 84 357 84 317.5 3.5 c 128,-1,18
 278 -77 278 -77 185.5 -147.5 c 128,-1,19
 93 -218 93 -218 -68 -282 c 1,20,-1
 -106 -177 l 1,0,1
EndSplineSet
EndChar

StartChar: dagger
Encoding: 8224 8224 522
Width: 777
GlyphClass: 1
Flags: MW
LayerCount: 2
Fore
SplineSet
687 1254 m 1,0,-1
 894 1279 l 1,1,-1
 833 1068 l 2,2,3
 832 1068 832 1068 640 1093 c 1,4,-1
 616 903 l 1,5,-1
 481 651 l 1,6,-1
 374 651 l 1,7,-1
 390 903 l 1,8,-1
 475 1093 l 1,9,-1
 267 1068 l 1,10,-1
 328 1279 l 1,11,-1
 522 1254 l 1,12,-1
 546 1448 l 1,13,-1
 775 1448 l 1,14,-1
 687 1254 l 1,0,-1
EndSplineSet
EndChar

StartChar: daggerdbl
Encoding: 8225 8225 523
Width: 814
GlyphClass: 1
Flags: MW
LayerCount: 2
Fore
SplineSet
453 995 m 1,0,-1
 466 1053 l 1,1,-1
 488 1116 l 1,2,-1
 298 1109 l 1,3,-1
 352 1289 l 1,4,-1
 534 1266 l 1,5,-1
 566 1448 l 1,6,-1
 795 1448 l 1,7,-1
 721 1266 l 1,8,-1
 917 1289 l 1,9,10
 916 1289 916 1289 864 1109 c 1,11,-1
 681 1116 l 1,12,-1
 666 1053 l 1,13,-1
 645 995 l 1,14,-1
 834 1003 l 1,15,-1
 781 822 l 1,16,-1
 598 846 l 1,17,-1
 567 664 l 1,18,-1
 338 664 l 1,19,-1
 412 845 l 1,20,-1
 216 822 l 1,21,-1
 268 1003 l 1,22,-1
 453 995 l 1,0,-1
EndSplineSet
EndChar

StartChar: bullet
Encoding: 8226 8226 524
Width: 909
GlyphClass: 1
Flags: MW
LayerCount: 2
Fore
SplineSet
456 801 m 0,0,1
 542 801 542 801 607.5 764.5 c 128,-1,2
 673 728 673 728 709 660.5 c 128,-1,3
 745 593 745 593 745 502 c 0,4,5
 745 410 745 410 709 342.5 c 128,-1,6
 673 275 673 275 607.5 238.5 c 128,-1,7
 542 202 542 202 456 202 c 0,8,9
 369 202 369 202 303.5 238.5 c 128,-1,10
 238 275 238 275 202 342.5 c 128,-1,11
 166 410 166 410 166 502 c 0,12,13
 166 593 166 593 202 660.5 c 128,-1,14
 238 728 238 728 303.5 764.5 c 128,-1,15
 369 801 369 801 456 801 c 0,0,1
EndSplineSet
EndChar

StartChar: minute
Encoding: 8242 8242 527
Width: 478
GlyphClass: 1
Flags: MW
LayerCount: 2
Fore
SplineSet
212 852 m 1,0,-1
 403 1396 l 1,1,-1
 669 1396 l 1,2,-1
 653 1339 l 1,3,-1
 359 852 l 1,4,-1
 212 852 l 1,0,-1
EndSplineSet
EndChar

StartChar: guilsinglleft
Encoding: 8249 8249 529
Width: 676
GlyphClass: 1
Flags: MW
LayerCount: 2
Fore
SplineSet
349 472 m 1,0,-1
 479 87 l 1,1,-1
 343 13 l 1,2,-1
 50 410 l 1,3,-1
 103 590 l 1,4,-1
 608 987 l 1,5,-1
 703 862 l 1,6,-1
 349 472 l 1,0,-1
EndSplineSet
Substitution2: "'case' Case-Sensitive Forms in Latin lookup 9 subtable" guilsinglleft.case
EndChar

StartChar: guilsinglright
Encoding: 8250 8250 530
Width: 706
GlyphClass: 1
Flags: MW
LayerCount: 2
Fore
SplineSet
339 527 m 1,0,-1
 209 913 l 1,1,-1
 345 987 l 1,2,-1
 637 590 l 1,3,-1
 585 410 l 1,4,-1
 80 13 l 1,5,-1
 -14 139 l 1,6,-1
 339 527 l 1,0,-1
EndSplineSet
Substitution2: "'case' Case-Sensitive Forms in Latin lookup 9 subtable" guilsinglright.case
EndChar

StartChar: fraction
Encoding: 8260 8260 531
Width: 152
GlyphClass: 1
Flags: MW
LayerCount: 2
Fore
SplineSet
-590 0 m 1,0,-1
 676 1396 l 1,1,-1
 862 1396 l 1,2,-1
 -405 0 l 1,3,-1
 -590 0 l 1,0,-1
EndSplineSet
EndChar

StartChar: zerosuperior
Encoding: 8304 8304 533
Width: 833
GlyphClass: 1
Flags: MW
LayerCount: 2
Fore
SplineSet
663 1414 m 0,0,1
 750 1414 750 1414 809.5 1383.5 c 128,-1,2
 869 1353 869 1353 900.5 1294 c 128,-1,3
 932 1235 932 1235 932 1149 c 0,4,5
 932 1055 932 1055 901.5 962.5 c 128,-1,6
 871 870 871 870 812 795 c 128,-1,7
 753 720 753 720 668 674.5 c 128,-1,8
 583 629 583 629 473 629 c 0,9,10
 387 629 387 629 327 659.5 c 128,-1,11
 267 690 267 690 236 749.5 c 128,-1,12
 205 809 205 809 205 895 c 0,13,14
 205 989 205 989 235.5 1081 c 128,-1,15
 266 1173 266 1173 324.5 1248 c 128,-1,16
 383 1323 383 1323 468.5 1368.5 c 128,-1,17
 554 1414 554 1414 663 1414 c 0,0,1
496 777 m 0,18,19
 536 777 536 777 571 802 c 128,-1,20
 606 827 606 827 634.5 868.5 c 128,-1,21
 663 910 663 910 683.5 960 c 128,-1,22
 704 1010 704 1010 715 1061.5 c 128,-1,23
 726 1113 726 1113 726 1158 c 0,24,25
 726 1212 726 1212 705 1239 c 128,-1,26
 684 1266 684 1266 640 1266 c 0,27,28
 600 1266 600 1266 565 1241 c 128,-1,29
 530 1216 530 1216 502 1174.5 c 128,-1,30
 474 1133 474 1133 453.5 1083 c 128,-1,31
 433 1033 433 1033 422 981.5 c 128,-1,32
 411 930 411 930 411 885 c 0,33,34
 411 831 411 831 432 804 c 128,-1,35
 453 777 453 777 496 777 c 0,18,19
EndSplineSet
EndChar

StartChar: uni2074
Encoding: 8308 8308 534
Width: 779
GlyphClass: 1
Flags: MW
LayerCount: 2
Fore
SplineSet
671 863 m 1,0,-1
 636 743 l 1,1,-1
 733 710 l 1,2,-1
 714 645 l 1,3,-1
 273 645 l 1,4,-1
 292 710 l 1,5,-1
 412 743 l 1,6,-1
 447 863 l 1,7,-1
 148 863 l 1,8,-1
 182 981 l 1,9,-1
 594 1396 l 1,10,-1
 826 1396 l 1,11,-1
 710 996 l 1,12,-1
 778 996 l 1,13,-1
 890 1013 l 1,14,-1
 812 863 l 1,15,-1
 671 863 l 1,0,-1
485 996 m 1,16,-1
 557 1243 l 1,17,-1
 308 996 l 1,18,-1
 485 996 l 1,16,-1
EndSplineSet
EndChar

StartChar: uni20A6
Encoding: 8358 8358 538
Width: 1308
GlyphClass: 1
Flags: MW
LayerCount: 2
Fore
SplineSet
1414 949 m 1,0,-1
 1377 819 l 1,1,-1
 1201 819 l 1,2,-1
 1144 623 l 1,3,-1
 1320 623 l 1,4,-1
 1282 492 l 1,5,-1
 1106 492 l 1,6,-1
 962 -2 l 1,7,-1
 677 -2 l 1,8,-1
 625 492 l 1,9,-1
 363 492 l 1,10,-1
 256 122 l 1,11,-1
 390 83 l 1,12,-1
 366 0 l 1,13,-1
 -74 0 l 1,14,-1
 -50 83 l 1,15,-1
 105 122 l 1,16,-1
 212 492 l 1,17,-1
 31 492 l 1,18,-1
 69 623 l 1,19,-1
 250 623 l 1,20,-1
 307 819 l 1,21,-1
 125 819 l 1,22,-1
 163 949 l 1,23,-1
 345 949 l 1,24,-1
 436 1262 l 1,25,-1
 314 1313 l 1,26,-1
 338 1396 l 1,27,-1
 808 1396 l 1,28,-1
 855 949 l 1,29,-1
 1087 949 l 1,30,-1
 1181 1274 l 1,31,-1
 1047 1313 l 1,32,-1
 1071 1396 l 1,33,-1
 1511 1396 l 1,34,-1
 1488 1313 l 1,35,-1
 1333 1274 l 1,36,-1
 1239 949 l 1,37,-1
 1414 949 l 1,0,-1
917 358 m 1,38,-1
 956 492 l 1,39,-1
 903 492 l 1,40,-1
 917 358 l 1,38,-1
555 1157 m 1,41,-1
 495 949 l 1,42,-1
 577 949 l 1,43,-1
 555 1157 l 1,41,-1
590 819 m 1,44,-1
 457 819 l 1,45,-1
 401 623 l 1,46,-1
 611 623 l 1,47,-1
 590 819 l 1,44,-1
869 819 m 1,48,-1
 889 623 l 1,49,-1
 994 623 l 1,50,-1
 1050 819 l 1,51,-1
 869 819 l 1,48,-1
EndSplineSet
Substitution2: "'rvrn' Required Variation Alternates in Latin lookup 11 subtable" uni20A6.1
Substitution2: "'tnum' Tabular Numbers in Latin lookup 7 subtable" uni20A6
Substitution2: "'pnum' Proportional Numbers in Latin lookup 6 subtable" uni20A6.lf
EndChar

StartChar: peseta
Encoding: 8359 8359 539
Width: 1308
GlyphClass: 1
Flags: MW
LayerCount: 2
Fore
SplineSet
370 717 m 2,0,1
 404 717 404 717 433 738.5 c 128,-1,2
 462 760 462 760 484 797 c 128,-1,3
 506 834 506 834 523.5 880.5 c 128,-1,4
 541 927 541 927 551.5 976.5 c 128,-1,5
 562 1026 562 1026 567 1072 c 0,6,7
 579 1150 579 1150 564.5 1182.5 c 128,-1,8
 550 1215 550 1215 504 1215 c 2,9,-1
 490 1215 l 1,10,-1
 345 717 l 1,11,-1
 370 717 l 2,0,1
1331 954 m 0,12,13
 1369 954 1369 954 1396 948.5 c 128,-1,14
 1423 943 1423 943 1443 931 c 1,15,-1
 1385 693 l 1,16,-1
 1322 693 l 1,17,-1
 1328 820 l 1,18,19
 1325 820 1325 820 1321 820 c 0,20,21
 1265 820 1265 820 1242.5 785 c 128,-1,22
 1220 750 1220 750 1220 695 c 0,23,24
 1221 653 1221 653 1233 611.5 c 128,-1,25
 1245 570 1245 570 1261.5 526 c 128,-1,26
 1278 482 1278 482 1290 432 c 128,-1,27
 1302 382 1302 382 1302 323 c 0,28,29
 1301 208 1301 208 1265.5 132.5 c 128,-1,30
 1230 57 1230 57 1165 19.5 c 128,-1,31
 1100 -18 1100 -18 1011 -18 c 0,32,33
 978 -18 978 -18 945.5 -12 c 128,-1,34
 913 -6 913 -6 888 6 c 1,35,-1
 943 266 l 1,36,-1
 1008 266 l 1,37,-1
 1010 121 l 1,38,39
 1075 121 1075 121 1101 154 c 256,40,41
 1127 187 1127 187 1127 259 c 0,42,43
 1127 306 1127 306 1115.5 343 c 128,-1,44
 1104 380 1104 380 1088.5 417 c 128,-1,45
 1073 454 1073 454 1061.5 497.5 c 128,-1,46
 1050 541 1050 541 1050 601 c 0,47,48
 1050 700 1050 700 1081 780.5 c 128,-1,49
 1112 861 1112 861 1174 907.5 c 128,-1,50
 1236 954 1236 954 1331 954 c 0,12,13
290 1262 m 1,51,-1
 211 1297 l 1,52,-1
 240 1396 l 1,53,-1
 439 1396 l 1,54,-1
 542 1396 l 1,55,-1
 568 1396 l 2,56,57
 685 1396 685 1396 730 1316.5 c 128,-1,58
 775 1237 775 1237 751 1073 c 0,59,60
 740 972 740 972 710 877.5 c 128,-1,61
 680 783 680 783 632 708 c 128,-1,62
 584 633 584 633 518.5 589 c 128,-1,63
 453 545 453 545 372 545 c 2,64,-1
 295 545 l 1,65,-1
 176 134 l 1,66,-1
 267 99 l 1,67,-1
 238 0 l 1,68,-1
 -165 0 l 1,69,-1
 -137 99 l 1,70,-1
 -38 134 l 1,71,-1
 290 1262 l 1,51,-1
792 229 m 2,72,73
 779 183 779 183 784 166.5 c 128,-1,74
 789 150 789 150 814 150 c 0,75,76
 829 150 829 150 846 153.5 c 128,-1,77
 863 157 863 157 883 167 c 0,78,79
 884 167 884 167 846 40 c 1,80,81
 816 19 816 19 788 6.5 c 128,-1,82
 760 -6 760 -6 736 -11.5 c 128,-1,83
 712 -17 712 -17 688 -17 c 0,84,85
 641 -17 641 -17 611 4.5 c 128,-1,86
 581 26 581 26 575.5 75.5 c 128,-1,87
 570 125 570 125 594 210 c 2,88,-1
 752 757 l 1,89,-1
 709 757 l 1,90,-1
 736 853 l 1,91,92
 787 880 787 880 821.5 907.5 c 128,-1,93
 856 935 856 935 887 980.5 c 128,-1,94
 918 1026 918 1026 959 1107 c 1,95,-1
 1047 1107 l 1,96,-1
 993 922 l 1,97,-1
 1087 922 l 1,98,-1
 1036 757 l 1,99,-1
 945 757 l 1,100,-1
 792 229 l 2,72,73
EndSplineSet
Substitution2: "'tnum' Tabular Numbers in Latin lookup 7 subtable" peseta
Substitution2: "'pnum' Proportional Numbers in Latin lookup 6 subtable" peseta.lf
EndChar

StartChar: uni20A9
Encoding: 8361 8361 540
Width: 1308
GlyphClass: 1
Flags: MW
LayerCount: 2
Fore
SplineSet
1452 949 m 1,0,-1
 1414 819 l 1,1,-1
 1266 819 l 1,2,-1
 1192 623 l 1,3,-1
 1357 623 l 1,4,-1
 1319 492 l 1,5,-1
 1142 492 l 1,6,-1
 955 -2 l 1,7,-1
 684 -2 l 1,8,-1
 739 492 l 1,9,-1
 576 492 l 1,10,-1
 346 -2 l 1,11,-1
 79 -2 l 1,12,-1
 170 492 l 1,13,-1
 -18 492 l 1,14,-1
 20 623 l 1,15,-1
 195 623 l 1,16,-1
 231 819 l 1,17,-1
 76 819 l 1,18,-1
 114 949 l 1,19,-1
 255 949 l 1,20,-1
 315 1273 l 1,21,-1
 225 1312 l 1,22,-1
 250 1396 l 1,23,-1
 694 1396 l 1,24,-1
 668 1312 l 1,25,-1
 575 1277 l 1,26,27
 576 1277 576 1277 509 949 c 1,28,-1
 656 949 l 1,29,-1
 869 1398 l 1,30,-1
 1085 1398 l 1,31,-1
 1034 949 l 1,32,-1
 1173 949 l 1,33,-1
 1292 1281 l 1,34,-1
 1209 1312 l 1,35,-1
 1235 1396 l 1,36,-1
 1581 1396 l 1,37,-1
 1555 1312 l 1,38,-1
 1439 1276 l 1,39,-1
 1315 949 l 1,40,-1
 1452 949 l 1,0,-1
753 623 m 1,41,-1
 775 819 l 1,42,-1
 728 819 l 1,43,-1
 637 623 l 1,44,-1
 753 623 l 1,41,-1
789 949 m 1,45,-1
 790 951 l 1,46,-1
 789 949 l 1,47,-1
 789 949 l 1,45,-1
1010 492 m 1,48,-1
 983 492 l 1,49,-1
 970 380 l 1,50,-1
 1010 492 l 1,48,-1
1057 623 m 1,51,-1
 1127 819 l 1,52,-1
 1020 819 l 1,53,-1
 998 623 l 1,54,-1
 1057 623 l 1,51,-1
439 492 m 1,55,-1
 417 492 l 1,56,57
 409 453 409 453 401 411 c 1,58,-1
 439 492 l 1,55,-1
501 623 m 1,59,-1
 594 819 l 1,60,-1
 483 819 l 1,61,62
 465 730 465 730 444 623 c 1,63,-1
 501 623 l 1,59,-1
EndSplineSet
Substitution2: "'rvrn' Required Variation Alternates in Latin lookup 11 subtable" uni20A9.1
Substitution2: "'tnum' Tabular Numbers in Latin lookup 7 subtable" uni20A9
Substitution2: "'pnum' Proportional Numbers in Latin lookup 6 subtable" uni20A9.lf
EndChar

